G04*
G04 #@! TF.GenerationSoftware,Altium Limited,Altium NEXUS,2.1.9 (83)*
G04*
G04 Layer_Color=65535*
%FSLAX44Y44*%
%MOMM*%
G71*
G01*
G75*
%ADD10C,0.2500*%
%ADD11C,0.2540*%
%ADD12C,0.6000*%
%ADD13C,0.2400*%
%ADD14C,0.2000*%
%ADD15C,0.1524*%
%ADD16C,0.1270*%
%ADD17C,0.2032*%
%ADD18C,0.1000*%
G36*
X648030Y742366D02*
X648747D01*
Y741649D01*
X649464D01*
Y740932D01*
Y740215D01*
Y739498D01*
Y738781D01*
X648747D01*
Y738063D01*
X648030D01*
Y737346D01*
X643727D01*
Y736629D01*
Y735912D01*
Y735195D01*
Y734478D01*
Y733760D01*
Y733043D01*
Y732326D01*
Y731609D01*
X648030D01*
Y730892D01*
X648747D01*
Y730175D01*
X649464D01*
Y729457D01*
Y728740D01*
Y728023D01*
Y727306D01*
Y726589D01*
Y725872D01*
Y725155D01*
Y724437D01*
Y723720D01*
Y723003D01*
Y722286D01*
Y721569D01*
Y720852D01*
Y720134D01*
Y719417D01*
Y718700D01*
Y717983D01*
Y717266D01*
Y716549D01*
Y715832D01*
X648747D01*
Y715114D01*
X648030D01*
Y714397D01*
X645161D01*
Y715114D01*
X644444D01*
Y715832D01*
X643727D01*
Y716549D01*
Y717266D01*
Y717983D01*
Y718700D01*
Y719417D01*
Y720134D01*
Y720852D01*
Y721569D01*
Y722286D01*
Y723003D01*
Y723720D01*
Y724437D01*
Y725155D01*
Y725872D01*
X632252D01*
Y725155D01*
Y724437D01*
Y723720D01*
Y723003D01*
Y722286D01*
Y721569D01*
X631535D01*
Y720852D01*
X630818D01*
Y720134D01*
X626515D01*
Y719417D01*
Y718700D01*
Y717983D01*
Y717266D01*
Y716549D01*
Y715832D01*
X625798D01*
Y715114D01*
X625081D01*
Y714397D01*
X615041D01*
Y713680D01*
Y712963D01*
Y712246D01*
Y711529D01*
Y710811D01*
Y710094D01*
Y709377D01*
Y708660D01*
Y707943D01*
Y707226D01*
Y706509D01*
Y705791D01*
Y705074D01*
Y704357D01*
Y703640D01*
Y702923D01*
Y702206D01*
Y701488D01*
Y700771D01*
Y700054D01*
Y699337D01*
Y698620D01*
Y697903D01*
Y697186D01*
X625081D01*
Y696468D01*
X625798D01*
Y695751D01*
X626515D01*
Y695034D01*
Y694317D01*
Y693600D01*
Y692883D01*
Y692166D01*
Y691448D01*
Y690731D01*
Y690014D01*
Y689297D01*
Y688580D01*
Y687862D01*
Y687145D01*
X625798D01*
Y686428D01*
X625081D01*
Y685711D01*
X620778D01*
Y684994D01*
Y684277D01*
Y683560D01*
Y682842D01*
Y682125D01*
Y681408D01*
X620061D01*
Y680691D01*
X619343D01*
Y679974D01*
X609303D01*
Y679257D01*
Y678540D01*
Y677822D01*
Y677105D01*
Y676388D01*
Y675671D01*
X608586D01*
Y674954D01*
X607869D01*
Y674237D01*
X605000D01*
Y674954D01*
X604283D01*
Y675671D01*
X603566D01*
Y676388D01*
Y677105D01*
Y677822D01*
Y678540D01*
Y679257D01*
Y679974D01*
Y680691D01*
Y681408D01*
Y682125D01*
Y682842D01*
Y683560D01*
Y684277D01*
X604283D01*
Y684994D01*
X605000D01*
Y685711D01*
X615041D01*
Y686428D01*
Y687145D01*
Y687862D01*
Y688580D01*
Y689297D01*
Y690014D01*
Y690731D01*
Y691448D01*
X605000D01*
Y692166D01*
X604283D01*
Y692883D01*
X603566D01*
Y693600D01*
Y694317D01*
Y695034D01*
Y695751D01*
X604283D01*
Y696468D01*
X605000D01*
Y697186D01*
X609303D01*
Y697903D01*
Y698620D01*
Y699337D01*
Y700054D01*
Y700771D01*
Y701488D01*
Y702206D01*
Y702923D01*
Y703640D01*
Y704357D01*
Y705074D01*
Y705791D01*
Y706509D01*
Y707226D01*
Y707943D01*
Y708660D01*
X603566D01*
Y707943D01*
Y707226D01*
Y706509D01*
Y705791D01*
Y705074D01*
Y704357D01*
X602849D01*
Y703640D01*
X602132D01*
Y702923D01*
X599263D01*
Y703640D01*
X598546D01*
Y704357D01*
X597829D01*
Y705074D01*
Y705791D01*
Y706509D01*
Y707226D01*
Y707943D01*
Y708660D01*
X593526D01*
Y709377D01*
X592809D01*
Y710094D01*
X592092D01*
Y710811D01*
Y711529D01*
Y712246D01*
Y712963D01*
X592809D01*
Y713680D01*
X593526D01*
Y714397D01*
X597829D01*
Y715114D01*
Y715832D01*
Y716549D01*
Y717266D01*
Y717983D01*
Y718700D01*
X598546D01*
Y719417D01*
X599263D01*
Y720134D01*
X602132D01*
Y719417D01*
X602849D01*
Y718700D01*
X603566D01*
Y717983D01*
Y717266D01*
Y716549D01*
Y715832D01*
Y715114D01*
Y714397D01*
X609303D01*
Y715114D01*
Y715832D01*
Y716549D01*
Y717266D01*
Y717983D01*
Y718700D01*
Y719417D01*
Y720134D01*
Y720852D01*
Y721569D01*
Y722286D01*
Y723003D01*
Y723720D01*
Y724437D01*
X610020D01*
Y725155D01*
X610738D01*
Y725872D01*
X615041D01*
Y726589D01*
Y727306D01*
Y728023D01*
Y728740D01*
Y729457D01*
Y730175D01*
Y730892D01*
Y731609D01*
X597829D01*
Y730892D01*
Y730175D01*
Y729457D01*
Y728740D01*
Y728023D01*
Y727306D01*
X597112D01*
Y726589D01*
X596395D01*
Y725872D01*
X593526D01*
Y726589D01*
X592809D01*
Y727306D01*
X592092D01*
Y728023D01*
Y728740D01*
Y729457D01*
Y730175D01*
Y730892D01*
Y731609D01*
X587789D01*
Y732326D01*
X587071D01*
Y733043D01*
X586354D01*
Y733760D01*
Y734478D01*
Y735195D01*
Y735912D01*
Y736629D01*
Y737346D01*
X582051D01*
Y738063D01*
X581334D01*
Y738781D01*
X580617D01*
Y739498D01*
Y740215D01*
Y740932D01*
Y741649D01*
X581334D01*
Y742366D01*
X582051D01*
Y743083D01*
X596395D01*
Y742366D01*
X597112D01*
Y741649D01*
X597829D01*
Y740932D01*
Y740215D01*
Y739498D01*
Y738781D01*
Y738063D01*
Y737346D01*
X615041D01*
Y738063D01*
Y738781D01*
Y739498D01*
Y740215D01*
Y740932D01*
Y741649D01*
X615758D01*
Y742366D01*
X616475D01*
Y743083D01*
X625081D01*
Y742366D01*
X625798D01*
Y741649D01*
X626515D01*
Y740932D01*
Y740215D01*
Y739498D01*
Y738781D01*
X625798D01*
Y738063D01*
X625081D01*
Y737346D01*
X620778D01*
Y736629D01*
Y735912D01*
Y735195D01*
Y734478D01*
Y733760D01*
Y733043D01*
Y732326D01*
Y731609D01*
X626515D01*
Y732326D01*
Y733043D01*
Y733760D01*
Y734478D01*
Y735195D01*
Y735912D01*
X627232D01*
Y736629D01*
X627949D01*
Y737346D01*
X630818D01*
Y736629D01*
X631535D01*
Y735912D01*
X632252D01*
Y735195D01*
Y734478D01*
Y733760D01*
Y733043D01*
Y732326D01*
Y731609D01*
X637989D01*
Y732326D01*
Y733043D01*
Y733760D01*
Y734478D01*
Y735195D01*
Y735912D01*
Y736629D01*
Y737346D01*
Y738063D01*
Y738781D01*
Y739498D01*
Y740215D01*
Y740932D01*
Y741649D01*
X638707D01*
Y742366D01*
X639424D01*
Y743083D01*
X648030D01*
Y742366D01*
D02*
G37*
G36*
X579183Y736629D02*
X579900D01*
Y735912D01*
X580617D01*
Y735195D01*
Y734478D01*
Y733760D01*
Y733043D01*
X579900D01*
Y732326D01*
X579183D01*
Y731609D01*
X576314D01*
Y732326D01*
X575597D01*
Y733043D01*
X574880D01*
Y733760D01*
Y734478D01*
Y735195D01*
Y735912D01*
X575597D01*
Y736629D01*
X576314D01*
Y737346D01*
X579183D01*
Y736629D01*
D02*
G37*
G36*
X590657Y725155D02*
X591374D01*
Y724437D01*
X592092D01*
Y723720D01*
Y723003D01*
Y722286D01*
Y721569D01*
X591374D01*
Y720852D01*
X590657D01*
Y720134D01*
X587789D01*
Y720852D01*
X587071D01*
Y721569D01*
X586354D01*
Y722286D01*
Y723003D01*
Y723720D01*
Y724437D01*
X587071D01*
Y725155D01*
X587789D01*
Y725872D01*
X590657D01*
Y725155D01*
D02*
G37*
G36*
X579183D02*
X579900D01*
Y724437D01*
X580617D01*
Y723720D01*
Y723003D01*
Y722286D01*
Y721569D01*
X579900D01*
Y720852D01*
X579183D01*
Y720134D01*
X576314D01*
Y720852D01*
X575597D01*
Y721569D01*
X574880D01*
Y722286D01*
Y723003D01*
Y723720D01*
Y724437D01*
X575597D01*
Y725155D01*
X576314D01*
Y725872D01*
X579183D01*
Y725155D01*
D02*
G37*
G36*
X636555Y719417D02*
X637272D01*
Y718700D01*
X637989D01*
Y717983D01*
Y717266D01*
Y716549D01*
Y715832D01*
X637272D01*
Y715114D01*
X636555D01*
Y714397D01*
X633686D01*
Y715114D01*
X632969D01*
Y715832D01*
X632252D01*
Y716549D01*
Y717266D01*
Y717983D01*
Y718700D01*
X632969D01*
Y719417D01*
X633686D01*
Y720134D01*
X636555D01*
Y719417D01*
D02*
G37*
G36*
X642292Y713680D02*
X643009D01*
Y712963D01*
X643727D01*
Y712246D01*
Y711529D01*
Y710811D01*
Y710094D01*
X643009D01*
Y709377D01*
X642292D01*
Y708660D01*
X639424D01*
Y709377D01*
X638707D01*
Y710094D01*
X637989D01*
Y710811D01*
Y711529D01*
Y712246D01*
Y712963D01*
X638707D01*
Y713680D01*
X639424D01*
Y714397D01*
X642292D01*
Y713680D01*
D02*
G37*
G36*
X630818D02*
X631535D01*
Y712963D01*
X632252D01*
Y712246D01*
Y711529D01*
Y710811D01*
Y710094D01*
X631535D01*
Y709377D01*
X630818D01*
Y708660D01*
X627949D01*
Y709377D01*
X627232D01*
Y710094D01*
X626515D01*
Y710811D01*
Y711529D01*
Y712246D01*
Y712963D01*
X627232D01*
Y713680D01*
X627949D01*
Y714397D01*
X630818D01*
Y713680D01*
D02*
G37*
G36*
X695362Y742366D02*
Y741649D01*
Y740932D01*
Y740215D01*
Y739498D01*
Y738781D01*
Y738063D01*
Y737346D01*
Y736629D01*
Y735912D01*
Y735195D01*
Y734478D01*
Y733760D01*
Y733043D01*
Y732326D01*
Y731609D01*
Y730892D01*
Y730175D01*
Y729457D01*
Y728740D01*
Y728023D01*
Y727306D01*
Y726589D01*
Y725872D01*
Y725155D01*
Y724437D01*
Y723720D01*
Y723003D01*
Y722286D01*
Y721569D01*
Y720852D01*
Y720134D01*
Y719417D01*
Y718700D01*
Y717983D01*
Y717266D01*
Y716549D01*
Y715832D01*
Y715114D01*
Y714397D01*
Y713680D01*
Y712963D01*
Y712246D01*
Y711529D01*
Y710811D01*
Y710094D01*
Y709377D01*
Y708660D01*
Y707943D01*
Y707226D01*
Y706509D01*
Y705791D01*
Y705074D01*
Y704357D01*
Y703640D01*
Y702923D01*
X655918D01*
Y703640D01*
Y704357D01*
Y705074D01*
Y705791D01*
Y706509D01*
Y707226D01*
Y707943D01*
Y708660D01*
Y709377D01*
Y710094D01*
Y710811D01*
Y711529D01*
Y712246D01*
Y712963D01*
Y713680D01*
Y714397D01*
Y715114D01*
Y715832D01*
Y716549D01*
Y717266D01*
Y717983D01*
Y718700D01*
Y719417D01*
Y720134D01*
Y720852D01*
Y721569D01*
Y722286D01*
Y723003D01*
Y723720D01*
Y724437D01*
Y725155D01*
Y725872D01*
Y726589D01*
Y727306D01*
Y728023D01*
Y728740D01*
Y729457D01*
Y730175D01*
Y730892D01*
Y731609D01*
Y732326D01*
Y733043D01*
Y733760D01*
Y734478D01*
Y735195D01*
Y735912D01*
Y736629D01*
Y737346D01*
Y738063D01*
Y738781D01*
Y739498D01*
Y740215D01*
Y740932D01*
Y741649D01*
Y742366D01*
Y743083D01*
X695362D01*
Y742366D01*
D02*
G37*
G36*
X625081Y707943D02*
X625798D01*
Y707226D01*
X626515D01*
Y706509D01*
Y705791D01*
Y705074D01*
Y704357D01*
X625798D01*
Y703640D01*
X625081D01*
Y702923D01*
X622212D01*
Y703640D01*
X621495D01*
Y704357D01*
X620778D01*
Y705074D01*
Y705791D01*
Y706509D01*
Y707226D01*
X621495D01*
Y707943D01*
X622212D01*
Y708660D01*
X625081D01*
Y707943D01*
D02*
G37*
G36*
X590657D02*
X591374D01*
Y707226D01*
X592092D01*
Y706509D01*
Y705791D01*
Y705074D01*
Y704357D01*
X591374D01*
Y703640D01*
X590657D01*
Y702923D01*
X587789D01*
Y703640D01*
X587071D01*
Y704357D01*
X586354D01*
Y705074D01*
Y705791D01*
Y706509D01*
Y707226D01*
X587071D01*
Y707943D01*
X587789D01*
Y708660D01*
X590657D01*
Y707943D01*
D02*
G37*
G36*
X584920Y719417D02*
X585637D01*
Y718700D01*
X586354D01*
Y717983D01*
Y717266D01*
Y716549D01*
Y715832D01*
Y715114D01*
Y714397D01*
Y713680D01*
Y712963D01*
Y712246D01*
Y711529D01*
Y710811D01*
Y710094D01*
X585637D01*
Y709377D01*
X584920D01*
Y708660D01*
X580617D01*
Y707943D01*
Y707226D01*
Y706509D01*
Y705791D01*
Y705074D01*
Y704357D01*
X579900D01*
Y703640D01*
X579183D01*
Y702923D01*
X576314D01*
Y703640D01*
X575597D01*
Y704357D01*
X574880D01*
Y705074D01*
Y705791D01*
Y706509D01*
Y707226D01*
Y707943D01*
Y708660D01*
Y709377D01*
Y710094D01*
Y710811D01*
Y711529D01*
Y712246D01*
Y712963D01*
X575597D01*
Y713680D01*
X576314D01*
Y714397D01*
X580617D01*
Y715114D01*
Y715832D01*
Y716549D01*
Y717266D01*
Y717983D01*
Y718700D01*
X581334D01*
Y719417D01*
X582051D01*
Y720134D01*
X584920D01*
Y719417D01*
D02*
G37*
G36*
X569143Y742366D02*
Y741649D01*
Y740932D01*
Y740215D01*
Y739498D01*
Y738781D01*
Y738063D01*
Y737346D01*
Y736629D01*
Y735912D01*
Y735195D01*
Y734478D01*
Y733760D01*
Y733043D01*
Y732326D01*
Y731609D01*
Y730892D01*
Y730175D01*
Y729457D01*
Y728740D01*
Y728023D01*
Y727306D01*
Y726589D01*
Y725872D01*
Y725155D01*
Y724437D01*
Y723720D01*
Y723003D01*
Y722286D01*
Y721569D01*
Y720852D01*
Y720134D01*
Y719417D01*
Y718700D01*
Y717983D01*
Y717266D01*
Y716549D01*
Y715832D01*
Y715114D01*
Y714397D01*
Y713680D01*
Y712963D01*
Y712246D01*
Y711529D01*
Y710811D01*
Y710094D01*
Y709377D01*
Y708660D01*
Y707943D01*
Y707226D01*
Y706509D01*
Y705791D01*
Y705074D01*
Y704357D01*
Y703640D01*
Y702923D01*
X529699D01*
Y703640D01*
Y704357D01*
Y705074D01*
Y705791D01*
Y706509D01*
Y707226D01*
Y707943D01*
Y708660D01*
Y709377D01*
Y710094D01*
Y710811D01*
Y711529D01*
Y712246D01*
Y712963D01*
Y713680D01*
Y714397D01*
Y715114D01*
Y715832D01*
Y716549D01*
Y717266D01*
Y717983D01*
Y718700D01*
Y719417D01*
Y720134D01*
Y720852D01*
Y721569D01*
Y722286D01*
Y723003D01*
Y723720D01*
Y724437D01*
Y725155D01*
Y725872D01*
Y726589D01*
Y727306D01*
Y728023D01*
Y728740D01*
Y729457D01*
Y730175D01*
Y730892D01*
Y731609D01*
Y732326D01*
Y733043D01*
Y733760D01*
Y734478D01*
Y735195D01*
Y735912D01*
Y736629D01*
Y737346D01*
Y738063D01*
Y738781D01*
Y739498D01*
Y740215D01*
Y740932D01*
Y741649D01*
Y742366D01*
Y743083D01*
X569143D01*
Y742366D01*
D02*
G37*
G36*
X636555Y707943D02*
X637272D01*
Y707226D01*
X637989D01*
Y706509D01*
Y705791D01*
Y705074D01*
Y704357D01*
Y703640D01*
Y702923D01*
Y702206D01*
Y701488D01*
Y700771D01*
Y700054D01*
Y699337D01*
Y698620D01*
X637272D01*
Y697903D01*
X636555D01*
Y697186D01*
X633686D01*
Y697903D01*
X632969D01*
Y698620D01*
X632252D01*
Y699337D01*
Y700054D01*
Y700771D01*
Y701488D01*
Y702206D01*
Y702923D01*
Y703640D01*
Y704357D01*
Y705074D01*
Y705791D01*
Y706509D01*
Y707226D01*
X632969D01*
Y707943D01*
X633686D01*
Y708660D01*
X636555D01*
Y707943D01*
D02*
G37*
G36*
X596395Y702206D02*
X597112D01*
Y701488D01*
X597829D01*
Y700771D01*
Y700054D01*
Y699337D01*
Y698620D01*
X597112D01*
Y697903D01*
X596395D01*
Y697186D01*
X593526D01*
Y697903D01*
X592809D01*
Y698620D01*
X592092D01*
Y699337D01*
Y700054D01*
Y700771D01*
Y701488D01*
X592809D01*
Y702206D01*
X593526D01*
Y702923D01*
X596395D01*
Y702206D01*
D02*
G37*
G36*
X676716Y696468D02*
X677433D01*
Y695751D01*
X678150D01*
Y695034D01*
Y694317D01*
Y693600D01*
Y692883D01*
Y692166D01*
Y691448D01*
Y690731D01*
Y690014D01*
Y689297D01*
Y688580D01*
Y687862D01*
Y687145D01*
Y686428D01*
Y685711D01*
X682453D01*
Y684994D01*
X683170D01*
Y684277D01*
X683887D01*
Y683560D01*
Y682842D01*
Y682125D01*
Y681408D01*
X683170D01*
Y680691D01*
X682453D01*
Y679974D01*
X678150D01*
Y679257D01*
Y678540D01*
Y677822D01*
Y677105D01*
Y676388D01*
Y675671D01*
X677433D01*
Y674954D01*
X676716D01*
Y674237D01*
X672413D01*
Y673520D01*
Y672802D01*
Y672085D01*
Y671368D01*
Y670651D01*
Y669934D01*
X671696D01*
Y669217D01*
X670978D01*
Y668499D01*
X655201D01*
Y667782D01*
Y667065D01*
Y666348D01*
Y665631D01*
Y664914D01*
Y664196D01*
X654484D01*
Y663479D01*
X653767D01*
Y662762D01*
X645161D01*
Y663479D01*
X644444D01*
Y664196D01*
X643727D01*
Y664914D01*
Y665631D01*
Y666348D01*
Y667065D01*
Y667782D01*
Y668499D01*
Y669217D01*
Y669934D01*
Y670651D01*
Y671368D01*
Y672085D01*
Y672802D01*
X644444D01*
Y673520D01*
X645161D01*
Y674237D01*
X649464D01*
Y674954D01*
Y675671D01*
Y676388D01*
Y677105D01*
Y677822D01*
Y678540D01*
X650181D01*
Y679257D01*
X650898D01*
Y679974D01*
X660938D01*
Y680691D01*
Y681408D01*
Y682125D01*
Y682842D01*
Y683560D01*
Y684277D01*
Y684994D01*
Y685711D01*
Y686428D01*
Y687145D01*
Y687862D01*
Y688580D01*
Y689297D01*
Y690014D01*
Y690731D01*
Y691448D01*
Y692166D01*
Y692883D01*
Y693600D01*
Y694317D01*
Y695034D01*
Y695751D01*
X661656D01*
Y696468D01*
X662373D01*
Y697186D01*
X665241D01*
Y696468D01*
X665958D01*
Y695751D01*
X666676D01*
Y695034D01*
Y694317D01*
Y693600D01*
Y692883D01*
Y692166D01*
Y691448D01*
X672413D01*
Y692166D01*
Y692883D01*
Y693600D01*
Y694317D01*
Y695034D01*
Y695751D01*
X673130D01*
Y696468D01*
X673847D01*
Y697186D01*
X676716D01*
Y696468D01*
D02*
G37*
G36*
X688190D02*
X688907D01*
Y695751D01*
X689624D01*
Y695034D01*
Y694317D01*
Y693600D01*
Y692883D01*
Y692166D01*
Y691448D01*
Y690731D01*
Y690014D01*
Y689297D01*
Y688580D01*
Y687862D01*
Y687145D01*
X688907D01*
Y686428D01*
X688190D01*
Y685711D01*
X685322D01*
Y686428D01*
X684604D01*
Y687145D01*
X683887D01*
Y687862D01*
Y688580D01*
Y689297D01*
Y690014D01*
Y690731D01*
Y691448D01*
Y692166D01*
Y692883D01*
Y693600D01*
Y694317D01*
Y695034D01*
Y695751D01*
X684604D01*
Y696468D01*
X685322D01*
Y697186D01*
X688190D01*
Y696468D01*
D02*
G37*
G36*
X602132Y690731D02*
X602849D01*
Y690014D01*
X603566D01*
Y689297D01*
Y688580D01*
Y687862D01*
Y687145D01*
X602849D01*
Y686428D01*
X602132D01*
Y685711D01*
X593526D01*
Y686428D01*
X592809D01*
Y687145D01*
X592092D01*
Y687862D01*
Y688580D01*
Y689297D01*
Y690014D01*
X592809D01*
Y690731D01*
X593526D01*
Y691448D01*
X602132D01*
Y690731D01*
D02*
G37*
G36*
X630818Y684994D02*
X631535D01*
Y684277D01*
X632252D01*
Y683560D01*
Y682842D01*
Y682125D01*
Y681408D01*
X631535D01*
Y680691D01*
X630818D01*
Y679974D01*
X627949D01*
Y680691D01*
X627232D01*
Y681408D01*
X626515D01*
Y682125D01*
Y682842D01*
Y683560D01*
Y684277D01*
X627232D01*
Y684994D01*
X627949D01*
Y685711D01*
X630818D01*
Y684994D01*
D02*
G37*
G36*
X590657D02*
X591374D01*
Y684277D01*
X592092D01*
Y683560D01*
Y682842D01*
Y682125D01*
Y681408D01*
X591374D01*
Y680691D01*
X590657D01*
Y679974D01*
X587789D01*
Y680691D01*
X587071D01*
Y681408D01*
X586354D01*
Y682125D01*
Y682842D01*
Y683560D01*
Y684277D01*
X587071D01*
Y684994D01*
X587789D01*
Y685711D01*
X590657D01*
Y684994D01*
D02*
G37*
G36*
X567708D02*
X568425D01*
Y684277D01*
X569143D01*
Y683560D01*
Y682842D01*
Y682125D01*
Y681408D01*
X568425D01*
Y680691D01*
X567708D01*
Y679974D01*
X564840D01*
Y680691D01*
X564123D01*
Y681408D01*
X563405D01*
Y682125D01*
Y682842D01*
Y683560D01*
Y684277D01*
X564123D01*
Y684994D01*
X564840D01*
Y685711D01*
X567708D01*
Y684994D01*
D02*
G37*
G36*
X693928Y679257D02*
X694645D01*
Y678540D01*
X695362D01*
Y677822D01*
Y677105D01*
Y676388D01*
Y675671D01*
X694645D01*
Y674954D01*
X693928D01*
Y674237D01*
X691059D01*
Y674954D01*
X690342D01*
Y675671D01*
X689624D01*
Y676388D01*
Y677105D01*
Y677822D01*
Y678540D01*
X690342D01*
Y679257D01*
X691059D01*
Y679974D01*
X693928D01*
Y679257D01*
D02*
G37*
G36*
X648030Y707943D02*
X648747D01*
Y707226D01*
X649464D01*
Y706509D01*
Y705791D01*
Y705074D01*
Y704357D01*
Y703640D01*
Y702923D01*
Y702206D01*
Y701488D01*
Y700771D01*
Y700054D01*
Y699337D01*
Y698620D01*
Y697903D01*
Y697186D01*
X653767D01*
Y696468D01*
X654484D01*
Y695751D01*
X655201D01*
Y695034D01*
Y694317D01*
Y693600D01*
Y692883D01*
Y692166D01*
Y691448D01*
Y690731D01*
Y690014D01*
Y689297D01*
Y688580D01*
Y687862D01*
Y687145D01*
X654484D01*
Y686428D01*
X653767D01*
Y685711D01*
X643727D01*
Y684994D01*
Y684277D01*
Y683560D01*
Y682842D01*
Y682125D01*
Y681408D01*
Y680691D01*
Y679974D01*
Y679257D01*
Y678540D01*
Y677822D01*
Y677105D01*
Y676388D01*
Y675671D01*
X643009D01*
Y674954D01*
X642292D01*
Y674237D01*
X639424D01*
Y674954D01*
X638707D01*
Y675671D01*
X637989D01*
Y676388D01*
Y677105D01*
Y677822D01*
Y678540D01*
Y679257D01*
Y679974D01*
Y680691D01*
Y681408D01*
Y682125D01*
Y682842D01*
Y683560D01*
Y684277D01*
Y684994D01*
Y685711D01*
Y686428D01*
Y687145D01*
Y687862D01*
Y688580D01*
Y689297D01*
Y690014D01*
X638707D01*
Y690731D01*
X639424D01*
Y691448D01*
X643727D01*
Y692166D01*
Y692883D01*
Y693600D01*
Y694317D01*
Y695034D01*
Y695751D01*
Y696468D01*
Y697186D01*
Y697903D01*
Y698620D01*
Y699337D01*
Y700054D01*
Y700771D01*
Y701488D01*
Y702206D01*
Y702923D01*
Y703640D01*
Y704357D01*
Y705074D01*
Y705791D01*
Y706509D01*
Y707226D01*
X644444D01*
Y707943D01*
X645161D01*
Y708660D01*
X648030D01*
Y707943D01*
D02*
G37*
G36*
X596395Y679257D02*
X597112D01*
Y678540D01*
X597829D01*
Y677822D01*
Y677105D01*
Y676388D01*
Y675671D01*
X597112D01*
Y674954D01*
X596395D01*
Y674237D01*
X593526D01*
Y674954D01*
X592809D01*
Y675671D01*
X592092D01*
Y676388D01*
Y677105D01*
Y677822D01*
Y678540D01*
X592809D01*
Y679257D01*
X593526D01*
Y679974D01*
X596395D01*
Y679257D01*
D02*
G37*
G36*
X584920Y702206D02*
X585637D01*
Y701488D01*
X586354D01*
Y700771D01*
Y700054D01*
Y699337D01*
Y698620D01*
Y697903D01*
Y697186D01*
Y696468D01*
Y695751D01*
Y695034D01*
Y694317D01*
Y693600D01*
Y692883D01*
X585637D01*
Y692166D01*
X584920D01*
Y691448D01*
X580617D01*
Y690731D01*
Y690014D01*
Y689297D01*
Y688580D01*
Y687862D01*
Y687145D01*
Y686428D01*
Y685711D01*
Y684994D01*
Y684277D01*
Y683560D01*
Y682842D01*
Y682125D01*
Y681408D01*
Y680691D01*
Y679974D01*
Y679257D01*
Y678540D01*
Y677822D01*
Y677105D01*
Y676388D01*
Y675671D01*
Y674954D01*
Y674237D01*
X590657D01*
Y673520D01*
X591374D01*
Y672802D01*
X592092D01*
Y672085D01*
Y671368D01*
Y670651D01*
Y669934D01*
X591374D01*
Y669217D01*
X590657D01*
Y668499D01*
X586354D01*
Y667782D01*
Y667065D01*
Y666348D01*
Y665631D01*
Y664914D01*
Y664196D01*
Y663479D01*
Y662762D01*
X592092D01*
Y663479D01*
Y664196D01*
Y664914D01*
Y665631D01*
Y666348D01*
Y667065D01*
X592809D01*
Y667782D01*
X593526D01*
Y668499D01*
X596395D01*
Y667782D01*
X597112D01*
Y667065D01*
X597829D01*
Y666348D01*
Y665631D01*
Y664914D01*
Y664196D01*
Y663479D01*
Y662762D01*
X609303D01*
Y663479D01*
Y664196D01*
Y664914D01*
Y665631D01*
Y666348D01*
Y667065D01*
X610020D01*
Y667782D01*
X610738D01*
Y668499D01*
X613606D01*
Y667782D01*
X614323D01*
Y667065D01*
X615041D01*
Y666348D01*
Y665631D01*
Y664914D01*
Y664196D01*
Y663479D01*
Y662762D01*
X619343D01*
Y662045D01*
X620061D01*
Y661328D01*
X620778D01*
Y660611D01*
Y659893D01*
Y659176D01*
Y658459D01*
X620061D01*
Y657742D01*
X619343D01*
Y657025D01*
X597829D01*
Y656308D01*
Y655591D01*
Y654873D01*
Y654156D01*
Y653439D01*
Y652722D01*
X597112D01*
Y652005D01*
X596395D01*
Y651288D01*
X586354D01*
Y650571D01*
Y649853D01*
Y649136D01*
Y648419D01*
Y647702D01*
Y646985D01*
X585637D01*
Y646268D01*
X584920D01*
Y645550D01*
X582051D01*
Y646268D01*
X581334D01*
Y646985D01*
X580617D01*
Y647702D01*
Y648419D01*
Y649136D01*
Y649853D01*
Y650571D01*
Y651288D01*
Y652005D01*
Y652722D01*
Y653439D01*
Y654156D01*
Y654873D01*
Y655591D01*
Y656308D01*
Y657025D01*
Y657742D01*
Y658459D01*
Y659176D01*
Y659893D01*
Y660611D01*
Y661328D01*
Y662045D01*
Y662762D01*
X574880D01*
Y662045D01*
Y661328D01*
Y660611D01*
Y659893D01*
Y659176D01*
Y658459D01*
X574163D01*
Y657742D01*
X573446D01*
Y657025D01*
X564840D01*
Y657742D01*
X564123D01*
Y658459D01*
X563405D01*
Y659176D01*
Y659893D01*
Y660611D01*
Y661328D01*
X564123D01*
Y662045D01*
X564840D01*
Y662762D01*
X569143D01*
Y663479D01*
Y664196D01*
Y664914D01*
Y665631D01*
Y666348D01*
Y667065D01*
Y667782D01*
Y668499D01*
X563405D01*
Y667782D01*
Y667065D01*
Y666348D01*
Y665631D01*
Y664914D01*
Y664196D01*
X562688D01*
Y663479D01*
X561971D01*
Y662762D01*
X557668D01*
Y662045D01*
Y661328D01*
Y660611D01*
Y659893D01*
Y659176D01*
Y658459D01*
Y657742D01*
Y657025D01*
Y656308D01*
Y655591D01*
Y654873D01*
Y654156D01*
Y653439D01*
Y652722D01*
Y652005D01*
Y651288D01*
X573446D01*
Y650571D01*
X574163D01*
Y649853D01*
X574880D01*
Y649136D01*
Y648419D01*
Y647702D01*
Y646985D01*
X574163D01*
Y646268D01*
X573446D01*
Y645550D01*
X563405D01*
Y644833D01*
Y644116D01*
Y643399D01*
Y642682D01*
Y641965D01*
Y641247D01*
X562688D01*
Y640530D01*
X561971D01*
Y639813D01*
X551931D01*
Y639096D01*
Y638379D01*
Y637662D01*
Y636945D01*
Y636227D01*
Y635510D01*
Y634793D01*
Y634076D01*
Y633359D01*
Y632642D01*
Y631925D01*
Y631207D01*
Y630490D01*
Y629773D01*
X551214D01*
Y629056D01*
X550497D01*
Y628339D01*
X546194D01*
Y627622D01*
Y626904D01*
Y626187D01*
Y625470D01*
Y624753D01*
Y624036D01*
X545477D01*
Y623319D01*
X544759D01*
Y622602D01*
X541891D01*
Y623319D01*
X541174D01*
Y624036D01*
X540456D01*
Y624753D01*
Y625470D01*
Y626187D01*
Y626904D01*
Y627622D01*
Y628339D01*
Y629056D01*
Y629773D01*
Y630490D01*
Y631207D01*
Y631925D01*
Y632642D01*
X541174D01*
Y633359D01*
X541891D01*
Y634076D01*
X546194D01*
Y634793D01*
Y635510D01*
Y636227D01*
Y636945D01*
Y637662D01*
Y638379D01*
Y639096D01*
Y639813D01*
X534719D01*
Y639096D01*
Y638379D01*
Y637662D01*
Y636945D01*
Y636227D01*
Y635510D01*
Y634793D01*
Y634076D01*
Y633359D01*
Y632642D01*
Y631925D01*
Y631207D01*
Y630490D01*
Y629773D01*
Y629056D01*
Y628339D01*
Y627622D01*
Y626904D01*
Y626187D01*
Y625470D01*
Y624753D01*
Y624036D01*
X534002D01*
Y623319D01*
X533285D01*
Y622602D01*
X530416D01*
Y623319D01*
X529699D01*
Y624036D01*
X528982D01*
Y624753D01*
Y625470D01*
Y626187D01*
Y626904D01*
Y627622D01*
Y628339D01*
Y629056D01*
Y629773D01*
Y630490D01*
Y631207D01*
Y631925D01*
Y632642D01*
Y633359D01*
Y634076D01*
Y634793D01*
Y635510D01*
Y636227D01*
Y636945D01*
Y637662D01*
Y638379D01*
Y639096D01*
Y639813D01*
Y640530D01*
Y641247D01*
Y641965D01*
Y642682D01*
Y643399D01*
Y644116D01*
Y644833D01*
Y645550D01*
Y646268D01*
Y646985D01*
Y647702D01*
Y648419D01*
Y649136D01*
Y649853D01*
Y650571D01*
Y651288D01*
Y652005D01*
Y652722D01*
Y653439D01*
Y654156D01*
Y654873D01*
Y655591D01*
X529699D01*
Y656308D01*
X530416D01*
Y657025D01*
X533285D01*
Y656308D01*
X534002D01*
Y655591D01*
X534719D01*
Y654873D01*
Y654156D01*
Y653439D01*
Y652722D01*
Y652005D01*
Y651288D01*
Y650571D01*
Y649853D01*
Y649136D01*
Y648419D01*
Y647702D01*
Y646985D01*
Y646268D01*
Y645550D01*
X546194D01*
Y646268D01*
Y646985D01*
Y647702D01*
Y648419D01*
Y649136D01*
Y649853D01*
X546911D01*
Y650571D01*
X547628D01*
Y651288D01*
X551931D01*
Y652005D01*
Y652722D01*
Y653439D01*
Y654156D01*
Y654873D01*
Y655591D01*
Y656308D01*
Y657025D01*
Y657742D01*
Y658459D01*
Y659176D01*
Y659893D01*
Y660611D01*
Y661328D01*
Y662045D01*
Y662762D01*
X546194D01*
Y662045D01*
Y661328D01*
Y660611D01*
Y659893D01*
Y659176D01*
Y658459D01*
X545477D01*
Y657742D01*
X544759D01*
Y657025D01*
X536153D01*
Y657742D01*
X535436D01*
Y658459D01*
X534719D01*
Y659176D01*
Y659893D01*
Y660611D01*
Y661328D01*
X535436D01*
Y662045D01*
X536153D01*
Y662762D01*
X540456D01*
Y663479D01*
Y664196D01*
Y664914D01*
Y665631D01*
Y666348D01*
Y667065D01*
X541174D01*
Y667782D01*
X541891D01*
Y668499D01*
X551931D01*
Y669217D01*
Y669934D01*
Y670651D01*
Y671368D01*
Y672085D01*
Y672802D01*
Y673520D01*
Y674237D01*
X547628D01*
Y674954D01*
X546911D01*
Y675671D01*
X546194D01*
Y676388D01*
Y677105D01*
Y677822D01*
Y678540D01*
X546911D01*
Y679257D01*
X547628D01*
Y679974D01*
X551931D01*
Y680691D01*
Y681408D01*
Y682125D01*
Y682842D01*
Y683560D01*
Y684277D01*
Y684994D01*
Y685711D01*
Y686428D01*
Y687145D01*
Y687862D01*
Y688580D01*
Y689297D01*
Y690014D01*
Y690731D01*
Y691448D01*
X540456D01*
Y690731D01*
Y690014D01*
Y689297D01*
Y688580D01*
Y687862D01*
Y687145D01*
Y686428D01*
Y685711D01*
X544759D01*
Y684994D01*
X545477D01*
Y684277D01*
X546194D01*
Y683560D01*
Y682842D01*
Y682125D01*
Y681408D01*
X545477D01*
Y680691D01*
X544759D01*
Y679974D01*
X540456D01*
Y679257D01*
Y678540D01*
Y677822D01*
Y677105D01*
Y676388D01*
Y675671D01*
X539739D01*
Y674954D01*
X539022D01*
Y674237D01*
X536153D01*
Y674954D01*
X535436D01*
Y675671D01*
X534719D01*
Y676388D01*
Y677105D01*
Y677822D01*
Y678540D01*
Y679257D01*
Y679974D01*
Y680691D01*
Y681408D01*
Y682125D01*
Y682842D01*
Y683560D01*
Y684277D01*
Y684994D01*
Y685711D01*
Y686428D01*
Y687145D01*
Y687862D01*
Y688580D01*
Y689297D01*
Y690014D01*
Y690731D01*
Y691448D01*
X530416D01*
Y692166D01*
X529699D01*
Y692883D01*
X528982D01*
Y693600D01*
Y694317D01*
Y695034D01*
Y695751D01*
X529699D01*
Y696468D01*
X530416D01*
Y697186D01*
X556234D01*
Y696468D01*
X556951D01*
Y695751D01*
X557668D01*
Y695034D01*
Y694317D01*
Y693600D01*
Y692883D01*
Y692166D01*
Y691448D01*
Y690731D01*
Y690014D01*
Y689297D01*
Y688580D01*
Y687862D01*
Y687145D01*
Y686428D01*
Y685711D01*
Y684994D01*
Y684277D01*
Y683560D01*
Y682842D01*
Y682125D01*
Y681408D01*
Y680691D01*
Y679974D01*
Y679257D01*
Y678540D01*
Y677822D01*
Y677105D01*
Y676388D01*
Y675671D01*
Y674954D01*
Y674237D01*
X569143D01*
Y674954D01*
Y675671D01*
Y676388D01*
Y677105D01*
Y677822D01*
Y678540D01*
X569860D01*
Y679257D01*
X570577D01*
Y679974D01*
X574880D01*
Y680691D01*
Y681408D01*
Y682125D01*
Y682842D01*
Y683560D01*
Y684277D01*
Y684994D01*
Y685711D01*
X570577D01*
Y686428D01*
X569860D01*
Y687145D01*
X569143D01*
Y687862D01*
Y688580D01*
Y689297D01*
Y690014D01*
Y690731D01*
Y691448D01*
X564840D01*
Y692166D01*
X564123D01*
Y692883D01*
X563405D01*
Y693600D01*
Y694317D01*
Y695034D01*
Y695751D01*
X564123D01*
Y696468D01*
X564840D01*
Y697186D01*
X580617D01*
Y697903D01*
Y698620D01*
Y699337D01*
Y700054D01*
Y700771D01*
Y701488D01*
X581334D01*
Y702206D01*
X582051D01*
Y702923D01*
X584920D01*
Y702206D01*
D02*
G37*
G36*
X602132Y673520D02*
X602849D01*
Y672802D01*
X603566D01*
Y672085D01*
Y671368D01*
Y670651D01*
Y669934D01*
X602849D01*
Y669217D01*
X602132D01*
Y668499D01*
X599263D01*
Y669217D01*
X598546D01*
Y669934D01*
X597829D01*
Y670651D01*
Y671368D01*
Y672085D01*
Y672802D01*
X598546D01*
Y673520D01*
X599263D01*
Y674237D01*
X602132D01*
Y673520D01*
D02*
G37*
G36*
X688190Y667782D02*
X688907D01*
Y667065D01*
X689624D01*
Y666348D01*
Y665631D01*
Y664914D01*
Y664196D01*
Y663479D01*
Y662762D01*
X693928D01*
Y662045D01*
X694645D01*
Y661328D01*
X695362D01*
Y660611D01*
Y659893D01*
Y659176D01*
Y658459D01*
Y657742D01*
Y657025D01*
Y656308D01*
Y655591D01*
Y654873D01*
Y654156D01*
Y653439D01*
Y652722D01*
X694645D01*
Y652005D01*
X693928D01*
Y651288D01*
X685322D01*
Y652005D01*
X684604D01*
Y652722D01*
X683887D01*
Y653439D01*
Y654156D01*
Y654873D01*
Y655591D01*
Y656308D01*
Y657025D01*
X673847D01*
Y657742D01*
X673130D01*
Y658459D01*
X672413D01*
Y659176D01*
Y659893D01*
Y660611D01*
Y661328D01*
Y662045D01*
Y662762D01*
Y663479D01*
Y664196D01*
Y664914D01*
Y665631D01*
Y666348D01*
Y667065D01*
X673130D01*
Y667782D01*
X673847D01*
Y668499D01*
X676716D01*
Y667782D01*
X677433D01*
Y667065D01*
X678150D01*
Y666348D01*
Y665631D01*
Y664914D01*
Y664196D01*
Y663479D01*
Y662762D01*
X683887D01*
Y663479D01*
Y664196D01*
Y664914D01*
Y665631D01*
Y666348D01*
Y667065D01*
X684604D01*
Y667782D01*
X685322D01*
Y668499D01*
X688190D01*
Y667782D01*
D02*
G37*
G36*
X625081Y679257D02*
X625798D01*
Y678540D01*
X626515D01*
Y677822D01*
Y677105D01*
Y676388D01*
Y675671D01*
Y674954D01*
Y674237D01*
X636555D01*
Y673520D01*
X637272D01*
Y672802D01*
X637989D01*
Y672085D01*
Y671368D01*
Y670651D01*
Y669934D01*
Y669217D01*
Y668499D01*
Y667782D01*
Y667065D01*
Y666348D01*
Y665631D01*
Y664914D01*
Y664196D01*
X637272D01*
Y663479D01*
X636555D01*
Y662762D01*
X633686D01*
Y663479D01*
X632969D01*
Y664196D01*
X632252D01*
Y664914D01*
Y665631D01*
Y666348D01*
Y667065D01*
Y667782D01*
Y668499D01*
X626515D01*
Y667782D01*
Y667065D01*
Y666348D01*
Y665631D01*
Y664914D01*
Y664196D01*
X625798D01*
Y663479D01*
X625081D01*
Y662762D01*
X622212D01*
Y663479D01*
X621495D01*
Y664196D01*
X620778D01*
Y664914D01*
Y665631D01*
Y666348D01*
Y667065D01*
Y667782D01*
Y668499D01*
X616475D01*
Y669217D01*
X615758D01*
Y669934D01*
X615041D01*
Y670651D01*
Y671368D01*
Y672085D01*
Y672802D01*
X615758D01*
Y673520D01*
X616475D01*
Y674237D01*
X620778D01*
Y674954D01*
Y675671D01*
Y676388D01*
Y677105D01*
Y677822D01*
Y678540D01*
X621495D01*
Y679257D01*
X622212D01*
Y679974D01*
X625081D01*
Y679257D01*
D02*
G37*
G36*
X533285Y673520D02*
X534002D01*
Y672802D01*
X534719D01*
Y672085D01*
Y671368D01*
Y670651D01*
Y669934D01*
Y669217D01*
Y668499D01*
Y667782D01*
Y667065D01*
Y666348D01*
Y665631D01*
Y664914D01*
Y664196D01*
X534002D01*
Y663479D01*
X533285D01*
Y662762D01*
X530416D01*
Y663479D01*
X529699D01*
Y664196D01*
X528982D01*
Y664914D01*
Y665631D01*
Y666348D01*
Y667065D01*
Y667782D01*
Y668499D01*
Y669217D01*
Y669934D01*
Y670651D01*
Y671368D01*
Y672085D01*
Y672802D01*
X529699D01*
Y673520D01*
X530416D01*
Y674237D01*
X533285D01*
Y673520D01*
D02*
G37*
G36*
X630818Y662045D02*
X631535D01*
Y661328D01*
X632252D01*
Y660611D01*
Y659893D01*
Y659176D01*
Y658459D01*
X631535D01*
Y657742D01*
X630818D01*
Y657025D01*
X627949D01*
Y657742D01*
X627232D01*
Y658459D01*
X626515D01*
Y659176D01*
Y659893D01*
Y660611D01*
Y661328D01*
X627232D01*
Y662045D01*
X627949D01*
Y662762D01*
X630818D01*
Y662045D01*
D02*
G37*
G36*
X625081Y656308D02*
X625798D01*
Y655591D01*
X626515D01*
Y654873D01*
Y654156D01*
Y653439D01*
Y652722D01*
X625798D01*
Y652005D01*
X625081D01*
Y651288D01*
X622212D01*
Y652005D01*
X621495D01*
Y652722D01*
X620778D01*
Y653439D01*
Y654156D01*
Y654873D01*
Y655591D01*
X621495D01*
Y656308D01*
X622212D01*
Y657025D01*
X625081D01*
Y656308D01*
D02*
G37*
G36*
X630818Y650571D02*
X631535D01*
Y649853D01*
X632252D01*
Y649136D01*
Y648419D01*
Y647702D01*
Y646985D01*
X631535D01*
Y646268D01*
X630818D01*
Y645550D01*
X627949D01*
Y646268D01*
X627232D01*
Y646985D01*
X626515D01*
Y647702D01*
Y648419D01*
Y649136D01*
Y649853D01*
X627232D01*
Y650571D01*
X627949D01*
Y651288D01*
X630818D01*
Y650571D01*
D02*
G37*
G36*
X607869D02*
X608586D01*
Y649853D01*
X609303D01*
Y649136D01*
Y648419D01*
Y647702D01*
Y646985D01*
X608586D01*
Y646268D01*
X607869D01*
Y645550D01*
X605000D01*
Y646268D01*
X604283D01*
Y646985D01*
X603566D01*
Y647702D01*
Y648419D01*
Y649136D01*
Y649853D01*
X604283D01*
Y650571D01*
X605000D01*
Y651288D01*
X607869D01*
Y650571D01*
D02*
G37*
G36*
X670978Y656308D02*
X671696D01*
Y655591D01*
X672413D01*
Y654873D01*
Y654156D01*
Y653439D01*
Y652722D01*
X671696D01*
Y652005D01*
X670978D01*
Y651288D01*
X666676D01*
Y650571D01*
Y649853D01*
Y649136D01*
Y648419D01*
Y647702D01*
Y646985D01*
Y646268D01*
Y645550D01*
X676716D01*
Y644833D01*
X677433D01*
Y644116D01*
X678150D01*
Y643399D01*
Y642682D01*
Y641965D01*
Y641247D01*
Y640530D01*
Y639813D01*
X683887D01*
Y640530D01*
Y641247D01*
Y641965D01*
Y642682D01*
Y643399D01*
Y644116D01*
X684604D01*
Y644833D01*
X685322D01*
Y645550D01*
X693928D01*
Y644833D01*
X694645D01*
Y644116D01*
X695362D01*
Y643399D01*
Y642682D01*
Y641965D01*
Y641247D01*
X694645D01*
Y640530D01*
X693928D01*
Y639813D01*
X689624D01*
Y639096D01*
Y638379D01*
Y637662D01*
Y636945D01*
Y636227D01*
Y635510D01*
X688907D01*
Y634793D01*
X688190D01*
Y634076D01*
X673847D01*
Y634793D01*
X673130D01*
Y635510D01*
X672413D01*
Y636227D01*
Y636945D01*
Y637662D01*
Y638379D01*
Y639096D01*
Y639813D01*
X662373D01*
Y640530D01*
X661656D01*
Y641247D01*
X660938D01*
Y641965D01*
Y642682D01*
Y643399D01*
Y644116D01*
Y644833D01*
Y645550D01*
Y646268D01*
Y646985D01*
Y647702D01*
Y648419D01*
Y649136D01*
Y649853D01*
Y650571D01*
Y651288D01*
X656635D01*
Y652005D01*
X655918D01*
Y652722D01*
X655201D01*
Y653439D01*
Y654156D01*
Y654873D01*
Y655591D01*
X655918D01*
Y656308D01*
X656635D01*
Y657025D01*
X670978D01*
Y656308D01*
D02*
G37*
G36*
X642292Y662045D02*
X643009D01*
Y661328D01*
X643727D01*
Y660611D01*
Y659893D01*
Y659176D01*
Y658459D01*
Y657742D01*
Y657025D01*
X648030D01*
Y656308D01*
X648747D01*
Y655591D01*
X649464D01*
Y654873D01*
Y654156D01*
Y653439D01*
Y652722D01*
Y652005D01*
Y651288D01*
Y650571D01*
Y649853D01*
Y649136D01*
Y648419D01*
Y647702D01*
Y646985D01*
Y646268D01*
Y645550D01*
Y644833D01*
Y644116D01*
Y643399D01*
Y642682D01*
Y641965D01*
Y641247D01*
X648747D01*
Y640530D01*
X648030D01*
Y639813D01*
X643727D01*
Y639096D01*
Y638379D01*
Y637662D01*
Y636945D01*
Y636227D01*
Y635510D01*
Y634793D01*
Y634076D01*
X670978D01*
Y633359D01*
X671696D01*
Y632642D01*
X672413D01*
Y631925D01*
Y631207D01*
Y630490D01*
Y629773D01*
Y629056D01*
Y628339D01*
X688190D01*
Y627622D01*
X688907D01*
Y626904D01*
X689624D01*
Y626187D01*
Y625470D01*
Y624753D01*
Y624036D01*
Y623319D01*
Y622602D01*
Y621884D01*
Y621167D01*
Y620450D01*
Y619733D01*
Y619016D01*
Y618299D01*
X688907D01*
Y617581D01*
X688190D01*
Y616864D01*
X685322D01*
Y617581D01*
X684604D01*
Y618299D01*
X683887D01*
Y619016D01*
Y619733D01*
Y620450D01*
Y621167D01*
Y621884D01*
Y622602D01*
X672413D01*
Y621884D01*
Y621167D01*
Y620450D01*
Y619733D01*
Y619016D01*
Y618299D01*
Y617581D01*
Y616864D01*
X682453D01*
Y616147D01*
X683170D01*
Y615430D01*
X683887D01*
Y614713D01*
Y613996D01*
Y613279D01*
Y612561D01*
Y611844D01*
Y611127D01*
X693928D01*
Y610410D01*
X694645D01*
Y609693D01*
X695362D01*
Y608976D01*
Y608258D01*
Y607541D01*
Y606824D01*
Y606107D01*
Y605390D01*
Y604673D01*
Y603955D01*
Y603238D01*
Y602521D01*
Y601804D01*
Y601087D01*
X694645D01*
Y600370D01*
X693928D01*
Y599653D01*
X679584D01*
Y600370D01*
X678867D01*
Y601087D01*
X678150D01*
Y601804D01*
Y602521D01*
Y603238D01*
Y603955D01*
Y604673D01*
Y605390D01*
Y606107D01*
Y606824D01*
Y607541D01*
Y608258D01*
Y608976D01*
Y609693D01*
Y610410D01*
Y611127D01*
X672413D01*
Y610410D01*
Y609693D01*
Y608976D01*
Y608258D01*
Y607541D01*
Y606824D01*
Y606107D01*
Y605390D01*
Y604673D01*
Y603955D01*
Y603238D01*
Y602521D01*
Y601804D01*
Y601087D01*
X671696D01*
Y600370D01*
X670978D01*
Y599653D01*
X666676D01*
Y598935D01*
Y598218D01*
Y597501D01*
Y596784D01*
Y596067D01*
Y595350D01*
Y594632D01*
Y593915D01*
Y593198D01*
Y592481D01*
Y591764D01*
Y591047D01*
Y590330D01*
Y589612D01*
X665958D01*
Y588895D01*
X665241D01*
Y588178D01*
X655201D01*
Y587461D01*
Y586744D01*
Y586027D01*
Y585309D01*
Y584592D01*
Y583875D01*
Y583158D01*
Y582441D01*
X659504D01*
Y581724D01*
X660221D01*
Y581007D01*
X660938D01*
Y580289D01*
Y579572D01*
Y578855D01*
Y578138D01*
X660221D01*
Y577421D01*
X659504D01*
Y576704D01*
X639424D01*
Y577421D01*
X638707D01*
Y578138D01*
X637989D01*
Y578855D01*
Y579572D01*
Y580289D01*
Y581007D01*
X638707D01*
Y581724D01*
X639424D01*
Y582441D01*
X643727D01*
Y583158D01*
Y583875D01*
Y584592D01*
Y585309D01*
Y586027D01*
Y586744D01*
X644444D01*
Y587461D01*
X645161D01*
Y588178D01*
X649464D01*
Y588895D01*
Y589612D01*
Y590330D01*
Y591047D01*
Y591764D01*
Y592481D01*
Y593198D01*
Y593915D01*
X645161D01*
Y594632D01*
X644444D01*
Y595350D01*
X643727D01*
Y596067D01*
Y596784D01*
Y597501D01*
Y598218D01*
Y598935D01*
Y599653D01*
Y600370D01*
Y601087D01*
Y601804D01*
Y602521D01*
Y603238D01*
Y603955D01*
Y604673D01*
Y605390D01*
Y606107D01*
Y606824D01*
Y607541D01*
Y608258D01*
Y608976D01*
Y609693D01*
Y610410D01*
Y611127D01*
X639424D01*
Y611844D01*
X638707D01*
Y612561D01*
X637989D01*
Y613279D01*
Y613996D01*
Y614713D01*
Y615430D01*
Y616147D01*
Y616864D01*
Y617581D01*
Y618299D01*
Y619016D01*
Y619733D01*
Y620450D01*
Y621167D01*
X638707D01*
Y621884D01*
X639424D01*
Y622602D01*
X643727D01*
Y623319D01*
Y624036D01*
Y624753D01*
Y625470D01*
Y626187D01*
Y626904D01*
Y627622D01*
Y628339D01*
X632252D01*
Y627622D01*
Y626904D01*
Y626187D01*
Y625470D01*
Y624753D01*
Y624036D01*
X631535D01*
Y623319D01*
X630818D01*
Y622602D01*
X626515D01*
Y621884D01*
Y621167D01*
Y620450D01*
Y619733D01*
Y619016D01*
Y618299D01*
X625798D01*
Y617581D01*
X625081D01*
Y616864D01*
X620778D01*
Y616147D01*
Y615430D01*
Y614713D01*
Y613996D01*
Y613279D01*
Y612561D01*
Y611844D01*
Y611127D01*
X626515D01*
Y611844D01*
Y612561D01*
Y613279D01*
Y613996D01*
Y614713D01*
Y615430D01*
X627232D01*
Y616147D01*
X627949D01*
Y616864D01*
X630818D01*
Y616147D01*
X631535D01*
Y615430D01*
X632252D01*
Y614713D01*
Y613996D01*
Y613279D01*
Y612561D01*
Y611844D01*
Y611127D01*
X636555D01*
Y610410D01*
X637272D01*
Y609693D01*
X637989D01*
Y608976D01*
Y608258D01*
Y607541D01*
Y606824D01*
X637272D01*
Y606107D01*
X636555D01*
Y605390D01*
X632252D01*
Y604673D01*
Y603955D01*
Y603238D01*
Y602521D01*
Y601804D01*
Y601087D01*
X631535D01*
Y600370D01*
X630818D01*
Y599653D01*
X626515D01*
Y598935D01*
Y598218D01*
Y597501D01*
Y596784D01*
Y596067D01*
Y595350D01*
X625798D01*
Y594632D01*
X625081D01*
Y593915D01*
X622212D01*
Y594632D01*
X621495D01*
Y595350D01*
X620778D01*
Y596067D01*
Y596784D01*
Y597501D01*
Y598218D01*
Y598935D01*
Y599653D01*
X615041D01*
Y598935D01*
Y598218D01*
Y597501D01*
Y596784D01*
Y596067D01*
Y595350D01*
Y594632D01*
Y593915D01*
Y593198D01*
Y592481D01*
Y591764D01*
Y591047D01*
Y590330D01*
Y589612D01*
X614323D01*
Y588895D01*
X613606D01*
Y588178D01*
X610738D01*
Y588895D01*
X610020D01*
Y589612D01*
X609303D01*
Y590330D01*
Y591047D01*
Y591764D01*
Y592481D01*
Y593198D01*
Y593915D01*
Y594632D01*
Y595350D01*
Y596067D01*
Y596784D01*
Y597501D01*
Y598218D01*
Y598935D01*
Y599653D01*
Y600370D01*
Y601087D01*
Y601804D01*
Y602521D01*
Y603238D01*
Y603955D01*
X610020D01*
Y604673D01*
X610738D01*
Y605390D01*
X615041D01*
Y606107D01*
Y606824D01*
Y607541D01*
Y608258D01*
Y608976D01*
Y609693D01*
Y610410D01*
Y611127D01*
Y611844D01*
Y612561D01*
Y613279D01*
Y613996D01*
Y614713D01*
Y615430D01*
Y616147D01*
Y616864D01*
X610738D01*
Y617581D01*
X610020D01*
Y618299D01*
X609303D01*
Y619016D01*
Y619733D01*
Y620450D01*
Y621167D01*
Y621884D01*
Y622602D01*
Y623319D01*
Y624036D01*
Y624753D01*
Y625470D01*
Y626187D01*
Y626904D01*
X610020D01*
Y627622D01*
X610738D01*
Y628339D01*
X620778D01*
Y629056D01*
Y629773D01*
Y630490D01*
Y631207D01*
Y631925D01*
Y632642D01*
X621495D01*
Y633359D01*
X622212D01*
Y634076D01*
X626515D01*
Y634793D01*
Y635510D01*
Y636227D01*
Y636945D01*
Y637662D01*
Y638379D01*
X627232D01*
Y639096D01*
X627949D01*
Y639813D01*
X630818D01*
Y639096D01*
X631535D01*
Y638379D01*
X632252D01*
Y637662D01*
Y636945D01*
Y636227D01*
Y635510D01*
Y634793D01*
Y634076D01*
X637989D01*
Y634793D01*
Y635510D01*
Y636227D01*
Y636945D01*
Y637662D01*
Y638379D01*
Y639096D01*
Y639813D01*
X633686D01*
Y640530D01*
X632969D01*
Y641247D01*
X632252D01*
Y641965D01*
Y642682D01*
Y643399D01*
Y644116D01*
X632969D01*
Y644833D01*
X633686D01*
Y645550D01*
X643727D01*
Y646268D01*
Y646985D01*
Y647702D01*
Y648419D01*
Y649136D01*
Y649853D01*
Y650571D01*
Y651288D01*
X633686D01*
Y652005D01*
X632969D01*
Y652722D01*
X632252D01*
Y653439D01*
Y654156D01*
Y654873D01*
Y655591D01*
X632969D01*
Y656308D01*
X633686D01*
Y657025D01*
X637989D01*
Y657742D01*
Y658459D01*
Y659176D01*
Y659893D01*
Y660611D01*
Y661328D01*
X638707D01*
Y662045D01*
X639424D01*
Y662762D01*
X642292D01*
Y662045D01*
D02*
G37*
G36*
X619343Y650571D02*
X620061D01*
Y649853D01*
X620778D01*
Y649136D01*
Y648419D01*
Y647702D01*
Y646985D01*
Y646268D01*
Y645550D01*
X625081D01*
Y644833D01*
X625798D01*
Y644116D01*
X626515D01*
Y643399D01*
Y642682D01*
Y641965D01*
Y641247D01*
X625798D01*
Y640530D01*
X625081D01*
Y639813D01*
X620778D01*
Y639096D01*
Y638379D01*
Y637662D01*
Y636945D01*
Y636227D01*
Y635510D01*
X620061D01*
Y634793D01*
X619343D01*
Y634076D01*
X599263D01*
Y634793D01*
X598546D01*
Y635510D01*
X597829D01*
Y636227D01*
Y636945D01*
Y637662D01*
Y638379D01*
X598546D01*
Y639096D01*
X599263D01*
Y639813D01*
X609303D01*
Y640530D01*
Y641247D01*
Y641965D01*
Y642682D01*
Y643399D01*
Y644116D01*
X610020D01*
Y644833D01*
X610738D01*
Y645550D01*
X615041D01*
Y646268D01*
Y646985D01*
Y647702D01*
Y648419D01*
Y649136D01*
Y649853D01*
X615758D01*
Y650571D01*
X616475D01*
Y651288D01*
X619343D01*
Y650571D01*
D02*
G37*
G36*
X567708Y639096D02*
X568425D01*
Y638379D01*
X569143D01*
Y637662D01*
Y636945D01*
Y636227D01*
Y635510D01*
X568425D01*
Y634793D01*
X567708D01*
Y634076D01*
X564840D01*
Y634793D01*
X564123D01*
Y635510D01*
X563405D01*
Y636227D01*
Y636945D01*
Y637662D01*
Y638379D01*
X564123D01*
Y639096D01*
X564840D01*
Y639813D01*
X567708D01*
Y639096D01*
D02*
G37*
G36*
X693928Y633359D02*
X694645D01*
Y632642D01*
X695362D01*
Y631925D01*
Y631207D01*
Y630490D01*
Y629773D01*
X694645D01*
Y629056D01*
X693928D01*
Y628339D01*
X691059D01*
Y629056D01*
X690342D01*
Y629773D01*
X689624D01*
Y630490D01*
Y631207D01*
Y631925D01*
Y632642D01*
X690342D01*
Y633359D01*
X691059D01*
Y634076D01*
X693928D01*
Y633359D01*
D02*
G37*
G36*
X602132Y627622D02*
X602849D01*
Y626904D01*
X603566D01*
Y626187D01*
Y625470D01*
Y624753D01*
Y624036D01*
X602849D01*
Y623319D01*
X602132D01*
Y622602D01*
X599263D01*
Y623319D01*
X598546D01*
Y624036D01*
X597829D01*
Y624753D01*
Y625470D01*
Y626187D01*
Y626904D01*
X598546D01*
Y627622D01*
X599263D01*
Y628339D01*
X602132D01*
Y627622D01*
D02*
G37*
G36*
X567708D02*
X568425D01*
Y626904D01*
X569143D01*
Y626187D01*
Y625470D01*
Y624753D01*
Y624036D01*
X568425D01*
Y623319D01*
X567708D01*
Y622602D01*
X564840D01*
Y623319D01*
X564123D01*
Y624036D01*
X563405D01*
Y624753D01*
Y625470D01*
Y626187D01*
Y626904D01*
X564123D01*
Y627622D01*
X564840D01*
Y628339D01*
X567708D01*
Y627622D01*
D02*
G37*
G36*
X556234D02*
X556951D01*
Y626904D01*
X557668D01*
Y626187D01*
Y625470D01*
Y624753D01*
Y624036D01*
X556951D01*
Y623319D01*
X556234D01*
Y622602D01*
X553365D01*
Y623319D01*
X552648D01*
Y624036D01*
X551931D01*
Y624753D01*
Y625470D01*
Y626187D01*
Y626904D01*
X552648D01*
Y627622D01*
X553365D01*
Y628339D01*
X556234D01*
Y627622D01*
D02*
G37*
G36*
X579183Y644833D02*
X579900D01*
Y644116D01*
X580617D01*
Y643399D01*
Y642682D01*
Y641965D01*
Y641247D01*
Y640530D01*
Y639813D01*
Y639096D01*
Y638379D01*
Y637662D01*
Y636945D01*
Y636227D01*
Y635510D01*
Y634793D01*
Y634076D01*
Y633359D01*
Y632642D01*
Y631925D01*
Y631207D01*
Y630490D01*
Y629773D01*
Y629056D01*
Y628339D01*
Y627622D01*
Y626904D01*
Y626187D01*
Y625470D01*
Y624753D01*
Y624036D01*
Y623319D01*
Y622602D01*
Y621884D01*
Y621167D01*
Y620450D01*
Y619733D01*
Y619016D01*
Y618299D01*
Y617581D01*
Y616864D01*
Y616147D01*
Y615430D01*
Y614713D01*
Y613996D01*
Y613279D01*
Y612561D01*
X579900D01*
Y611844D01*
X579183D01*
Y611127D01*
X576314D01*
Y611844D01*
X575597D01*
Y612561D01*
X574880D01*
Y613279D01*
Y613996D01*
Y614713D01*
Y615430D01*
Y616147D01*
Y616864D01*
Y617581D01*
Y618299D01*
Y619016D01*
Y619733D01*
Y620450D01*
Y621167D01*
Y621884D01*
Y622602D01*
Y623319D01*
Y624036D01*
Y624753D01*
Y625470D01*
Y626187D01*
Y626904D01*
Y627622D01*
Y628339D01*
X570577D01*
Y629056D01*
X569860D01*
Y629773D01*
X569143D01*
Y630490D01*
Y631207D01*
Y631925D01*
Y632642D01*
X569860D01*
Y633359D01*
X570577D01*
Y634076D01*
X574880D01*
Y634793D01*
Y635510D01*
Y636227D01*
Y636945D01*
Y637662D01*
Y638379D01*
Y639096D01*
Y639813D01*
Y640530D01*
Y641247D01*
Y641965D01*
Y642682D01*
Y643399D01*
Y644116D01*
X575597D01*
Y644833D01*
X576314D01*
Y645550D01*
X579183D01*
Y644833D01*
D02*
G37*
G36*
X607869Y616147D02*
X608586D01*
Y615430D01*
X609303D01*
Y614713D01*
Y613996D01*
Y613279D01*
Y612561D01*
Y611844D01*
Y611127D01*
Y610410D01*
Y609693D01*
Y608976D01*
Y608258D01*
Y607541D01*
Y606824D01*
X608586D01*
Y606107D01*
X607869D01*
Y605390D01*
X605000D01*
Y606107D01*
X604283D01*
Y606824D01*
X603566D01*
Y607541D01*
Y608258D01*
Y608976D01*
Y609693D01*
Y610410D01*
Y611127D01*
Y611844D01*
Y612561D01*
Y613279D01*
Y613996D01*
Y614713D01*
Y615430D01*
X604283D01*
Y616147D01*
X605000D01*
Y616864D01*
X607869D01*
Y616147D01*
D02*
G37*
G36*
X636555Y598935D02*
X637272D01*
Y598218D01*
X637989D01*
Y597501D01*
Y596784D01*
Y596067D01*
Y595350D01*
X637272D01*
Y594632D01*
X636555D01*
Y593915D01*
X633686D01*
Y594632D01*
X632969D01*
Y595350D01*
X632252D01*
Y596067D01*
Y596784D01*
Y597501D01*
Y598218D01*
X632969D01*
Y598935D01*
X633686D01*
Y599653D01*
X636555D01*
Y598935D01*
D02*
G37*
G36*
X602132Y604673D02*
X602849D01*
Y603955D01*
X603566D01*
Y603238D01*
Y602521D01*
Y601804D01*
Y601087D01*
Y600370D01*
Y599653D01*
Y598935D01*
Y598218D01*
Y597501D01*
Y596784D01*
Y596067D01*
Y595350D01*
X602849D01*
Y594632D01*
X602132D01*
Y593915D01*
X599263D01*
Y594632D01*
X598546D01*
Y595350D01*
X597829D01*
Y596067D01*
Y596784D01*
Y597501D01*
Y598218D01*
Y598935D01*
Y599653D01*
Y600370D01*
Y601087D01*
Y601804D01*
Y602521D01*
Y603238D01*
Y603955D01*
X598546D01*
Y604673D01*
X599263D01*
Y605390D01*
X602132D01*
Y604673D01*
D02*
G37*
G36*
X590657Y644833D02*
X591374D01*
Y644116D01*
X592092D01*
Y643399D01*
Y642682D01*
Y641965D01*
Y641247D01*
Y640530D01*
Y639813D01*
Y639096D01*
Y638379D01*
Y637662D01*
Y636945D01*
Y636227D01*
Y635510D01*
Y634793D01*
Y634076D01*
X596395D01*
Y633359D01*
X597112D01*
Y632642D01*
X597829D01*
Y631925D01*
Y631207D01*
Y630490D01*
Y629773D01*
X597112D01*
Y629056D01*
X596395D01*
Y628339D01*
X592092D01*
Y627622D01*
Y626904D01*
Y626187D01*
Y625470D01*
Y624753D01*
Y624036D01*
Y623319D01*
Y622602D01*
Y621884D01*
Y621167D01*
Y620450D01*
Y619733D01*
Y619016D01*
Y618299D01*
Y617581D01*
Y616864D01*
Y616147D01*
Y615430D01*
Y614713D01*
Y613996D01*
Y613279D01*
Y612561D01*
Y611844D01*
Y611127D01*
X596395D01*
Y610410D01*
X597112D01*
Y609693D01*
X597829D01*
Y608976D01*
Y608258D01*
Y607541D01*
Y606824D01*
X597112D01*
Y606107D01*
X596395D01*
Y605390D01*
X592092D01*
Y604673D01*
Y603955D01*
Y603238D01*
Y602521D01*
Y601804D01*
Y601087D01*
Y600370D01*
Y599653D01*
Y598935D01*
Y598218D01*
Y597501D01*
Y596784D01*
Y596067D01*
Y595350D01*
X591374D01*
Y594632D01*
X590657D01*
Y593915D01*
X587789D01*
Y594632D01*
X587071D01*
Y595350D01*
X586354D01*
Y596067D01*
Y596784D01*
Y597501D01*
Y598218D01*
Y598935D01*
Y599653D01*
X580617D01*
Y598935D01*
Y598218D01*
Y597501D01*
Y596784D01*
Y596067D01*
Y595350D01*
Y594632D01*
Y593915D01*
Y593198D01*
Y592481D01*
Y591764D01*
Y591047D01*
Y590330D01*
Y589612D01*
Y588895D01*
Y588178D01*
Y587461D01*
Y586744D01*
Y586027D01*
Y585309D01*
Y584592D01*
Y583875D01*
Y583158D01*
Y582441D01*
Y581724D01*
Y581007D01*
Y580289D01*
Y579572D01*
Y578855D01*
Y578138D01*
X579900D01*
Y577421D01*
X579183D01*
Y576704D01*
X576314D01*
Y577421D01*
X575597D01*
Y578138D01*
X574880D01*
Y578855D01*
Y579572D01*
Y580289D01*
Y581007D01*
Y581724D01*
Y582441D01*
Y583158D01*
Y583875D01*
Y584592D01*
Y585309D01*
Y586027D01*
Y586744D01*
Y587461D01*
Y588178D01*
Y588895D01*
Y589612D01*
Y590330D01*
Y591047D01*
Y591764D01*
Y592481D01*
Y593198D01*
Y593915D01*
Y594632D01*
Y595350D01*
Y596067D01*
Y596784D01*
Y597501D01*
Y598218D01*
Y598935D01*
Y599653D01*
Y600370D01*
Y601087D01*
Y601804D01*
Y602521D01*
Y603238D01*
Y603955D01*
X575597D01*
Y604673D01*
X576314D01*
Y605390D01*
X586354D01*
Y606107D01*
Y606824D01*
Y607541D01*
Y608258D01*
Y608976D01*
Y609693D01*
Y610410D01*
Y611127D01*
Y611844D01*
Y612561D01*
Y613279D01*
Y613996D01*
Y614713D01*
Y615430D01*
Y616147D01*
Y616864D01*
Y617581D01*
Y618299D01*
Y619016D01*
Y619733D01*
Y620450D01*
Y621167D01*
Y621884D01*
Y622602D01*
Y623319D01*
Y624036D01*
Y624753D01*
Y625470D01*
Y626187D01*
Y626904D01*
Y627622D01*
Y628339D01*
Y629056D01*
Y629773D01*
Y630490D01*
Y631207D01*
Y631925D01*
Y632642D01*
Y633359D01*
Y634076D01*
Y634793D01*
Y635510D01*
Y636227D01*
Y636945D01*
Y637662D01*
Y638379D01*
Y639096D01*
Y639813D01*
Y640530D01*
Y641247D01*
Y641965D01*
Y642682D01*
Y643399D01*
Y644116D01*
X587071D01*
Y644833D01*
X587789D01*
Y645550D01*
X590657D01*
Y644833D01*
D02*
G37*
G36*
X642292Y593198D02*
X643009D01*
Y592481D01*
X643727D01*
Y591764D01*
Y591047D01*
Y590330D01*
Y589612D01*
X643009D01*
Y588895D01*
X642292D01*
Y588178D01*
X639424D01*
Y588895D01*
X638707D01*
Y589612D01*
X637989D01*
Y590330D01*
Y591047D01*
Y591764D01*
Y592481D01*
X638707D01*
Y593198D01*
X639424D01*
Y593915D01*
X642292D01*
Y593198D01*
D02*
G37*
G36*
X630818D02*
X631535D01*
Y592481D01*
X632252D01*
Y591764D01*
Y591047D01*
Y590330D01*
Y589612D01*
X631535D01*
Y588895D01*
X630818D01*
Y588178D01*
X627949D01*
Y588895D01*
X627232D01*
Y589612D01*
X626515D01*
Y590330D01*
Y591047D01*
Y591764D01*
Y592481D01*
X627232D01*
Y593198D01*
X627949D01*
Y593915D01*
X630818D01*
Y593198D01*
D02*
G37*
G36*
X693928Y587461D02*
X694645D01*
Y586744D01*
X695362D01*
Y586027D01*
Y585309D01*
Y584592D01*
Y583875D01*
X694645D01*
Y583158D01*
X693928D01*
Y582441D01*
X691059D01*
Y583158D01*
X690342D01*
Y583875D01*
X689624D01*
Y584592D01*
Y585309D01*
Y586027D01*
Y586744D01*
X690342D01*
Y587461D01*
X691059D01*
Y588178D01*
X693928D01*
Y587461D01*
D02*
G37*
G36*
X636555D02*
X637272D01*
Y586744D01*
X637989D01*
Y586027D01*
Y585309D01*
Y584592D01*
Y583875D01*
X637272D01*
Y583158D01*
X636555D01*
Y582441D01*
X633686D01*
Y583158D01*
X632969D01*
Y583875D01*
X632252D01*
Y584592D01*
Y585309D01*
Y586027D01*
Y586744D01*
X632969D01*
Y587461D01*
X633686D01*
Y588178D01*
X636555D01*
Y587461D01*
D02*
G37*
G36*
X596395Y593198D02*
X597112D01*
Y592481D01*
X597829D01*
Y591764D01*
Y591047D01*
Y590330D01*
Y589612D01*
Y588895D01*
Y588178D01*
Y587461D01*
Y586744D01*
Y586027D01*
Y585309D01*
Y584592D01*
Y583875D01*
X597112D01*
Y583158D01*
X596395D01*
Y582441D01*
X593526D01*
Y583158D01*
X592809D01*
Y583875D01*
X592092D01*
Y584592D01*
Y585309D01*
Y586027D01*
Y586744D01*
Y587461D01*
Y588178D01*
Y588895D01*
Y589612D01*
Y590330D01*
Y591047D01*
Y591764D01*
Y592481D01*
X592809D01*
Y593198D01*
X593526D01*
Y593915D01*
X596395D01*
Y593198D01*
D02*
G37*
G36*
X688190D02*
X688907D01*
Y592481D01*
X689624D01*
Y591764D01*
Y591047D01*
Y590330D01*
Y589612D01*
X688907D01*
Y588895D01*
X688190D01*
Y588178D01*
X683887D01*
Y587461D01*
Y586744D01*
Y586027D01*
Y585309D01*
Y584592D01*
Y583875D01*
Y583158D01*
Y582441D01*
Y581724D01*
Y581007D01*
Y580289D01*
Y579572D01*
Y578855D01*
Y578138D01*
X683170D01*
Y577421D01*
X682453D01*
Y576704D01*
X668110D01*
Y577421D01*
X667393D01*
Y578138D01*
X666676D01*
Y578855D01*
Y579572D01*
Y580289D01*
Y581007D01*
X667393D01*
Y581724D01*
X668110D01*
Y582441D01*
X672413D01*
Y583158D01*
Y583875D01*
Y584592D01*
Y585309D01*
Y586027D01*
Y586744D01*
X673130D01*
Y587461D01*
X673847D01*
Y588178D01*
X678150D01*
Y588895D01*
Y589612D01*
Y590330D01*
Y591047D01*
Y591764D01*
Y592481D01*
X678867D01*
Y593198D01*
X679584D01*
Y593915D01*
X688190D01*
Y593198D01*
D02*
G37*
G36*
X625081Y581724D02*
X625798D01*
Y581007D01*
X626515D01*
Y580289D01*
Y579572D01*
Y578855D01*
Y578138D01*
X625798D01*
Y577421D01*
X625081D01*
Y576704D01*
X610738D01*
Y577421D01*
X610020D01*
Y578138D01*
X609303D01*
Y578855D01*
Y579572D01*
Y580289D01*
Y581007D01*
X610020D01*
Y581724D01*
X610738D01*
Y582441D01*
X625081D01*
Y581724D01*
D02*
G37*
G36*
X569143Y616147D02*
Y615430D01*
Y614713D01*
Y613996D01*
Y613279D01*
Y612561D01*
Y611844D01*
Y611127D01*
Y610410D01*
Y609693D01*
Y608976D01*
Y608258D01*
Y607541D01*
Y606824D01*
Y606107D01*
Y605390D01*
Y604673D01*
Y603955D01*
Y603238D01*
Y602521D01*
Y601804D01*
Y601087D01*
Y600370D01*
Y599653D01*
Y598935D01*
Y598218D01*
Y597501D01*
Y596784D01*
Y596067D01*
Y595350D01*
Y594632D01*
Y593915D01*
Y593198D01*
Y592481D01*
Y591764D01*
Y591047D01*
Y590330D01*
Y589612D01*
Y588895D01*
Y588178D01*
Y587461D01*
Y586744D01*
Y586027D01*
Y585309D01*
Y584592D01*
Y583875D01*
Y583158D01*
Y582441D01*
Y581724D01*
Y581007D01*
Y580289D01*
Y579572D01*
Y578855D01*
Y578138D01*
Y577421D01*
Y576704D01*
X529699D01*
Y577421D01*
Y578138D01*
Y578855D01*
Y579572D01*
Y580289D01*
Y581007D01*
Y581724D01*
Y582441D01*
Y583158D01*
Y583875D01*
Y584592D01*
Y585309D01*
Y586027D01*
Y586744D01*
Y587461D01*
Y588178D01*
Y588895D01*
Y589612D01*
Y590330D01*
Y591047D01*
Y591764D01*
Y592481D01*
Y593198D01*
Y593915D01*
Y594632D01*
Y595350D01*
Y596067D01*
Y596784D01*
Y597501D01*
Y598218D01*
Y598935D01*
Y599653D01*
Y600370D01*
Y601087D01*
Y601804D01*
Y602521D01*
Y603238D01*
Y603955D01*
Y604673D01*
Y605390D01*
Y606107D01*
Y606824D01*
Y607541D01*
Y608258D01*
Y608976D01*
Y609693D01*
Y610410D01*
Y611127D01*
Y611844D01*
Y612561D01*
Y613279D01*
Y613996D01*
Y614713D01*
Y615430D01*
Y616147D01*
Y616864D01*
X569143D01*
Y616147D01*
D02*
G37*
%LPC*%
G36*
X690342Y737346D02*
X660938D01*
Y736629D01*
Y735912D01*
Y735195D01*
Y734478D01*
Y733760D01*
Y733043D01*
Y732326D01*
Y731609D01*
Y730892D01*
Y730175D01*
Y729457D01*
Y728740D01*
Y728023D01*
Y727306D01*
Y726589D01*
Y725872D01*
Y725155D01*
Y724437D01*
Y723720D01*
Y723003D01*
Y722286D01*
Y721569D01*
Y720852D01*
Y720134D01*
Y719417D01*
Y718700D01*
Y717983D01*
Y717266D01*
Y716549D01*
Y715832D01*
Y715114D01*
Y714397D01*
Y713680D01*
Y712963D01*
Y712246D01*
Y711529D01*
Y710811D01*
Y710094D01*
Y709377D01*
Y708660D01*
X690342D01*
Y709377D01*
Y710094D01*
Y710811D01*
Y711529D01*
Y712246D01*
Y712963D01*
Y713680D01*
Y714397D01*
Y715114D01*
Y715832D01*
Y716549D01*
Y717266D01*
Y717983D01*
Y718700D01*
Y719417D01*
Y720134D01*
Y720852D01*
Y721569D01*
Y722286D01*
Y723003D01*
Y723720D01*
Y724437D01*
Y725155D01*
Y725872D01*
Y726589D01*
Y727306D01*
Y728023D01*
Y728740D01*
Y729457D01*
Y730175D01*
Y730892D01*
Y731609D01*
Y732326D01*
Y733043D01*
Y733760D01*
Y734478D01*
Y735195D01*
Y735912D01*
Y736629D01*
Y737346D01*
D02*
G37*
%LPD*%
G36*
X683887Y730892D02*
Y730175D01*
Y729457D01*
Y728740D01*
Y728023D01*
Y727306D01*
Y726589D01*
Y725872D01*
Y725155D01*
Y724437D01*
Y723720D01*
Y723003D01*
Y722286D01*
Y721569D01*
Y720852D01*
Y720134D01*
Y719417D01*
Y718700D01*
Y717983D01*
Y717266D01*
Y716549D01*
Y715832D01*
Y715114D01*
Y714397D01*
X666676D01*
Y715114D01*
Y715832D01*
Y716549D01*
Y717266D01*
Y717983D01*
Y718700D01*
Y719417D01*
Y720134D01*
Y720852D01*
Y721569D01*
Y722286D01*
Y723003D01*
Y723720D01*
Y724437D01*
Y725155D01*
Y725872D01*
Y726589D01*
Y727306D01*
Y728023D01*
Y728740D01*
Y729457D01*
Y730175D01*
Y730892D01*
Y731609D01*
X683887D01*
Y730892D01*
D02*
G37*
%LPC*%
G36*
X564123Y737346D02*
X534719D01*
Y736629D01*
Y735912D01*
Y735195D01*
Y734478D01*
Y733760D01*
Y733043D01*
Y732326D01*
Y731609D01*
Y730892D01*
Y730175D01*
Y729457D01*
Y728740D01*
Y728023D01*
Y727306D01*
Y726589D01*
Y725872D01*
Y725155D01*
Y724437D01*
Y723720D01*
Y723003D01*
Y722286D01*
Y721569D01*
Y720852D01*
Y720134D01*
Y719417D01*
Y718700D01*
Y717983D01*
Y717266D01*
Y716549D01*
Y715832D01*
Y715114D01*
Y714397D01*
Y713680D01*
Y712963D01*
Y712246D01*
Y711529D01*
Y710811D01*
Y710094D01*
Y709377D01*
Y708660D01*
X564123D01*
Y709377D01*
Y710094D01*
Y710811D01*
Y711529D01*
Y712246D01*
Y712963D01*
Y713680D01*
Y714397D01*
Y715114D01*
Y715832D01*
Y716549D01*
Y717266D01*
Y717983D01*
Y718700D01*
Y719417D01*
Y720134D01*
Y720852D01*
Y721569D01*
Y722286D01*
Y723003D01*
Y723720D01*
Y724437D01*
Y725155D01*
Y725872D01*
Y726589D01*
Y727306D01*
Y728023D01*
Y728740D01*
Y729457D01*
Y730175D01*
Y730892D01*
Y731609D01*
Y732326D01*
Y733043D01*
Y733760D01*
Y734478D01*
Y735195D01*
Y735912D01*
Y736629D01*
Y737346D01*
D02*
G37*
%LPD*%
G36*
X557668Y730892D02*
Y730175D01*
Y729457D01*
Y728740D01*
Y728023D01*
Y727306D01*
Y726589D01*
Y725872D01*
Y725155D01*
Y724437D01*
Y723720D01*
Y723003D01*
Y722286D01*
Y721569D01*
Y720852D01*
Y720134D01*
Y719417D01*
Y718700D01*
Y717983D01*
Y717266D01*
Y716549D01*
Y715832D01*
Y715114D01*
Y714397D01*
X540456D01*
Y715114D01*
Y715832D01*
Y716549D01*
Y717266D01*
Y717983D01*
Y718700D01*
Y719417D01*
Y720134D01*
Y720852D01*
Y721569D01*
Y722286D01*
Y723003D01*
Y723720D01*
Y724437D01*
Y725155D01*
Y725872D01*
Y726589D01*
Y727306D01*
Y728023D01*
Y728740D01*
Y729457D01*
Y730175D01*
Y730892D01*
Y731609D01*
X557668D01*
Y730892D01*
D02*
G37*
%LPC*%
G36*
X672413Y685711D02*
X666676D01*
Y684994D01*
Y684277D01*
Y683560D01*
Y682842D01*
Y682125D01*
Y681408D01*
Y680691D01*
Y679974D01*
X672413D01*
Y680691D01*
Y681408D01*
Y682125D01*
Y682842D01*
Y683560D01*
Y684277D01*
Y684994D01*
Y685711D01*
D02*
G37*
G36*
X666676Y622602D02*
X649464D01*
Y621884D01*
Y621167D01*
Y620450D01*
Y619733D01*
Y619016D01*
Y618299D01*
Y617581D01*
Y616864D01*
Y616147D01*
Y615430D01*
Y614713D01*
Y613996D01*
Y613279D01*
Y612561D01*
Y611844D01*
Y611127D01*
Y610410D01*
Y609693D01*
Y608976D01*
Y608258D01*
Y607541D01*
Y606824D01*
Y606107D01*
Y605390D01*
X666676D01*
Y606107D01*
Y606824D01*
Y607541D01*
Y608258D01*
Y608976D01*
Y609693D01*
Y610410D01*
Y611127D01*
Y611844D01*
Y612561D01*
Y613279D01*
Y613996D01*
Y614713D01*
Y615430D01*
Y616147D01*
Y616864D01*
Y617581D01*
Y618299D01*
Y619016D01*
Y619733D01*
Y620450D01*
Y621167D01*
Y621884D01*
Y622602D01*
D02*
G37*
G36*
X660938Y599653D02*
X655201D01*
Y598935D01*
Y598218D01*
Y597501D01*
Y596784D01*
Y596067D01*
Y595350D01*
Y594632D01*
Y593915D01*
X660938D01*
Y594632D01*
Y595350D01*
Y596067D01*
Y596784D01*
Y597501D01*
Y598218D01*
Y598935D01*
Y599653D01*
D02*
G37*
%LPD*%
G36*
X659504Y616147D02*
X660221D01*
Y615430D01*
X660938D01*
Y614713D01*
Y613996D01*
Y613279D01*
Y612561D01*
X660221D01*
Y611844D01*
X659504D01*
Y611127D01*
X656635D01*
Y611844D01*
X655918D01*
Y612561D01*
X655201D01*
Y613279D01*
Y613996D01*
Y614713D01*
Y615430D01*
X655918D01*
Y616147D01*
X656635D01*
Y616864D01*
X659504D01*
Y616147D01*
D02*
G37*
%LPC*%
G36*
X564123Y611127D02*
X534719D01*
Y610410D01*
Y609693D01*
Y608976D01*
Y608258D01*
Y607541D01*
Y606824D01*
Y606107D01*
Y605390D01*
Y604673D01*
Y603955D01*
Y603238D01*
Y602521D01*
Y601804D01*
Y601087D01*
Y600370D01*
Y599653D01*
Y598935D01*
Y598218D01*
Y597501D01*
Y596784D01*
Y596067D01*
Y595350D01*
Y594632D01*
Y593915D01*
Y593198D01*
Y592481D01*
Y591764D01*
Y591047D01*
Y590330D01*
Y589612D01*
Y588895D01*
Y588178D01*
Y587461D01*
Y586744D01*
Y586027D01*
Y585309D01*
Y584592D01*
Y583875D01*
Y583158D01*
Y582441D01*
X564123D01*
Y583158D01*
Y583875D01*
Y584592D01*
Y585309D01*
Y586027D01*
Y586744D01*
Y587461D01*
Y588178D01*
Y588895D01*
Y589612D01*
Y590330D01*
Y591047D01*
Y591764D01*
Y592481D01*
Y593198D01*
Y593915D01*
Y594632D01*
Y595350D01*
Y596067D01*
Y596784D01*
Y597501D01*
Y598218D01*
Y598935D01*
Y599653D01*
Y600370D01*
Y601087D01*
Y601804D01*
Y602521D01*
Y603238D01*
Y603955D01*
Y604673D01*
Y605390D01*
Y606107D01*
Y606824D01*
Y607541D01*
Y608258D01*
Y608976D01*
Y609693D01*
Y610410D01*
Y611127D01*
D02*
G37*
%LPD*%
G36*
X557668Y604673D02*
Y603955D01*
Y603238D01*
Y602521D01*
Y601804D01*
Y601087D01*
Y600370D01*
Y599653D01*
Y598935D01*
Y598218D01*
Y597501D01*
Y596784D01*
Y596067D01*
Y595350D01*
Y594632D01*
Y593915D01*
Y593198D01*
Y592481D01*
Y591764D01*
Y591047D01*
Y590330D01*
Y589612D01*
Y588895D01*
Y588178D01*
X540456D01*
Y588895D01*
Y589612D01*
Y590330D01*
Y591047D01*
Y591764D01*
Y592481D01*
Y593198D01*
Y593915D01*
Y594632D01*
Y595350D01*
Y596067D01*
Y596784D01*
Y597501D01*
Y598218D01*
Y598935D01*
Y599653D01*
Y600370D01*
Y601087D01*
Y601804D01*
Y602521D01*
Y603238D01*
Y603955D01*
Y604673D01*
Y605390D01*
X557668D01*
Y604673D01*
D02*
G37*
D10*
X481068Y791764D02*
G03*
X481068Y791764I-1250J0D01*
G01*
X727060Y583350D02*
G03*
X727060Y583350I-1250J0D01*
G01*
X476810Y571890D02*
G03*
X476810Y571890I-1250J0D01*
G01*
D11*
X399410Y740030D02*
G03*
X399410Y740030I-1110J0D01*
G01*
X1326610Y599920D02*
G03*
X1326610Y599920I-1110J0D01*
G01*
Y712950D02*
G03*
X1326610Y712950I-1110J0D01*
G01*
Y825980D02*
G03*
X1326610Y825980I-1110J0D01*
G01*
X674624Y820420D02*
X675894D01*
X674624Y814070D02*
Y820420D01*
X675894D02*
X692404D01*
Y814070D02*
Y820420D01*
X527050Y821690D02*
X528320D01*
X527050Y815340D02*
Y821690D01*
X528320D02*
X544830D01*
Y815340D02*
Y821690D01*
X487160Y700200D02*
Y722200D01*
X422160Y700200D02*
Y722200D01*
Y681200D02*
X487160D01*
X422160Y741200D02*
X487160D01*
X1309370Y480060D02*
Y481330D01*
X1303020D02*
X1309370D01*
Y463550D02*
Y480060D01*
X1303020Y463550D02*
X1309370D01*
Y462280D02*
Y463550D01*
X1303020D02*
X1309370D01*
Y445770D02*
Y462280D01*
X1303020Y445770D02*
X1309370D01*
Y444500D02*
Y445770D01*
X1303020D02*
X1309370D01*
Y427990D02*
Y444500D01*
X1303020Y427990D02*
X1309370D01*
Y426720D02*
Y427990D01*
X1303020D02*
X1309370D01*
Y410210D02*
Y426720D01*
X1303020Y410210D02*
X1309370D01*
Y408940D02*
Y410210D01*
X1303020D02*
X1309370D01*
Y392430D02*
Y408940D01*
X1303020Y392430D02*
X1309370D01*
Y391160D02*
Y392430D01*
X1303020D02*
X1309370D01*
Y374650D02*
Y391160D01*
X1303020Y374650D02*
X1309370D01*
Y373380D02*
Y374650D01*
X1303020D02*
X1309370D01*
Y356870D02*
Y373380D01*
X1303020Y356870D02*
X1309370D01*
Y355600D02*
Y356870D01*
X1303020D02*
X1309370D01*
Y339090D02*
Y355600D01*
X1303020Y339090D02*
X1309370D01*
X1285670Y511060D02*
X1307670D01*
X1285670Y576060D02*
X1307670D01*
X1266670Y511060D02*
Y576060D01*
X1326670Y511060D02*
Y576060D01*
X426974Y279400D02*
X428244D01*
Y285750D01*
X410464Y279400D02*
X426974D01*
X410464D02*
Y285750D01*
X556260Y279400D02*
X557530D01*
Y285750D01*
X539750Y279400D02*
X556260D01*
X539750D02*
Y285750D01*
X1285670Y624090D02*
X1307670D01*
X1285670Y689090D02*
X1307670D01*
X1266670Y624090D02*
Y689090D01*
X1326670Y624090D02*
Y689090D01*
X684784Y279400D02*
X686054D01*
Y285750D01*
X668274Y279400D02*
X684784D01*
X668274D02*
Y285750D01*
X1285670Y737120D02*
X1307670D01*
X1285670Y802120D02*
X1307670D01*
X1266670Y737120D02*
Y802120D01*
X1326670Y737120D02*
Y802120D01*
X813816Y279400D02*
X815086D01*
Y285750D01*
X797306Y279400D02*
X813816D01*
X797306D02*
Y285750D01*
X945642Y279400D02*
X946912D01*
Y285750D01*
X929132Y279400D02*
X945642D01*
X929132D02*
Y285750D01*
X1067816Y279400D02*
X1069086D01*
Y285750D01*
X1051306Y279400D02*
X1067816D01*
X1051306D02*
Y285750D01*
X430784Y747776D02*
Y757933D01*
X435862D01*
X437555Y756240D01*
Y752854D01*
X435862Y751162D01*
X430784D01*
X434170D02*
X437555Y747776D01*
X446019D02*
X442634D01*
X440941Y749469D01*
Y752854D01*
X442634Y754547D01*
X446019D01*
X447712Y752854D01*
Y751162D01*
X440941D01*
X451097Y747776D02*
X456176D01*
X457869Y749469D01*
X456176Y751162D01*
X452790D01*
X451097Y752854D01*
X452790Y754547D01*
X457869D01*
X466333Y747776D02*
X462947D01*
X461254Y749469D01*
Y752854D01*
X462947Y754547D01*
X466333D01*
X468025Y752854D01*
Y751162D01*
X461254D01*
X473104Y756240D02*
Y754547D01*
X471411D01*
X474796D01*
X473104D01*
Y749469D01*
X474796Y747776D01*
X441960Y263144D02*
X431803D01*
Y268222D01*
X433496Y269915D01*
X436882D01*
X438574Y268222D01*
Y263144D01*
Y266530D02*
X441960Y269915D01*
Y278379D02*
Y274993D01*
X440267Y273301D01*
X436882D01*
X435189Y274993D01*
Y278379D01*
X436882Y280072D01*
X438574D01*
Y273301D01*
X441960Y283457D02*
Y286843D01*
Y285150D01*
X431803D01*
Y283457D01*
X435189Y293614D02*
Y297000D01*
X436882Y298692D01*
X441960D01*
Y293614D01*
X440267Y291921D01*
X438574Y293614D01*
Y298692D01*
X435189Y302078D02*
X440267D01*
X441960Y303771D01*
Y308849D01*
X443653D01*
X445346Y307157D01*
Y305464D01*
X441960Y308849D02*
X435189D01*
X441960Y322392D02*
Y325777D01*
Y324084D01*
X431803D01*
X433496Y322392D01*
X572008Y261112D02*
X561851D01*
Y266190D01*
X563544Y267883D01*
X566930D01*
X568622Y266190D01*
Y261112D01*
Y264498D02*
X572008Y267883D01*
Y276347D02*
Y272962D01*
X570315Y271269D01*
X566930D01*
X565237Y272962D01*
Y276347D01*
X566930Y278040D01*
X568622D01*
Y271269D01*
X572008Y281425D02*
Y284811D01*
Y283118D01*
X561851D01*
Y281425D01*
X565237Y291582D02*
Y294968D01*
X566930Y296660D01*
X572008D01*
Y291582D01*
X570315Y289889D01*
X568622Y291582D01*
Y296660D01*
X565237Y300046D02*
X570315D01*
X572008Y301739D01*
Y306817D01*
X573701D01*
X575394Y305124D01*
Y303432D01*
X572008Y306817D02*
X565237D01*
X572008Y327131D02*
Y320360D01*
X565237Y327131D01*
X563544D01*
X561851Y325438D01*
Y322052D01*
X563544Y320360D01*
X699516Y262636D02*
X689359D01*
Y267714D01*
X691052Y269407D01*
X694438D01*
X696130Y267714D01*
Y262636D01*
Y266022D02*
X699516Y269407D01*
Y277871D02*
Y274485D01*
X697823Y272793D01*
X694438D01*
X692745Y274485D01*
Y277871D01*
X694438Y279564D01*
X696130D01*
Y272793D01*
X699516Y282949D02*
Y286335D01*
Y284642D01*
X689359D01*
Y282949D01*
X692745Y293106D02*
Y296492D01*
X694438Y298185D01*
X699516D01*
Y293106D01*
X697823Y291413D01*
X696130Y293106D01*
Y298185D01*
X692745Y301570D02*
X697823D01*
X699516Y303263D01*
Y308341D01*
X701209D01*
X702902Y306649D01*
Y304956D01*
X699516Y308341D02*
X692745D01*
X691052Y321884D02*
X689359Y323576D01*
Y326962D01*
X691052Y328655D01*
X692745D01*
X694438Y326962D01*
Y325269D01*
Y326962D01*
X696130Y328655D01*
X697823D01*
X699516Y326962D01*
Y323576D01*
X697823Y321884D01*
X829564Y262636D02*
X819407D01*
Y267714D01*
X821100Y269407D01*
X824486D01*
X826178Y267714D01*
Y262636D01*
Y266022D02*
X829564Y269407D01*
Y277871D02*
Y274485D01*
X827871Y272793D01*
X824486D01*
X822793Y274485D01*
Y277871D01*
X824486Y279564D01*
X826178D01*
Y272793D01*
X829564Y282949D02*
Y286335D01*
Y284642D01*
X819407D01*
Y282949D01*
X822793Y293106D02*
Y296492D01*
X824486Y298185D01*
X829564D01*
Y293106D01*
X827871Y291413D01*
X826178Y293106D01*
Y298185D01*
X822793Y301570D02*
X827871D01*
X829564Y303263D01*
Y308341D01*
X831257D01*
X832950Y306649D01*
Y304956D01*
X829564Y308341D02*
X822793D01*
X829564Y326962D02*
X819407D01*
X824486Y321884D01*
Y328655D01*
X960374Y261366D02*
X950217D01*
Y266444D01*
X951910Y268137D01*
X955296D01*
X956988Y266444D01*
Y261366D01*
Y264752D02*
X960374Y268137D01*
Y276601D02*
Y273216D01*
X958681Y271523D01*
X955296D01*
X953603Y273216D01*
Y276601D01*
X955296Y278294D01*
X956988D01*
Y271523D01*
X960374Y281679D02*
Y285065D01*
Y283372D01*
X950217D01*
Y281679D01*
X953603Y291836D02*
Y295222D01*
X955296Y296915D01*
X960374D01*
Y291836D01*
X958681Y290143D01*
X956988Y291836D01*
Y296915D01*
X953603Y300300D02*
X958681D01*
X960374Y301993D01*
Y307071D01*
X962067D01*
X963760Y305378D01*
Y303686D01*
X960374Y307071D02*
X953603D01*
X950217Y327385D02*
Y320614D01*
X955296D01*
X953603Y323999D01*
Y325692D01*
X955296Y327385D01*
X958681D01*
X960374Y325692D01*
Y322306D01*
X958681Y320614D01*
X1083056Y261620D02*
X1072899D01*
Y266698D01*
X1074592Y268391D01*
X1077978D01*
X1079670Y266698D01*
Y261620D01*
Y265006D02*
X1083056Y268391D01*
Y276855D02*
Y273470D01*
X1081363Y271777D01*
X1077978D01*
X1076285Y273470D01*
Y276855D01*
X1077978Y278548D01*
X1079670D01*
Y271777D01*
X1083056Y281933D02*
Y285319D01*
Y283626D01*
X1072899D01*
Y281933D01*
X1076285Y292090D02*
Y295476D01*
X1077978Y297169D01*
X1083056D01*
Y292090D01*
X1081363Y290397D01*
X1079670Y292090D01*
Y297169D01*
X1076285Y300554D02*
X1081363D01*
X1083056Y302247D01*
Y307325D01*
X1084749D01*
X1086442Y305632D01*
Y303940D01*
X1083056Y307325D02*
X1076285D01*
X1072899Y327639D02*
X1074592Y324253D01*
X1077978Y320868D01*
X1081363D01*
X1083056Y322560D01*
Y325946D01*
X1081363Y327639D01*
X1079670D01*
X1077978Y325946D01*
Y320868D01*
X1339853Y735330D02*
X1350010D01*
Y740408D01*
X1348317Y742101D01*
X1346624D01*
X1344932Y740408D01*
Y735330D01*
Y740408D01*
X1343239Y742101D01*
X1341546D01*
X1339853Y740408D01*
Y735330D01*
X1343239Y745487D02*
X1348317D01*
X1350010Y747179D01*
Y752258D01*
X1343239D01*
X1341546Y757336D02*
X1343239D01*
Y755643D01*
Y759029D01*
Y757336D01*
X1348317D01*
X1350010Y759029D01*
X1341546Y765800D02*
X1343239D01*
Y764107D01*
Y767493D01*
Y765800D01*
X1348317D01*
X1350010Y767493D01*
Y774264D02*
Y777650D01*
X1348317Y779342D01*
X1344932D01*
X1343239Y777650D01*
Y774264D01*
X1344932Y772571D01*
X1348317D01*
X1350010Y774264D01*
Y782728D02*
X1343239D01*
Y787806D01*
X1344932Y789499D01*
X1350010D01*
X1341546Y803042D02*
X1339853Y804734D01*
Y808120D01*
X1341546Y809813D01*
X1343239D01*
X1344932Y808120D01*
Y806427D01*
Y808120D01*
X1346624Y809813D01*
X1348317D01*
X1350010Y808120D01*
Y804734D01*
X1348317Y803042D01*
X1339853Y619760D02*
X1350010D01*
Y624838D01*
X1348317Y626531D01*
X1346624D01*
X1344932Y624838D01*
Y619760D01*
Y624838D01*
X1343239Y626531D01*
X1341546D01*
X1339853Y624838D01*
Y619760D01*
X1343239Y629917D02*
X1348317D01*
X1350010Y631609D01*
Y636688D01*
X1343239D01*
X1341546Y641766D02*
X1343239D01*
Y640073D01*
Y643459D01*
Y641766D01*
X1348317D01*
X1350010Y643459D01*
X1341546Y650230D02*
X1343239D01*
Y648537D01*
Y651923D01*
Y650230D01*
X1348317D01*
X1350010Y651923D01*
Y658694D02*
Y662080D01*
X1348317Y663773D01*
X1344932D01*
X1343239Y662080D01*
Y658694D01*
X1344932Y657001D01*
X1348317D01*
X1350010Y658694D01*
Y667158D02*
X1343239D01*
Y672236D01*
X1344932Y673929D01*
X1350010D01*
Y694243D02*
Y687471D01*
X1343239Y694243D01*
X1341546D01*
X1339853Y692550D01*
Y689164D01*
X1341546Y687471D01*
X1339853Y508000D02*
X1350010D01*
Y513078D01*
X1348317Y514771D01*
X1346624D01*
X1344932Y513078D01*
Y508000D01*
Y513078D01*
X1343239Y514771D01*
X1341546D01*
X1339853Y513078D01*
Y508000D01*
X1343239Y518157D02*
X1348317D01*
X1350010Y519850D01*
Y524928D01*
X1343239D01*
X1341546Y530006D02*
X1343239D01*
Y528313D01*
Y531699D01*
Y530006D01*
X1348317D01*
X1350010Y531699D01*
X1341546Y538470D02*
X1343239D01*
Y536777D01*
Y540163D01*
Y538470D01*
X1348317D01*
X1350010Y540163D01*
Y546934D02*
Y550320D01*
X1348317Y552012D01*
X1344932D01*
X1343239Y550320D01*
Y546934D01*
X1344932Y545241D01*
X1348317D01*
X1350010Y546934D01*
Y555398D02*
X1343239D01*
Y560476D01*
X1344932Y562169D01*
X1350010D01*
Y575712D02*
Y579097D01*
Y577404D01*
X1339853D01*
X1341546Y575712D01*
D12*
X741510Y603600D02*
G03*
X741510Y603600I-3000J0D01*
G01*
X457310Y584840D02*
G03*
X457310Y584840I-3000J0D01*
G01*
D13*
X841840Y685650D02*
G03*
X841840Y685650I-1200J0D01*
G01*
D14*
X560140Y336004D02*
Y540804D01*
X664140D01*
X560140Y336004D02*
X664140D01*
Y540804D01*
X1073474Y336258D02*
Y541058D01*
X1177474D01*
X1073474Y336258D02*
X1177474D01*
Y541058D01*
X948252Y337020D02*
Y541820D01*
X1052252D01*
X948252Y337020D02*
X1052252D01*
Y541820D01*
X817442Y336766D02*
Y541566D01*
X921442D01*
X817442Y336766D02*
X921442D01*
Y541566D01*
X689426Y337020D02*
Y541820D01*
X793426D01*
X689426Y337020D02*
X793426D01*
Y541820D01*
X431870Y337274D02*
Y542074D01*
X535870D01*
X431870Y337274D02*
X535870D01*
Y542074D01*
X476518Y774764D02*
Y782764D01*
X446518Y774764D02*
Y782764D01*
X476518D01*
X446518Y774764D02*
X476518D01*
X687324Y772160D02*
Y774700D01*
X679704Y772160D02*
Y774700D01*
X1220724Y689356D02*
X1223264D01*
X1220724Y696976D02*
X1223264D01*
X484998Y781050D02*
Y793100D01*
X485648Y793750D02*
X486918D01*
X497078D02*
X498348D01*
X498998Y781050D02*
Y793100D01*
X498348Y793750D02*
X498998Y793100D01*
X539750Y768096D02*
Y770636D01*
X532130Y768096D02*
Y770636D01*
X515620Y689610D02*
Y692150D01*
X523240Y689610D02*
Y692150D01*
X698500Y668020D02*
X723900D01*
X698500Y820420D02*
X723900D01*
Y668020D02*
Y820420D01*
X698500Y668020D02*
Y820420D01*
X1243330Y300228D02*
Y302768D01*
X1235710Y300228D02*
Y302768D01*
X1109980Y614680D02*
Y617220D01*
X1102360Y614680D02*
Y617220D01*
X1074420Y614680D02*
Y617220D01*
X1066800Y614680D02*
Y617220D01*
X1126490Y614680D02*
Y617220D01*
X1118870Y614680D02*
Y617220D01*
X1090930Y614680D02*
Y617220D01*
X1083310Y614680D02*
Y617220D01*
X993140Y614680D02*
Y617220D01*
X1000760Y614680D02*
Y617220D01*
X1009650Y614680D02*
Y617220D01*
X1017270Y614680D02*
Y617220D01*
X828510Y593600D02*
Y625600D01*
X728510Y593600D02*
Y625600D01*
X828510D01*
X728510Y593600D02*
X828510D01*
X838200Y669290D02*
Y671830D01*
X830580Y669290D02*
Y671830D01*
X820420Y669290D02*
Y671830D01*
X812800Y669290D02*
Y671830D01*
X803910Y669290D02*
Y671830D01*
X796290Y669290D02*
Y671830D01*
X787400Y669290D02*
Y671830D01*
X779780Y669290D02*
Y671830D01*
X770890Y669290D02*
Y671830D01*
X763270Y669290D02*
Y671830D01*
X737870Y669290D02*
Y671830D01*
X730250Y669290D02*
Y671830D01*
X754380Y669290D02*
Y671830D01*
X746760Y669290D02*
Y671830D01*
X1187450Y696976D02*
X1189990D01*
X1187450Y689356D02*
X1189990D01*
X1145540Y687578D02*
Y690118D01*
X1137920Y687578D02*
Y690118D01*
X1151128Y757682D02*
X1153668D01*
X1151128Y750062D02*
X1153668D01*
X1185418Y757682D02*
X1187958D01*
X1185418Y750062D02*
X1187958D01*
X1220978Y757682D02*
X1223518D01*
X1220978Y750062D02*
X1223518D01*
X847090Y615950D02*
Y618490D01*
X854710Y615950D02*
Y618490D01*
X881380Y615950D02*
Y618490D01*
X889000Y615950D02*
Y618490D01*
X976376Y614680D02*
Y617220D01*
X983996Y614680D02*
Y617220D01*
X1026160Y614680D02*
Y617220D01*
X1033780Y614680D02*
Y617220D01*
X1259840Y468630D02*
X1262380D01*
X1259840Y476250D02*
X1262380D01*
X1226820Y440690D02*
X1229360D01*
X1226820Y433070D02*
X1229360D01*
X1259840Y450850D02*
X1262380D01*
X1259840Y458470D02*
X1262380D01*
X1193800Y440690D02*
X1196340D01*
X1193800Y433070D02*
X1196340D01*
X1259840D02*
X1262380D01*
X1259840Y440690D02*
X1262380D01*
X1197774Y549628D02*
X1200314D01*
X1197774Y557248D02*
X1200314D01*
X1259840Y415290D02*
X1262380D01*
X1259840Y422910D02*
X1262380D01*
X1230794Y549628D02*
X1233334D01*
X1230794Y557248D02*
X1233334D01*
X1259840Y397510D02*
X1262380D01*
X1259840Y405130D02*
X1262380D01*
X1213240Y274574D02*
X1215780D01*
X1213240Y266954D02*
X1215780D01*
X1259840Y379730D02*
X1262380D01*
X1259840Y387350D02*
X1262380D01*
X1181100Y274574D02*
X1183640D01*
X1181100Y266954D02*
X1183640D01*
X1259840Y361950D02*
X1262380D01*
X1259840Y369570D02*
X1262380D01*
X1193428Y381000D02*
X1195968D01*
X1193428Y388620D02*
X1195968D01*
X1259840Y344170D02*
X1262380D01*
X1259840Y351790D02*
X1262380D01*
X1226820Y381254D02*
X1229360D01*
X1226820Y388874D02*
X1229360D01*
X480060Y563260D02*
X492110D01*
X492760Y561340D02*
Y562610D01*
Y549910D02*
Y551180D01*
X480060Y549260D02*
X492110D01*
X492760Y549910D01*
X439420Y560070D02*
X441960D01*
X439420Y552450D02*
X441960D01*
X1259840Y560070D02*
Y562610D01*
X1252220Y560070D02*
Y562610D01*
X605790Y569610D02*
X617840D01*
X618490Y567690D02*
Y568960D01*
Y556260D02*
Y557530D01*
X605790Y555610D02*
X617840D01*
X618490Y556260D01*
X549910Y557530D02*
X552450D01*
X549910Y565150D02*
X552450D01*
X1259840Y673100D02*
Y675640D01*
X1252220Y673100D02*
Y675640D01*
X739140Y568340D02*
X751190D01*
X751840Y566420D02*
Y567690D01*
Y554990D02*
Y556260D01*
X739140Y554340D02*
X751190D01*
X751840Y554990D01*
X679450Y558800D02*
X681990D01*
X679450Y566420D02*
X681990D01*
X1259840Y786130D02*
Y788670D01*
X1252220Y786130D02*
Y788670D01*
X868680Y569610D02*
X880730D01*
X881380Y567690D02*
Y568960D01*
Y556260D02*
Y557530D01*
X868680Y555610D02*
X880730D01*
X881380Y556260D01*
X787908Y558800D02*
X790448D01*
X787908Y551180D02*
X790448D01*
X998220Y569610D02*
X1010270D01*
X1010920Y567690D02*
Y568960D01*
Y556260D02*
Y557530D01*
X998220Y555610D02*
X1010270D01*
X1010920Y556260D01*
X940562Y592328D02*
X943102D01*
X940562Y599948D02*
X943102D01*
X1120140Y569610D02*
X1132190D01*
X1132840Y567690D02*
Y568960D01*
Y556260D02*
Y557530D01*
X1120140Y555610D02*
X1132190D01*
X1132840Y556260D01*
X1064006Y587248D02*
X1066546D01*
X1064006Y594868D02*
X1066546D01*
X380000Y444170D02*
Y752170D01*
X255000Y444170D02*
X380000D01*
X255000D02*
Y752170D01*
X380000D01*
X464310Y574840D02*
Y674840D01*
X432310Y574840D02*
Y674840D01*
Y574840D02*
X464310D01*
X432310Y674840D02*
X464310D01*
X281940Y317500D02*
X307340D01*
X281940D02*
Y419100D01*
X307340Y317500D02*
Y419100D01*
X281940D02*
X307340D01*
X383540Y370417D02*
Y419100D01*
Y342900D02*
Y419100D01*
X332740Y342900D02*
Y419100D01*
Y342900D02*
X383540D01*
X332740Y419100D02*
X383540D01*
D15*
X1118897Y646280D02*
X1128290D01*
X1108647Y661820D02*
X1116393D01*
X1096750Y646280D02*
Y653720D01*
Y646280D02*
X1106143D01*
X1128290D02*
Y653720D01*
X1083337Y646280D02*
X1092730D01*
X1073087Y661820D02*
X1080833D01*
X1061190Y646280D02*
Y653720D01*
Y646280D02*
X1070583D01*
X1092730D02*
Y653720D01*
X1009677Y647550D02*
X1019070D01*
X999427Y663090D02*
X1007173D01*
X987530Y647550D02*
Y654990D01*
Y647550D02*
X996923D01*
X1019070D02*
Y654990D01*
X1225377Y715114D02*
X1234770D01*
X1215127Y730654D02*
X1222873D01*
X1203230Y715114D02*
Y722554D01*
Y715114D02*
X1212623D01*
X1234770D02*
Y722554D01*
X1191087Y715114D02*
X1200480D01*
X1180837Y730654D02*
X1188583D01*
X1168940Y715114D02*
Y722554D01*
Y715114D02*
X1178333D01*
X1200480D02*
Y722554D01*
X1156797Y715114D02*
X1166190D01*
X1146547Y730654D02*
X1154293D01*
X1134650Y715114D02*
Y722554D01*
Y715114D02*
X1144043D01*
X1166190D02*
Y722554D01*
X845290Y663090D02*
X854683D01*
X857187Y647550D02*
X864933D01*
X876830Y655649D02*
Y663090D01*
X867437D02*
X876830D01*
X845290Y655649D02*
Y663090D01*
X879580D02*
X888973D01*
X891477Y647550D02*
X899223D01*
X911120Y655649D02*
Y663090D01*
X901727D02*
X911120D01*
X879580Y655649D02*
Y663090D01*
X951970D02*
X961363D01*
X963867Y647550D02*
X971613D01*
X983510Y655649D02*
Y663090D01*
X974117D02*
X983510D01*
X951970Y655649D02*
Y663090D01*
X1024360D02*
X1033753D01*
X1036257Y647550D02*
X1044003D01*
X1055900Y655649D02*
Y663090D01*
X1046507D02*
X1055900D01*
X1024360Y655649D02*
Y663090D01*
X1212828Y473860D02*
X1222221D01*
X1224725Y458320D02*
X1232471D01*
X1244368Y466419D02*
Y473860D01*
X1234975D02*
X1244368D01*
X1212828Y466419D02*
Y473860D01*
X1179808Y474114D02*
X1189201D01*
X1191705Y458574D02*
X1199451D01*
X1211348Y466674D02*
Y474114D01*
X1201955D02*
X1211348D01*
X1179808Y466674D02*
Y474114D01*
X1203643Y516696D02*
X1213036D01*
X1193393Y532236D02*
X1201139D01*
X1181496Y516696D02*
Y524137D01*
Y516696D02*
X1190889D01*
X1213036D02*
Y524137D01*
X1237769Y516740D02*
X1247162D01*
X1227519Y532280D02*
X1235265D01*
X1215622Y516740D02*
Y524180D01*
Y516740D02*
X1225015D01*
X1247162D02*
Y524180D01*
X1199874Y306220D02*
X1209267D01*
X1211771Y290680D02*
X1219517D01*
X1231414Y298780D02*
Y306220D01*
X1222021D02*
X1231414D01*
X1199874Y298780D02*
Y306220D01*
X1166854D02*
X1176247D01*
X1178751Y290680D02*
X1186497D01*
X1198394Y298780D02*
Y306220D01*
X1189001D02*
X1198394D01*
X1166854Y298780D02*
Y306220D01*
X1201701Y347830D02*
X1211094D01*
X1191451Y363370D02*
X1199197D01*
X1179554Y347830D02*
Y355271D01*
Y347830D02*
X1188947D01*
X1211094D02*
Y355271D01*
X1234721Y347830D02*
X1244114D01*
X1224471Y363370D02*
X1232217D01*
X1212574Y347830D02*
Y355271D01*
Y347830D02*
X1221967D01*
X1244114D02*
Y355271D01*
X410237Y515724D02*
X419630D01*
X399987Y531264D02*
X407733D01*
X388090Y515724D02*
Y523164D01*
Y515724D02*
X397483D01*
X419630D02*
Y523164D01*
X832508Y565431D02*
Y574824D01*
X816968Y555181D02*
Y562927D01*
X825068Y543284D02*
X832508D01*
Y552677D01*
X825068Y574824D02*
X832508D01*
X946775Y560638D02*
X956168D01*
X936525Y576178D02*
X944271D01*
X924628Y560638D02*
Y568078D01*
Y560638D02*
X934021D01*
X956168D02*
Y568078D01*
X1070129Y552554D02*
X1079522D01*
X1059879Y568094D02*
X1067625D01*
X1047982Y552554D02*
Y559995D01*
Y552554D02*
X1057375D01*
X1079522D02*
Y559995D01*
X332193Y659170D02*
X330500Y657477D01*
Y654092D01*
X332193Y652399D01*
X338964D01*
X340657Y654092D01*
Y657477D01*
X338964Y659170D01*
X337271D01*
X335578Y657477D01*
Y652399D01*
D16*
X728640Y819650D02*
X1130640D01*
Y691650D02*
Y819650D01*
X728640Y691650D02*
X1130640D01*
X728640D02*
Y819650D01*
D17*
X1315212Y422399D02*
Y414782D01*
X1320290D01*
X1327908Y422399D02*
X1322829D01*
Y414782D01*
X1327908D01*
X1322829Y418591D02*
X1325369D01*
X1330447Y422399D02*
Y414782D01*
X1334256D01*
X1335525Y416052D01*
Y421130D01*
X1334256Y422399D01*
X1330447D01*
X1350760D02*
X1345682D01*
Y418591D01*
X1348221Y419860D01*
X1349491D01*
X1350760Y418591D01*
Y416052D01*
X1349491Y414782D01*
X1346952D01*
X1345682Y416052D01*
X1315212Y351279D02*
Y343662D01*
X1320290D01*
X1327908Y351279D02*
X1322829D01*
Y343662D01*
X1327908D01*
X1322829Y347471D02*
X1325369D01*
X1330447Y351279D02*
Y343662D01*
X1334256D01*
X1335525Y344932D01*
Y350010D01*
X1334256Y351279D01*
X1330447D01*
X1345682Y343662D02*
X1348221D01*
X1346952D01*
Y351279D01*
X1345682Y350010D01*
X1315212Y386839D02*
Y379222D01*
X1320290D01*
X1327908Y386839D02*
X1322829D01*
Y379222D01*
X1327908D01*
X1322829Y383031D02*
X1325369D01*
X1330447Y386839D02*
Y379222D01*
X1334256D01*
X1335525Y380492D01*
Y385570D01*
X1334256Y386839D01*
X1330447D01*
X1345682Y385570D02*
X1346952Y386839D01*
X1349491D01*
X1350760Y385570D01*
Y384300D01*
X1349491Y383031D01*
X1348221D01*
X1349491D01*
X1350760Y381761D01*
Y380492D01*
X1349491Y379222D01*
X1346952D01*
X1345682Y380492D01*
X1315212Y404619D02*
Y397002D01*
X1320290D01*
X1327908Y404619D02*
X1322829D01*
Y397002D01*
X1327908D01*
X1322829Y400811D02*
X1325369D01*
X1330447Y404619D02*
Y397002D01*
X1334256D01*
X1335525Y398272D01*
Y403350D01*
X1334256Y404619D01*
X1330447D01*
X1349491Y397002D02*
Y404619D01*
X1345682Y400811D01*
X1350760D01*
X1315212Y369059D02*
Y361442D01*
X1320290D01*
X1327908Y369059D02*
X1322829D01*
Y361442D01*
X1327908D01*
X1322829Y365251D02*
X1325369D01*
X1330447Y369059D02*
Y361442D01*
X1334256D01*
X1335525Y362712D01*
Y367790D01*
X1334256Y369059D01*
X1330447D01*
X1350760Y361442D02*
X1345682D01*
X1350760Y366520D01*
Y367790D01*
X1349491Y369059D01*
X1346952D01*
X1345682Y367790D01*
X1315212Y440179D02*
Y432562D01*
X1320290D01*
X1327908Y440179D02*
X1322829D01*
Y432562D01*
X1327908D01*
X1322829Y436371D02*
X1325369D01*
X1330447Y440179D02*
Y432562D01*
X1334256D01*
X1335525Y433832D01*
Y438910D01*
X1334256Y440179D01*
X1330447D01*
X1350760D02*
X1348221Y438910D01*
X1345682Y436371D01*
Y433832D01*
X1346952Y432562D01*
X1349491D01*
X1350760Y433832D01*
Y435101D01*
X1349491Y436371D01*
X1345682D01*
X1315212Y457960D02*
Y450342D01*
X1320290D01*
X1327908Y457960D02*
X1322829D01*
Y450342D01*
X1327908D01*
X1322829Y454151D02*
X1325369D01*
X1330447Y457960D02*
Y450342D01*
X1334256D01*
X1335525Y451612D01*
Y456690D01*
X1334256Y457960D01*
X1330447D01*
X1345682D02*
X1350760D01*
Y456690D01*
X1345682Y451612D01*
Y450342D01*
X1315212Y475740D02*
Y468122D01*
X1320290D01*
X1327908Y475740D02*
X1322829D01*
Y468122D01*
X1327908D01*
X1322829Y471931D02*
X1325369D01*
X1330447Y475740D02*
Y468122D01*
X1334256D01*
X1335525Y469392D01*
Y474470D01*
X1334256Y475740D01*
X1330447D01*
X1345682Y474470D02*
X1346952Y475740D01*
X1349491D01*
X1350760Y474470D01*
Y473200D01*
X1349491Y471931D01*
X1350760Y470661D01*
Y469392D01*
X1349491Y468122D01*
X1346952D01*
X1345682Y469392D01*
Y470661D01*
X1346952Y471931D01*
X1345682Y473200D01*
Y474470D01*
X1346952Y471931D02*
X1349491D01*
X292098Y431798D02*
X290829Y433068D01*
X288290D01*
X287020Y431798D01*
Y430528D01*
X288290Y429259D01*
X290829D01*
X292098Y427989D01*
Y426720D01*
X290829Y425450D01*
X288290D01*
X287020Y426720D01*
X294638Y425450D02*
Y433068D01*
X298446D01*
X299716Y431798D01*
Y429259D01*
X298446Y427989D01*
X294638D01*
X302255Y433068D02*
X304794D01*
X303525D01*
Y425450D01*
X302255D01*
X304794D01*
X275588Y335282D02*
X276857Y336551D01*
Y339090D01*
X275588Y340360D01*
X274318D01*
X273049Y339090D01*
Y336551D01*
X271779Y335282D01*
X270510D01*
X269240Y336551D01*
Y339090D01*
X270510Y340360D01*
X275588Y327664D02*
X276857Y328934D01*
Y331473D01*
X275588Y332743D01*
X270510D01*
X269240Y331473D01*
Y328934D01*
X270510Y327664D01*
X276857Y325125D02*
X269240D01*
X271779D01*
X276857Y320047D01*
X273049Y323855D01*
X269240Y320047D01*
Y360680D02*
X276857D01*
X274318Y358141D01*
X276857Y355602D01*
X269240D01*
X276857Y353063D02*
Y350523D01*
Y351793D01*
X269240D01*
Y353063D01*
Y350523D01*
Y387350D02*
X276857D01*
X274318Y384811D01*
X276857Y382272D01*
X269240D01*
X276857Y375924D02*
Y378463D01*
X275588Y379733D01*
X270510D01*
X269240Y378463D01*
Y375924D01*
X270510Y374654D01*
X275588D01*
X276857Y375924D01*
X275588Y411482D02*
X276857Y412751D01*
Y415290D01*
X275588Y416560D01*
X270510D01*
X269240Y415290D01*
Y412751D01*
X270510Y411482D01*
X273049D01*
Y414021D01*
X269240Y408942D02*
X276857D01*
X269240Y403864D01*
X276857D01*
Y401325D02*
X269240D01*
Y397516D01*
X270510Y396247D01*
X275588D01*
X276857Y397516D01*
Y401325D01*
X331470Y433068D02*
Y426720D01*
X332740Y425450D01*
X335279D01*
X336548Y426720D01*
Y433068D01*
X339087Y425450D02*
Y430528D01*
X341627Y433068D01*
X344166Y430528D01*
Y425450D01*
Y429259D01*
X339087D01*
X346705Y425450D02*
Y433068D01*
X350514D01*
X351783Y431798D01*
Y429259D01*
X350514Y427989D01*
X346705D01*
X349244D02*
X351783Y425450D01*
X354323Y433068D02*
X359401D01*
X356862D01*
Y425450D01*
X364490Y433068D02*
X367029D01*
X365760D01*
Y425450D01*
X364490D01*
X367029D01*
X375916D02*
X370838D01*
X375916Y430528D01*
Y431798D01*
X374647Y433068D01*
X372108D01*
X370838Y431798D01*
X383534D02*
X382264Y433068D01*
X379725D01*
X378456Y431798D01*
Y426720D01*
X379725Y425450D01*
X382264D01*
X383534Y426720D01*
X323848Y411482D02*
X325117Y412751D01*
Y415290D01*
X323848Y416560D01*
X318770D01*
X317500Y415290D01*
Y412751D01*
X318770Y411482D01*
X321309D01*
Y414021D01*
X317500Y408942D02*
X325117D01*
X317500Y403864D01*
X325117D01*
Y401325D02*
X317500D01*
Y397516D01*
X318770Y396247D01*
X323848D01*
X325117Y397516D01*
Y401325D01*
Y388620D02*
Y383542D01*
Y386081D01*
X317500D01*
X325117Y381003D02*
X317500Y375924D01*
X325117D02*
X317500Y381003D01*
Y360680D02*
X325117D01*
Y356871D01*
X323848Y355602D01*
X321309D01*
X320039Y356871D01*
Y360680D01*
Y358141D02*
X317500Y355602D01*
X325117Y353063D02*
X317500Y347984D01*
X325117D02*
X317500Y353063D01*
X396238Y359412D02*
X397508Y360681D01*
Y363220D01*
X396238Y364490D01*
X394968D01*
X393699Y363220D01*
Y360681D01*
X392429Y359412D01*
X391160D01*
X389890Y360681D01*
Y363220D01*
X391160Y364490D01*
X396238Y351794D02*
X397508Y353064D01*
Y355603D01*
X396238Y356872D01*
X391160D01*
X389890Y355603D01*
Y353064D01*
X391160Y351794D01*
X397508Y349255D02*
X389890D01*
Y344177D01*
X396238Y386082D02*
X397508Y387351D01*
Y389890D01*
X396238Y391160D01*
X394968D01*
X393699Y389890D01*
Y387351D01*
X392429Y386082D01*
X391160D01*
X389890Y387351D01*
Y389890D01*
X391160Y391160D01*
X397508Y383543D02*
X389890D01*
Y379734D01*
X391160Y378464D01*
X396238D01*
X397508Y379734D01*
Y383543D01*
X389890Y375925D02*
X394968D01*
X397508Y373386D01*
X394968Y370847D01*
X389890D01*
X393699D01*
Y375925D01*
X396238Y411482D02*
X397508Y412751D01*
Y415290D01*
X396238Y416560D01*
X391160D01*
X389890Y415290D01*
Y412751D01*
X391160Y411482D01*
X393699D01*
Y414021D01*
X389890Y408942D02*
X397508D01*
X389890Y403864D01*
X397508D01*
Y401325D02*
X389890D01*
Y397516D01*
X391160Y396247D01*
X396238D01*
X397508Y397516D01*
Y401325D01*
D18*
X255800Y444170D02*
Y752170D01*
M02*
