G04*
G04 #@! TF.GenerationSoftware,Altium Limited,Altium NEXUS,2.1.9 (83)*
G04*
G04 Layer_Color=8388736*
%FSLAX44Y44*%
%MOMM*%
G71*
G01*
G75*
%ADD18C,0.1000*%
%ADD32R,0.6100X1.6100*%
%ADD38R,1.6100X0.6100*%
%ADD41R,0.9032X1.0032*%
%ADD42R,0.8632X1.2032*%
%ADD43R,1.3032X2.5532*%
%ADD44R,0.6032X2.5532*%
%ADD45R,1.2032X1.6032*%
%ADD46R,1.2032X1.1032*%
%ADD47R,1.6032X1.2032*%
%ADD48R,1.1032X1.2032*%
%ADD49R,1.2032X1.3032*%
%ADD50R,1.2032X1.4232*%
G04:AMPARAMS|DCode=51|XSize=1.2032mm|YSize=1.4232mm|CornerRadius=0mm|HoleSize=0mm|Usage=FLASHONLY|Rotation=0.000|XOffset=0mm|YOffset=0mm|HoleType=Round|Shape=Octagon|*
%AMOCTAGOND51*
4,1,8,-0.3008,0.7116,0.3008,0.7116,0.6016,0.4108,0.6016,-0.4108,0.3008,-0.7116,-0.3008,-0.7116,-0.6016,-0.4108,-0.6016,0.4108,-0.3008,0.7116,0.0*
%
%ADD51OCTAGOND51*%

%ADD52R,3.4032X1.2032*%
%ADD53R,1.2032X1.2032*%
G04:AMPARAMS|DCode=54|XSize=0.7532mm|YSize=1.4532mm|CornerRadius=0.1511mm|HoleSize=0mm|Usage=FLASHONLY|Rotation=180.000|XOffset=0mm|YOffset=0mm|HoleType=Round|Shape=RoundedRectangle|*
%AMROUNDEDRECTD54*
21,1,0.7532,1.1510,0,0,180.0*
21,1,0.4510,1.4532,0,0,180.0*
1,1,0.3022,-0.2255,0.5755*
1,1,0.3022,0.2255,0.5755*
1,1,0.3022,0.2255,-0.5755*
1,1,0.3022,-0.2255,-0.5755*
%
%ADD54ROUNDEDRECTD54*%
%ADD55R,1.3032X1.2032*%
%ADD56R,1.4232X1.2032*%
G04:AMPARAMS|DCode=57|XSize=1.2032mm|YSize=1.4232mm|CornerRadius=0mm|HoleSize=0mm|Usage=FLASHONLY|Rotation=270.000|XOffset=0mm|YOffset=0mm|HoleType=Round|Shape=Octagon|*
%AMOCTAGOND57*
4,1,8,0.7116,0.3008,0.7116,-0.3008,0.4108,-0.6016,-0.4108,-0.6016,-0.7116,-0.3008,-0.7116,0.3008,-0.4108,0.6016,0.4108,0.6016,0.7116,0.3008,0.0*
%
%ADD57OCTAGOND57*%

%ADD58R,1.2032X3.4032*%
G04:AMPARAMS|DCode=59|XSize=0.8032mm|YSize=1.6532mm|CornerRadius=0.1526mm|HoleSize=0mm|Usage=FLASHONLY|Rotation=270.000|XOffset=0mm|YOffset=0mm|HoleType=Round|Shape=RoundedRectangle|*
%AMROUNDEDRECTD59*
21,1,0.8032,1.3480,0,0,270.0*
21,1,0.4980,1.6532,0,0,270.0*
1,1,0.3052,-0.6740,-0.2490*
1,1,0.3052,-0.6740,0.2490*
1,1,0.3052,0.6740,0.2490*
1,1,0.3052,0.6740,-0.2490*
%
%ADD59ROUNDEDRECTD59*%
%ADD60R,1.2032X1.2032*%
%ADD61R,2.1032X2.1032*%
%ADD62C,2.1032*%
%ADD63R,1.9032X1.9032*%
%ADD64C,1.9032*%
%ADD65C,4.2032*%
%ADD66C,6.2032*%
%ADD67R,1.8032X1.8032*%
%ADD68C,1.8032*%
%ADD69C,1.2032*%
%ADD70R,1.3032X1.3032*%
%ADD71C,1.3032*%
%ADD72C,5.0032*%
%ADD73C,1.7032*%
%ADD74R,1.7032X1.7032*%
D18*
X255800Y444170D02*
Y752170D01*
D32*
X1122770Y664000D02*
D03*
X1102270D02*
D03*
X1112520Y644100D02*
D03*
X1087210Y664000D02*
D03*
X1066710D02*
D03*
X1076960Y644100D02*
D03*
X1013550Y665270D02*
D03*
X993050D02*
D03*
X1003300Y645370D02*
D03*
X1229250Y732834D02*
D03*
X1208750D02*
D03*
X1219000Y712934D02*
D03*
X1194960Y732834D02*
D03*
X1174460D02*
D03*
X1184710Y712934D02*
D03*
X1160670Y732834D02*
D03*
X1140170D02*
D03*
X1150420Y712934D02*
D03*
X850810Y645370D02*
D03*
X871310D02*
D03*
X861060Y665270D02*
D03*
X885100Y645370D02*
D03*
X905600D02*
D03*
X895350Y665270D02*
D03*
X957490Y645370D02*
D03*
X977990D02*
D03*
X967740Y665270D02*
D03*
X1029880Y645370D02*
D03*
X1050380D02*
D03*
X1040130Y665270D02*
D03*
X1218348Y456140D02*
D03*
X1238848D02*
D03*
X1228598Y476040D02*
D03*
X1185328Y456394D02*
D03*
X1205828D02*
D03*
X1195578Y476294D02*
D03*
X1207516Y534416D02*
D03*
X1187016D02*
D03*
X1197266Y514516D02*
D03*
X1241642Y534460D02*
D03*
X1221142D02*
D03*
X1231392Y514560D02*
D03*
X1205394Y288500D02*
D03*
X1225894D02*
D03*
X1215644Y308400D02*
D03*
X1172374Y288500D02*
D03*
X1192874D02*
D03*
X1182624Y308400D02*
D03*
X1205574Y365550D02*
D03*
X1185074D02*
D03*
X1195324Y345650D02*
D03*
X1238594Y365550D02*
D03*
X1218094D02*
D03*
X1228344Y345650D02*
D03*
X414110Y533444D02*
D03*
X393610D02*
D03*
X403860Y513544D02*
D03*
X950648Y578358D02*
D03*
X930148D02*
D03*
X940398Y558458D02*
D03*
X1074002Y570274D02*
D03*
X1053502D02*
D03*
X1063752Y550374D02*
D03*
D38*
X814788Y569304D02*
D03*
Y548804D02*
D03*
X834688Y559054D02*
D03*
D41*
X1256030Y307498D02*
D03*
Y295498D02*
D03*
D42*
X471018Y791764D02*
D03*
X461518D02*
D03*
X452018D02*
D03*
Y765764D02*
D03*
X471018D02*
D03*
D43*
X637162Y777494D02*
D03*
X584162D02*
D03*
D44*
X597662D02*
D03*
X604162D02*
D03*
X610662D02*
D03*
X617162D02*
D03*
X623662D02*
D03*
D45*
X623918Y744982D02*
D03*
X603918D02*
D03*
X519016Y752856D02*
D03*
X499016D02*
D03*
D46*
X683514Y781930D02*
D03*
Y764930D02*
D03*
X535940Y777866D02*
D03*
Y760866D02*
D03*
X519430Y682380D02*
D03*
Y699380D02*
D03*
X1239520Y309998D02*
D03*
Y292998D02*
D03*
X1106170Y624450D02*
D03*
Y607450D02*
D03*
X1070610Y624450D02*
D03*
Y607450D02*
D03*
X1122680Y624450D02*
D03*
Y607450D02*
D03*
X1087120Y624450D02*
D03*
Y607450D02*
D03*
X996950Y607450D02*
D03*
Y624450D02*
D03*
X1013460Y607450D02*
D03*
Y624450D02*
D03*
X834390Y679060D02*
D03*
Y662060D02*
D03*
X816610Y679060D02*
D03*
Y662060D02*
D03*
X800100Y679060D02*
D03*
Y662060D02*
D03*
X783590Y679060D02*
D03*
Y662060D02*
D03*
X767080Y679060D02*
D03*
Y662060D02*
D03*
X734060Y679060D02*
D03*
Y662060D02*
D03*
X750570Y679060D02*
D03*
Y662060D02*
D03*
X1141730Y697348D02*
D03*
Y680348D02*
D03*
X850900Y608720D02*
D03*
Y625720D02*
D03*
X885190Y608720D02*
D03*
Y625720D02*
D03*
X980186Y607450D02*
D03*
Y624450D02*
D03*
X1029970Y607450D02*
D03*
Y624450D02*
D03*
X1256030Y569840D02*
D03*
Y552840D02*
D03*
Y682870D02*
D03*
Y665870D02*
D03*
Y795900D02*
D03*
Y778900D02*
D03*
D47*
X513588Y807306D02*
D03*
Y787306D02*
D03*
D48*
X1230494Y693166D02*
D03*
X1213494D02*
D03*
X1180220D02*
D03*
X1197220D02*
D03*
X1143898Y753872D02*
D03*
X1160898D02*
D03*
X1178188D02*
D03*
X1195188D02*
D03*
X1213748D02*
D03*
X1230748D02*
D03*
X1269610Y472440D02*
D03*
X1252610D02*
D03*
X1219590Y436880D02*
D03*
X1236590D02*
D03*
X1269610Y454660D02*
D03*
X1252610D02*
D03*
X1186570Y436880D02*
D03*
X1203570D02*
D03*
X1269610D02*
D03*
X1252610D02*
D03*
X1207544Y553438D02*
D03*
X1190544D02*
D03*
X1269610Y419100D02*
D03*
X1252610D02*
D03*
X1240564Y553438D02*
D03*
X1223564D02*
D03*
X1269610Y401320D02*
D03*
X1252610D02*
D03*
X1206010Y270764D02*
D03*
X1223010D02*
D03*
X1269610Y383540D02*
D03*
X1252610D02*
D03*
X1173870Y270764D02*
D03*
X1190870D02*
D03*
X1269610Y365760D02*
D03*
X1252610D02*
D03*
X1203198Y384810D02*
D03*
X1186198D02*
D03*
X1269610Y347980D02*
D03*
X1252610D02*
D03*
X1236590Y385064D02*
D03*
X1219590D02*
D03*
X432190Y556260D02*
D03*
X449190D02*
D03*
X559680Y561340D02*
D03*
X542680D02*
D03*
X689220Y562610D02*
D03*
X672220D02*
D03*
X780678Y554990D02*
D03*
X797678D02*
D03*
X950332Y596138D02*
D03*
X933332D02*
D03*
X1073776Y591058D02*
D03*
X1056776D02*
D03*
D49*
X683514Y794140D02*
D03*
Y811140D02*
D03*
X535940Y795410D02*
D03*
Y812410D02*
D03*
X419354Y305680D02*
D03*
Y288680D02*
D03*
X548640Y305680D02*
D03*
Y288680D02*
D03*
X677164Y305680D02*
D03*
Y288680D02*
D03*
X806196Y305680D02*
D03*
Y288680D02*
D03*
X938022Y305680D02*
D03*
Y288680D02*
D03*
X1060196Y305680D02*
D03*
Y288680D02*
D03*
D50*
X491998Y770589D02*
D03*
D51*
Y804211D02*
D03*
D52*
X488660Y731200D02*
D03*
Y691200D02*
D03*
X420660D02*
D03*
Y731200D02*
D03*
D53*
X519430Y715900D02*
D03*
Y731900D02*
D03*
X717550Y635380D02*
D03*
Y619380D02*
D03*
X1256030Y533780D02*
D03*
Y517780D02*
D03*
Y646810D02*
D03*
Y630810D02*
D03*
Y759840D02*
D03*
Y743840D02*
D03*
X509270Y615570D02*
D03*
Y631570D02*
D03*
Y647320D02*
D03*
Y663320D02*
D03*
X415290Y566800D02*
D03*
Y550800D02*
D03*
D54*
X822960Y635850D02*
D03*
X810260D02*
D03*
X797560D02*
D03*
X784860D02*
D03*
X772160D02*
D03*
X759460D02*
D03*
X746760D02*
D03*
X734060D02*
D03*
X822960Y583350D02*
D03*
X810260D02*
D03*
X797560D02*
D03*
X784860D02*
D03*
X772160D02*
D03*
X759460D02*
D03*
X746760D02*
D03*
X734060D02*
D03*
D55*
X1283090Y472440D02*
D03*
X1300090D02*
D03*
X1283090Y454660D02*
D03*
X1300090D02*
D03*
X1283090Y436880D02*
D03*
X1300090D02*
D03*
X1283090Y419100D02*
D03*
X1300090D02*
D03*
X1283090Y401320D02*
D03*
X1300090D02*
D03*
X1283090Y383540D02*
D03*
X1300090D02*
D03*
X1283090Y365760D02*
D03*
X1300090D02*
D03*
X1283090Y347980D02*
D03*
X1300090D02*
D03*
D56*
X469599Y556260D02*
D03*
X595329Y562610D02*
D03*
X728679Y561340D02*
D03*
X858219Y562610D02*
D03*
X987759D02*
D03*
X1109679D02*
D03*
D57*
X503221Y556260D02*
D03*
X628951Y562610D02*
D03*
X762301Y561340D02*
D03*
X891841Y562610D02*
D03*
X1021381D02*
D03*
X1143301D02*
D03*
D58*
X1316670Y509560D02*
D03*
X1276670D02*
D03*
Y577560D02*
D03*
X1316670D02*
D03*
Y622590D02*
D03*
X1276670D02*
D03*
Y690590D02*
D03*
X1316670D02*
D03*
Y735620D02*
D03*
X1276670D02*
D03*
Y803620D02*
D03*
X1316670D02*
D03*
D59*
X475560Y580390D02*
D03*
Y593090D02*
D03*
Y605790D02*
D03*
Y618490D02*
D03*
Y631190D02*
D03*
Y643890D02*
D03*
Y656590D02*
D03*
Y669290D02*
D03*
X421060Y580390D02*
D03*
Y593090D02*
D03*
Y605790D02*
D03*
Y618490D02*
D03*
Y631190D02*
D03*
Y643890D02*
D03*
Y656590D02*
D03*
Y669290D02*
D03*
D60*
X510920Y575310D02*
D03*
X494920D02*
D03*
X494920Y593090D02*
D03*
X510920D02*
D03*
D61*
X650240Y527304D02*
D03*
X1163574Y527558D02*
D03*
X1038352Y528320D02*
D03*
X907542Y528066D02*
D03*
X779526Y528320D02*
D03*
X521970Y528574D02*
D03*
D62*
X574040Y349504D02*
D03*
Y425704D02*
D03*
Y527304D02*
D03*
X1087374Y349758D02*
D03*
Y425958D02*
D03*
Y527558D02*
D03*
X962152Y350520D02*
D03*
Y426720D02*
D03*
Y528320D02*
D03*
X831342Y350266D02*
D03*
Y426466D02*
D03*
Y528066D02*
D03*
X703326Y350520D02*
D03*
Y426720D02*
D03*
Y528320D02*
D03*
X445770Y350774D02*
D03*
Y426974D02*
D03*
Y528574D02*
D03*
X661912Y814494D02*
D03*
X559412D02*
D03*
X661912Y777494D02*
D03*
X559412D02*
D03*
D63*
X852170Y302720D02*
D03*
X464820D02*
D03*
X594360Y302260D02*
D03*
X723190Y302720D02*
D03*
X983540D02*
D03*
X1105460D02*
D03*
D64*
X887170D02*
D03*
X499820D02*
D03*
X629360Y302260D02*
D03*
X758190Y302720D02*
D03*
X1018540D02*
D03*
X1140460D02*
D03*
D65*
X1225042Y792734D02*
D03*
D66*
X1305306Y302260D02*
D03*
X350000Y299720D02*
D03*
Y787400D02*
D03*
D67*
X711200Y807720D02*
D03*
X294640Y330200D02*
D03*
X370840Y355600D02*
D03*
D68*
X711200Y782320D02*
D03*
Y756920D02*
D03*
Y731520D02*
D03*
Y706120D02*
D03*
Y680720D02*
D03*
X294640Y406400D02*
D03*
Y381000D02*
D03*
Y355600D02*
D03*
X345440Y406400D02*
D03*
X370840D02*
D03*
X345440Y381000D02*
D03*
X370840D02*
D03*
X345440Y355600D02*
D03*
D69*
X1207570Y628650D02*
D03*
X1195070D02*
D03*
X1182570D02*
D03*
X1170070D02*
D03*
D70*
X840740Y704850D02*
D03*
D71*
X866140D02*
D03*
X891540D02*
D03*
X916940D02*
D03*
X942340D02*
D03*
X967740D02*
D03*
X993140D02*
D03*
X1018540D02*
D03*
Y806450D02*
D03*
X993140D02*
D03*
X967740D02*
D03*
X942340D02*
D03*
X916940D02*
D03*
X891540D02*
D03*
X866140D02*
D03*
X840740D02*
D03*
D72*
X350000Y473170D02*
D03*
Y723170D02*
D03*
D73*
X335800Y639720D02*
D03*
Y612020D02*
D03*
Y584320D02*
D03*
Y556620D02*
D03*
X364200Y570470D02*
D03*
Y653570D02*
D03*
Y625870D02*
D03*
Y598170D02*
D03*
D74*
Y542770D02*
D03*
M02*
