%TF.GenerationSoftware,Altium Limited,Altium NEXUS,2.1.9 (83)*%
G04 Layer_Color=255*
%FSLAX44Y44*%
%MOMM*%
%TF.FileFunction,Pads,Bot*%
%TF.Part,Single*%
G01*
G75*
%TA.AperFunction,SMDPad,CuDef*%
%ADD15R,1.0000X0.9000*%
%ADD16R,1.4000X1.0000*%
%ADD22R,1.0000X1.0000*%
%ADD23R,0.6100X1.6100*%
%ADD32R,1.0000X1.0000*%
%TA.AperFunction,ComponentPad*%
%ADD40R,1.9000X1.9000*%
%ADD41C,1.9000*%
%ADD42R,1.7000X1.7000*%
%ADD43C,1.7000*%
%TA.AperFunction,ViaPad*%
%ADD44C,4.0000*%
%ADD45C,6.0000*%
%TA.AperFunction,ComponentPad*%
%ADD46R,1.6000X1.6000*%
%ADD47C,1.6000*%
%ADD48C,1.0000*%
%ADD49R,1.1000X1.1000*%
%ADD50C,1.1000*%
%ADD51C,4.8000*%
%ADD52C,1.5000*%
%ADD53R,1.5000X1.5000*%
%TA.AperFunction,SMDPad,CuDef*%
%ADD55R,3.0000X3.0000*%
%ADD56R,1.1500X1.4000*%
G04:AMPARAMS|DCode=57|XSize=1.4mm|YSize=1.15mm|CornerRadius=0mm|HoleSize=0mm|Usage=FLASHONLY|Rotation=270.000|XOffset=0mm|YOffset=0mm|HoleType=Round|Shape=Octagon|*
%AMOCTAGOND57*
4,1,8,-0.2875,-0.7000,0.2875,-0.7000,0.5750,-0.4125,0.5750,0.4125,0.2875,0.7000,-0.2875,0.7000,-0.5750,0.4125,-0.5750,-0.4125,-0.2875,-0.7000,0.0*
%
%ADD57OCTAGOND57*%

%ADD58R,1.2000X1.4000*%
%ADD59R,0.9000X0.8000*%
%ADD60O,1.5500X0.2500*%
%ADD61O,0.2500X1.5500*%
D15*
X1060450Y288680D02*
D03*
Y305680D02*
D03*
X937768Y288680D02*
D03*
Y305680D02*
D03*
X806196Y288680D02*
D03*
Y305680D02*
D03*
X548894Y288680D02*
D03*
Y305680D02*
D03*
X419100Y288680D02*
D03*
Y305680D02*
D03*
X676910Y288680D02*
D03*
Y305680D02*
D03*
X617220Y715400D02*
D03*
Y732400D02*
D03*
D16*
X651510Y732470D02*
D03*
Y712470D02*
D03*
X737870Y605630D02*
D03*
Y585630D02*
D03*
D22*
X547370Y510160D02*
D03*
Y526160D02*
D03*
X509270Y692530D02*
D03*
Y676530D02*
D03*
X688340Y616840D02*
D03*
Y632840D02*
D03*
X704850Y583820D02*
D03*
Y599820D02*
D03*
X688340Y583820D02*
D03*
Y599820D02*
D03*
X633730Y548260D02*
D03*
Y564260D02*
D03*
X632460Y712090D02*
D03*
Y728090D02*
D03*
D23*
X663866Y439078D02*
D03*
X674116Y458978D02*
D03*
X653616D02*
D03*
X547370Y458172D02*
D03*
X557620Y478072D02*
D03*
X537120D02*
D03*
D32*
X552450Y730250D02*
D03*
X529464Y545338D02*
D03*
X545464D02*
D03*
X687450Y685800D02*
D03*
X671450D02*
D03*
X543940Y563880D02*
D03*
X527940D02*
D03*
X752220Y657860D02*
D03*
X736220D02*
D03*
D40*
X650240Y527304D02*
D03*
X1163574Y527558D02*
D03*
X1038352Y528320D02*
D03*
X907542Y528066D02*
D03*
X779526Y528320D02*
D03*
X521970Y528574D02*
D03*
D41*
X574040Y349504D02*
D03*
Y425704D02*
D03*
Y527304D02*
D03*
X1087374Y349758D02*
D03*
Y425958D02*
D03*
Y527558D02*
D03*
X962152Y350520D02*
D03*
Y426720D02*
D03*
Y528320D02*
D03*
X831342Y350266D02*
D03*
Y426466D02*
D03*
Y528066D02*
D03*
X703326Y350520D02*
D03*
Y426720D02*
D03*
Y528320D02*
D03*
X445770Y350774D02*
D03*
Y426974D02*
D03*
Y528574D02*
D03*
X661912Y814494D02*
D03*
X559412D02*
D03*
X661912Y777494D02*
D03*
X559412D02*
D03*
D42*
X852170Y302720D02*
D03*
X464820D02*
D03*
X594360Y302260D02*
D03*
X723190Y302720D02*
D03*
X983540D02*
D03*
X1105460D02*
D03*
D43*
X887170D02*
D03*
X499820D02*
D03*
X629360Y302260D02*
D03*
X758190Y302720D02*
D03*
X1018540D02*
D03*
X1140460D02*
D03*
D44*
X1225042Y792734D02*
D03*
D45*
X1305306Y302260D02*
D03*
X350000Y299720D02*
D03*
Y787400D02*
D03*
D46*
X711200Y807720D02*
D03*
X294640Y330200D02*
D03*
X370840Y355600D02*
D03*
D47*
X711200Y782320D02*
D03*
Y756920D02*
D03*
Y731520D02*
D03*
Y706120D02*
D03*
Y680720D02*
D03*
X294640Y406400D02*
D03*
Y381000D02*
D03*
Y355600D02*
D03*
X345440Y406400D02*
D03*
X370840D02*
D03*
X345440Y381000D02*
D03*
X370840D02*
D03*
X345440Y355600D02*
D03*
D48*
X1207570Y628650D02*
D03*
X1195070D02*
D03*
X1182570D02*
D03*
X1170070D02*
D03*
D49*
X840740Y704850D02*
D03*
D50*
X866140D02*
D03*
X891540D02*
D03*
X916940D02*
D03*
X942340D02*
D03*
X967740D02*
D03*
X993140D02*
D03*
X1018540D02*
D03*
Y806450D02*
D03*
X993140D02*
D03*
X967740D02*
D03*
X942340D02*
D03*
X916940D02*
D03*
X891540D02*
D03*
X866140D02*
D03*
X840740D02*
D03*
D51*
X350000Y473170D02*
D03*
Y723170D02*
D03*
D52*
X335800Y639720D02*
D03*
Y612020D02*
D03*
Y584320D02*
D03*
Y556620D02*
D03*
X364200Y570470D02*
D03*
Y653570D02*
D03*
Y625870D02*
D03*
Y598170D02*
D03*
D53*
Y542770D02*
D03*
D55*
X1246632Y337566D02*
D03*
X744220Y632460D02*
D03*
D56*
X704470Y651080D02*
D03*
X720470Y629080D02*
D03*
Y651080D02*
D03*
D57*
X704470Y629080D02*
D03*
D58*
X688450Y651510D02*
D03*
X670450D02*
D03*
D59*
X720090Y584820D02*
D03*
Y598820D02*
D03*
D60*
X639450Y676310D02*
D03*
Y671310D02*
D03*
Y666310D02*
D03*
Y661310D02*
D03*
Y656310D02*
D03*
Y651310D02*
D03*
Y646310D02*
D03*
Y641310D02*
D03*
Y636310D02*
D03*
Y631310D02*
D03*
Y626310D02*
D03*
Y621310D02*
D03*
Y616310D02*
D03*
Y611310D02*
D03*
Y606310D02*
D03*
Y601310D02*
D03*
X528950D02*
D03*
Y606310D02*
D03*
Y611310D02*
D03*
Y616310D02*
D03*
Y621310D02*
D03*
Y626310D02*
D03*
Y631310D02*
D03*
Y636310D02*
D03*
Y641310D02*
D03*
Y646310D02*
D03*
Y651310D02*
D03*
Y656310D02*
D03*
Y661310D02*
D03*
Y666310D02*
D03*
Y671310D02*
D03*
Y676310D02*
D03*
D61*
X621700Y583560D02*
D03*
X616700D02*
D03*
X611700D02*
D03*
X606700D02*
D03*
X601700D02*
D03*
X596700D02*
D03*
X591700D02*
D03*
X586700D02*
D03*
X581700D02*
D03*
X576700D02*
D03*
X571700D02*
D03*
X566700D02*
D03*
X561700D02*
D03*
X556700D02*
D03*
X551700D02*
D03*
X546700D02*
D03*
Y694060D02*
D03*
X551700D02*
D03*
X556700D02*
D03*
X561700D02*
D03*
X566700D02*
D03*
X571700D02*
D03*
X576700D02*
D03*
X581700D02*
D03*
X586700D02*
D03*
X591700D02*
D03*
X596700D02*
D03*
X601700D02*
D03*
X606700D02*
D03*
X611700D02*
D03*
X616700D02*
D03*
X621700D02*
D03*
%TF.MD5,62339fbff779c07eb0a7f5c1c6342517*%
M02*
