%TF.GenerationSoftware,Altium Limited,Altium NEXUS,2.1.9 (83)*%
G04 Layer_Color=16711935*
%FSLAX44Y44*%
%MOMM*%
%TF.FileFunction,Soldermask,Bot*%
%TF.Part,Single*%
G01*
G75*
%TA.AperFunction,SMDPad,CuDef*%
%ADD23R,0.6100X1.6100*%
%ADD75R,1.2032X1.1032*%
%ADD76R,1.6032X1.2032*%
%ADD82R,1.2032X1.2032*%
%ADD90R,1.2032X1.2032*%
%TA.AperFunction,ComponentPad*%
%ADD91R,2.1032X2.1032*%
%ADD92C,2.1032*%
%ADD93R,1.9032X1.9032*%
%ADD94C,1.9032*%
%TA.AperFunction,ViaPad*%
%ADD95C,4.2032*%
%ADD96C,6.2032*%
%TA.AperFunction,ComponentPad*%
%ADD97R,1.8032X1.8032*%
%ADD98C,1.8032*%
%ADD99C,1.2032*%
%ADD100R,1.3032X1.3032*%
%ADD101C,1.3032*%
%ADD102C,5.0032*%
%ADD103C,1.7032*%
%ADD104R,1.7032X1.7032*%
%TA.AperFunction,SMDPad,CuDef*%
%ADD105R,3.2032X3.2032*%
%ADD106R,1.3532X1.6032*%
G04:AMPARAMS|DCode=107|XSize=1.6032mm|YSize=1.3532mm|CornerRadius=0mm|HoleSize=0mm|Usage=FLASHONLY|Rotation=270.000|XOffset=0mm|YOffset=0mm|HoleType=Round|Shape=Octagon|*
%AMOCTAGOND107*
4,1,8,-0.3383,-0.8016,0.3383,-0.8016,0.6766,-0.4633,0.6766,0.4633,0.3383,0.8016,-0.3383,0.8016,-0.6766,0.4633,-0.6766,-0.4633,-0.3383,-0.8016,0.0*
%
%ADD107OCTAGOND107*%

%ADD108R,1.4032X1.6032*%
%ADD109R,1.1032X1.0032*%
%ADD110O,1.7532X0.4532*%
%ADD111O,0.4532X1.7532*%
D23*
X663866Y439078D02*
D03*
X674116Y458978D02*
D03*
X653616D02*
D03*
X547370Y458172D02*
D03*
X557620Y478072D02*
D03*
X537120D02*
D03*
D75*
X1060450Y288680D02*
D03*
Y305680D02*
D03*
X937768Y288680D02*
D03*
Y305680D02*
D03*
X806196Y288680D02*
D03*
Y305680D02*
D03*
X548894Y288680D02*
D03*
Y305680D02*
D03*
X419100Y288680D02*
D03*
Y305680D02*
D03*
X676910Y288680D02*
D03*
Y305680D02*
D03*
X617220Y715400D02*
D03*
Y732400D02*
D03*
D76*
X651510Y732470D02*
D03*
Y712470D02*
D03*
X737870Y605630D02*
D03*
Y585630D02*
D03*
D82*
X547370Y510160D02*
D03*
Y526160D02*
D03*
X509270Y692530D02*
D03*
Y676530D02*
D03*
X688340Y616840D02*
D03*
Y632840D02*
D03*
X704850Y583820D02*
D03*
Y599820D02*
D03*
X688340Y583820D02*
D03*
Y599820D02*
D03*
X633730Y548260D02*
D03*
Y564260D02*
D03*
X632460Y712090D02*
D03*
Y728090D02*
D03*
D90*
X552450Y730250D02*
D03*
X529464Y545338D02*
D03*
X545464D02*
D03*
X687450Y685800D02*
D03*
X671450D02*
D03*
X543940Y563880D02*
D03*
X527940D02*
D03*
X752220Y657860D02*
D03*
X736220D02*
D03*
D91*
X650240Y527304D02*
D03*
X1163574Y527558D02*
D03*
X1038352Y528320D02*
D03*
X907542Y528066D02*
D03*
X779526Y528320D02*
D03*
X521970Y528574D02*
D03*
D92*
X574040Y349504D02*
D03*
Y425704D02*
D03*
Y527304D02*
D03*
X1087374Y349758D02*
D03*
Y425958D02*
D03*
Y527558D02*
D03*
X962152Y350520D02*
D03*
Y426720D02*
D03*
Y528320D02*
D03*
X831342Y350266D02*
D03*
Y426466D02*
D03*
Y528066D02*
D03*
X703326Y350520D02*
D03*
Y426720D02*
D03*
Y528320D02*
D03*
X445770Y350774D02*
D03*
Y426974D02*
D03*
Y528574D02*
D03*
X661912Y814494D02*
D03*
X559412D02*
D03*
X661912Y777494D02*
D03*
X559412D02*
D03*
D93*
X852170Y302720D02*
D03*
X464820D02*
D03*
X594360Y302260D02*
D03*
X723190Y302720D02*
D03*
X983540D02*
D03*
X1105460D02*
D03*
D94*
X887170D02*
D03*
X499820D02*
D03*
X629360Y302260D02*
D03*
X758190Y302720D02*
D03*
X1018540D02*
D03*
X1140460D02*
D03*
D95*
X1225042Y792734D02*
D03*
D96*
X1305306Y302260D02*
D03*
X350000Y299720D02*
D03*
Y787400D02*
D03*
D97*
X711200Y807720D02*
D03*
X294640Y330200D02*
D03*
X370840Y355600D02*
D03*
D98*
X711200Y782320D02*
D03*
Y756920D02*
D03*
Y731520D02*
D03*
Y706120D02*
D03*
Y680720D02*
D03*
X294640Y406400D02*
D03*
Y381000D02*
D03*
Y355600D02*
D03*
X345440Y406400D02*
D03*
X370840D02*
D03*
X345440Y381000D02*
D03*
X370840D02*
D03*
X345440Y355600D02*
D03*
D99*
X1207570Y628650D02*
D03*
X1195070D02*
D03*
X1182570D02*
D03*
X1170070D02*
D03*
D100*
X840740Y704850D02*
D03*
D101*
X866140D02*
D03*
X891540D02*
D03*
X916940D02*
D03*
X942340D02*
D03*
X967740D02*
D03*
X993140D02*
D03*
X1018540D02*
D03*
Y806450D02*
D03*
X993140D02*
D03*
X967740D02*
D03*
X942340D02*
D03*
X916940D02*
D03*
X891540D02*
D03*
X866140D02*
D03*
X840740D02*
D03*
D102*
X350000Y473170D02*
D03*
Y723170D02*
D03*
D103*
X335800Y639720D02*
D03*
Y612020D02*
D03*
Y584320D02*
D03*
Y556620D02*
D03*
X364200Y570470D02*
D03*
Y653570D02*
D03*
Y625870D02*
D03*
Y598170D02*
D03*
D104*
Y542770D02*
D03*
D105*
X1246632Y337566D02*
D03*
X744220Y632460D02*
D03*
D106*
X704470Y651080D02*
D03*
X720470Y629080D02*
D03*
Y651080D02*
D03*
D107*
X704470Y629080D02*
D03*
D108*
X688450Y651510D02*
D03*
X670450D02*
D03*
D109*
X720090Y584820D02*
D03*
Y598820D02*
D03*
D110*
X639450Y676310D02*
D03*
Y671310D02*
D03*
Y666310D02*
D03*
Y661310D02*
D03*
Y656310D02*
D03*
Y651310D02*
D03*
Y646310D02*
D03*
Y641310D02*
D03*
Y636310D02*
D03*
Y631310D02*
D03*
Y626310D02*
D03*
Y621310D02*
D03*
Y616310D02*
D03*
Y611310D02*
D03*
Y606310D02*
D03*
Y601310D02*
D03*
X528950D02*
D03*
Y606310D02*
D03*
Y611310D02*
D03*
Y616310D02*
D03*
Y621310D02*
D03*
Y626310D02*
D03*
Y631310D02*
D03*
Y636310D02*
D03*
Y641310D02*
D03*
Y646310D02*
D03*
Y651310D02*
D03*
Y656310D02*
D03*
Y661310D02*
D03*
Y666310D02*
D03*
Y671310D02*
D03*
Y676310D02*
D03*
D111*
X621700Y583560D02*
D03*
X616700D02*
D03*
X611700D02*
D03*
X606700D02*
D03*
X601700D02*
D03*
X596700D02*
D03*
X591700D02*
D03*
X586700D02*
D03*
X581700D02*
D03*
X576700D02*
D03*
X571700D02*
D03*
X566700D02*
D03*
X561700D02*
D03*
X556700D02*
D03*
X551700D02*
D03*
X546700D02*
D03*
Y694060D02*
D03*
X551700D02*
D03*
X556700D02*
D03*
X561700D02*
D03*
X566700D02*
D03*
X571700D02*
D03*
X576700D02*
D03*
X581700D02*
D03*
X586700D02*
D03*
X591700D02*
D03*
X596700D02*
D03*
X601700D02*
D03*
X606700D02*
D03*
X611700D02*
D03*
X616700D02*
D03*
X621700D02*
D03*
%TF.MD5,560ca64aa6776571c8a36dd6e0c509bf*%
M02*
