%TF.GenerationSoftware,Altium Limited,Altium NEXUS,2.1.9 (83)*%
G04 Layer_Color=8421504*
%FSLAX44Y44*%
%MOMM*%
%TF.FileFunction,Paste,Top*%
%TF.Part,Single*%
G01*
G75*
%TA.AperFunction,SMDPad,CuDef*%
%ADD10R,0.7000X0.8000*%
%ADD11R,0.6600X1.0000*%
%TA.AperFunction,ConnectorPad*%
%ADD12R,1.1000X2.3500*%
%ADD13R,0.4000X2.3500*%
%TA.AperFunction,SMDPad,CuDef*%
%ADD14R,1.0000X1.4000*%
%ADD15R,1.0000X0.9000*%
%ADD16R,1.4000X1.0000*%
%ADD17R,0.9000X1.0000*%
%ADD18R,1.0000X1.1000*%
%ADD19R,1.0000X1.2200*%
G04:AMPARAMS|DCode=20|XSize=1mm|YSize=1.22mm|CornerRadius=0mm|HoleSize=0mm|Usage=FLASHONLY|Rotation=0.000|XOffset=0mm|YOffset=0mm|HoleType=Round|Shape=Octagon|*
%AMOCTAGOND20*
4,1,8,-0.2500,0.6100,0.2500,0.6100,0.5000,0.3600,0.5000,-0.3600,0.2500,-0.6100,-0.2500,-0.6100,-0.5000,-0.3600,-0.5000,0.3600,-0.2500,0.6100,0.0*
%
%ADD20OCTAGOND20*%

%ADD21R,3.2000X1.0000*%
%ADD22R,1.0000X1.0000*%
%ADD23R,0.6100X1.6100*%
G04:AMPARAMS|DCode=24|XSize=0.55mm|YSize=1.25mm|CornerRadius=0.0495mm|HoleSize=0mm|Usage=FLASHONLY|Rotation=180.000|XOffset=0mm|YOffset=0mm|HoleType=Round|Shape=RoundedRectangle|*
%AMROUNDEDRECTD24*
21,1,0.5500,1.1510,0,0,180.0*
21,1,0.4510,1.2500,0,0,180.0*
1,1,0.0990,-0.2255,0.5755*
1,1,0.0990,0.2255,0.5755*
1,1,0.0990,0.2255,-0.5755*
1,1,0.0990,-0.2255,-0.5755*
%
%ADD24ROUNDEDRECTD24*%
%ADD25R,1.1000X1.0000*%
%ADD26R,1.2200X1.0000*%
G04:AMPARAMS|DCode=27|XSize=1mm|YSize=1.22mm|CornerRadius=0mm|HoleSize=0mm|Usage=FLASHONLY|Rotation=270.000|XOffset=0mm|YOffset=0mm|HoleType=Round|Shape=Octagon|*
%AMOCTAGOND27*
4,1,8,0.6100,0.2500,0.6100,-0.2500,0.3600,-0.5000,-0.3600,-0.5000,-0.6100,-0.2500,-0.6100,0.2500,-0.3600,0.5000,0.3600,0.5000,0.6100,0.2500,0.0*
%
%ADD27OCTAGOND27*%

%ADD28R,1.0000X3.2000*%
%TA.AperFunction,ConnectorPad*%
%ADD29R,1.0000X3.2000*%
%TA.AperFunction,SMDPad,CuDef*%
%ADD30R,1.6100X0.6100*%
G04:AMPARAMS|DCode=31|XSize=0.6mm|YSize=1.45mm|CornerRadius=0.051mm|HoleSize=0mm|Usage=FLASHONLY|Rotation=270.000|XOffset=0mm|YOffset=0mm|HoleType=Round|Shape=RoundedRectangle|*
%AMROUNDEDRECTD31*
21,1,0.6000,1.3480,0,0,270.0*
21,1,0.4980,1.4500,0,0,270.0*
1,1,0.1020,-0.6740,-0.2490*
1,1,0.1020,-0.6740,0.2490*
1,1,0.1020,0.6740,0.2490*
1,1,0.1020,0.6740,-0.2490*
%
%ADD31ROUNDEDRECTD31*%
%ADD32R,1.0000X1.0000*%
D10*
X1256030Y307498D02*
D03*
Y295498D02*
D03*
D11*
X471018Y791764D02*
D03*
X461518D02*
D03*
X452018D02*
D03*
Y765764D02*
D03*
X471018D02*
D03*
D12*
X637162Y777494D02*
D03*
X584162D02*
D03*
D13*
X597662D02*
D03*
X604162D02*
D03*
X610662D02*
D03*
X617162D02*
D03*
X623662D02*
D03*
D14*
X623918Y744982D02*
D03*
X603918D02*
D03*
X519016Y752856D02*
D03*
X499016D02*
D03*
D15*
X683514Y781930D02*
D03*
Y764930D02*
D03*
X535940Y777866D02*
D03*
Y760866D02*
D03*
X519430Y682380D02*
D03*
Y699380D02*
D03*
X1239520Y309998D02*
D03*
Y292998D02*
D03*
X1106170Y624450D02*
D03*
Y607450D02*
D03*
X1070610Y624450D02*
D03*
Y607450D02*
D03*
X1122680Y624450D02*
D03*
Y607450D02*
D03*
X1087120Y624450D02*
D03*
Y607450D02*
D03*
X996950Y607450D02*
D03*
Y624450D02*
D03*
X1013460Y607450D02*
D03*
Y624450D02*
D03*
X834390Y679060D02*
D03*
Y662060D02*
D03*
X816610Y679060D02*
D03*
Y662060D02*
D03*
X800100Y679060D02*
D03*
Y662060D02*
D03*
X783590Y679060D02*
D03*
Y662060D02*
D03*
X767080Y679060D02*
D03*
Y662060D02*
D03*
X734060Y679060D02*
D03*
Y662060D02*
D03*
X750570Y679060D02*
D03*
Y662060D02*
D03*
X1141730Y697348D02*
D03*
Y680348D02*
D03*
X850900Y608720D02*
D03*
Y625720D02*
D03*
X885190Y608720D02*
D03*
Y625720D02*
D03*
X980186Y607450D02*
D03*
Y624450D02*
D03*
X1029970Y607450D02*
D03*
Y624450D02*
D03*
X1256030Y569840D02*
D03*
Y552840D02*
D03*
Y682870D02*
D03*
Y665870D02*
D03*
Y795900D02*
D03*
Y778900D02*
D03*
D16*
X513588Y807306D02*
D03*
Y787306D02*
D03*
D17*
X1230494Y693166D02*
D03*
X1213494D02*
D03*
X1180220D02*
D03*
X1197220D02*
D03*
X1143898Y753872D02*
D03*
X1160898D02*
D03*
X1178188D02*
D03*
X1195188D02*
D03*
X1213748D02*
D03*
X1230748D02*
D03*
X1269610Y472440D02*
D03*
X1252610D02*
D03*
X1219590Y436880D02*
D03*
X1236590D02*
D03*
X1269610Y454660D02*
D03*
X1252610D02*
D03*
X1186570Y436880D02*
D03*
X1203570D02*
D03*
X1269610D02*
D03*
X1252610D02*
D03*
X1207544Y553438D02*
D03*
X1190544D02*
D03*
X1269610Y419100D02*
D03*
X1252610D02*
D03*
X1240564Y553438D02*
D03*
X1223564D02*
D03*
X1269610Y401320D02*
D03*
X1252610D02*
D03*
X1206010Y270764D02*
D03*
X1223010D02*
D03*
X1269610Y383540D02*
D03*
X1252610D02*
D03*
X1173870Y270764D02*
D03*
X1190870D02*
D03*
X1269610Y365760D02*
D03*
X1252610D02*
D03*
X1203198Y384810D02*
D03*
X1186198D02*
D03*
X1269610Y347980D02*
D03*
X1252610D02*
D03*
X1236590Y385064D02*
D03*
X1219590D02*
D03*
X432190Y556260D02*
D03*
X449190D02*
D03*
X559680Y561340D02*
D03*
X542680D02*
D03*
X689220Y562610D02*
D03*
X672220D02*
D03*
X780678Y554990D02*
D03*
X797678D02*
D03*
X950332Y596138D02*
D03*
X933332D02*
D03*
X1073776Y591058D02*
D03*
X1056776D02*
D03*
D18*
X683514Y794140D02*
D03*
Y811140D02*
D03*
X535940Y795410D02*
D03*
Y812410D02*
D03*
X419354Y305680D02*
D03*
Y288680D02*
D03*
X548640Y305680D02*
D03*
Y288680D02*
D03*
X677164Y305680D02*
D03*
Y288680D02*
D03*
X806196Y305680D02*
D03*
Y288680D02*
D03*
X938022Y305680D02*
D03*
Y288680D02*
D03*
X1060196Y305680D02*
D03*
Y288680D02*
D03*
D19*
X491998Y770589D02*
D03*
D20*
Y804211D02*
D03*
D21*
X488660Y731200D02*
D03*
Y691200D02*
D03*
X420660D02*
D03*
Y731200D02*
D03*
D22*
X519430Y715900D02*
D03*
Y731900D02*
D03*
X717550Y635380D02*
D03*
Y619380D02*
D03*
X1256030Y533780D02*
D03*
Y517780D02*
D03*
Y646810D02*
D03*
Y630810D02*
D03*
Y759840D02*
D03*
Y743840D02*
D03*
X509270Y615570D02*
D03*
Y631570D02*
D03*
Y647320D02*
D03*
Y663320D02*
D03*
X415290Y566800D02*
D03*
Y550800D02*
D03*
D23*
X1122770Y664000D02*
D03*
X1102270D02*
D03*
X1112520Y644100D02*
D03*
X1087210Y664000D02*
D03*
X1066710D02*
D03*
X1076960Y644100D02*
D03*
X1013550Y665270D02*
D03*
X993050D02*
D03*
X1003300Y645370D02*
D03*
X1229250Y732834D02*
D03*
X1208750D02*
D03*
X1219000Y712934D02*
D03*
X1194960Y732834D02*
D03*
X1174460D02*
D03*
X1184710Y712934D02*
D03*
X1160670Y732834D02*
D03*
X1140170D02*
D03*
X1150420Y712934D02*
D03*
X850810Y645370D02*
D03*
X871310D02*
D03*
X861060Y665270D02*
D03*
X885100Y645370D02*
D03*
X905600D02*
D03*
X895350Y665270D02*
D03*
X957490Y645370D02*
D03*
X977990D02*
D03*
X967740Y665270D02*
D03*
X1029880Y645370D02*
D03*
X1050380D02*
D03*
X1040130Y665270D02*
D03*
X1218348Y456140D02*
D03*
X1238848D02*
D03*
X1228598Y476040D02*
D03*
X1185328Y456394D02*
D03*
X1205828D02*
D03*
X1195578Y476294D02*
D03*
X1207516Y534416D02*
D03*
X1187016D02*
D03*
X1197266Y514516D02*
D03*
X1241642Y534460D02*
D03*
X1221142D02*
D03*
X1231392Y514560D02*
D03*
X1205394Y288500D02*
D03*
X1225894D02*
D03*
X1215644Y308400D02*
D03*
X1172374Y288500D02*
D03*
X1192874D02*
D03*
X1182624Y308400D02*
D03*
X1205574Y365550D02*
D03*
X1185074D02*
D03*
X1195324Y345650D02*
D03*
X1238594Y365550D02*
D03*
X1218094D02*
D03*
X1228344Y345650D02*
D03*
X414110Y533444D02*
D03*
X393610D02*
D03*
X403860Y513544D02*
D03*
X950648Y578358D02*
D03*
X930148D02*
D03*
X940398Y558458D02*
D03*
X1074002Y570274D02*
D03*
X1053502D02*
D03*
X1063752Y550374D02*
D03*
D24*
X822960Y635850D02*
D03*
X810260D02*
D03*
X797560D02*
D03*
X784860D02*
D03*
X772160D02*
D03*
X759460D02*
D03*
X746760D02*
D03*
X734060D02*
D03*
X822960Y583350D02*
D03*
X810260D02*
D03*
X797560D02*
D03*
X784860D02*
D03*
X772160D02*
D03*
X759460D02*
D03*
X746760D02*
D03*
X734060D02*
D03*
D25*
X1283090Y472440D02*
D03*
X1300090D02*
D03*
X1283090Y454660D02*
D03*
X1300090D02*
D03*
X1283090Y436880D02*
D03*
X1300090D02*
D03*
X1283090Y419100D02*
D03*
X1300090D02*
D03*
X1283090Y401320D02*
D03*
X1300090D02*
D03*
X1283090Y383540D02*
D03*
X1300090D02*
D03*
X1283090Y365760D02*
D03*
X1300090D02*
D03*
X1283090Y347980D02*
D03*
X1300090D02*
D03*
D26*
X469599Y556260D02*
D03*
X595329Y562610D02*
D03*
X728679Y561340D02*
D03*
X858219Y562610D02*
D03*
X987759D02*
D03*
X1109679D02*
D03*
D27*
X503221Y556260D02*
D03*
X628951Y562610D02*
D03*
X762301Y561340D02*
D03*
X891841Y562610D02*
D03*
X1021381D02*
D03*
X1143301D02*
D03*
D28*
X1316670Y509560D02*
D03*
X1276670D02*
D03*
Y577560D02*
D03*
X1316670D02*
D03*
Y622590D02*
D03*
X1276670D02*
D03*
Y690590D02*
D03*
X1316670D02*
D03*
D29*
Y735620D02*
D03*
X1276670D02*
D03*
Y803620D02*
D03*
X1316670D02*
D03*
D30*
X814788Y569304D02*
D03*
Y548804D02*
D03*
X834688Y559054D02*
D03*
D31*
X475560Y580390D02*
D03*
Y593090D02*
D03*
Y605790D02*
D03*
Y618490D02*
D03*
Y631190D02*
D03*
Y643890D02*
D03*
Y656590D02*
D03*
Y669290D02*
D03*
X421060Y580390D02*
D03*
Y593090D02*
D03*
Y605790D02*
D03*
Y618490D02*
D03*
Y631190D02*
D03*
Y643890D02*
D03*
Y656590D02*
D03*
Y669290D02*
D03*
D32*
X510920Y575310D02*
D03*
X494920D02*
D03*
X494920Y593090D02*
D03*
X510920D02*
D03*
%TF.MD5,c6b6c4551489408df7a142cda291bef4*%
M02*
