%TF.GenerationSoftware,Altium Limited,Altium NEXUS,2.1.9 (83)*%
G04 Layer_Color=32896*
%FSLAX44Y44*%
%MOMM*%
%TF.FileFunction,Legend,Bot*%
%TF.Part,Single*%
G01*
G75*
%TA.AperFunction,NonConductor*%
%ADD62C,0.2500*%
%ADD63C,0.2540*%
%ADD64C,0.6000*%
%ADD66C,0.2000*%
%ADD67C,0.1524*%
D62*
X640700Y683060D02*
G03*
X640700Y683060I-1250J0D01*
G01*
D63*
X1335027Y752330D02*
X1345184D01*
Y737094D01*
X1335027D01*
X1345184Y744712D02*
X1340106D01*
X1319792Y752330D02*
Y737094D01*
X1327410D01*
X1329949Y739634D01*
Y744712D01*
X1327410Y747251D01*
X1319792D01*
X1309635Y732016D02*
X1307096D01*
X1304557Y734555D01*
Y747251D01*
X1312175D01*
X1314714Y744712D01*
Y739634D01*
X1312175Y737094D01*
X1304557D01*
X1291861D02*
X1296940D01*
X1299479Y739634D01*
Y744712D01*
X1296940Y747251D01*
X1291861D01*
X1289322Y744712D01*
Y742173D01*
X1299479D01*
X1284244Y752330D02*
Y737094D01*
X1276626D01*
X1274087Y739634D01*
Y749790D01*
X1276626Y752330D01*
X1284244D01*
X1261391Y737094D02*
X1266469D01*
X1269009Y739634D01*
Y744712D01*
X1266469Y747251D01*
X1261391D01*
X1258852Y744712D01*
Y742173D01*
X1269009D01*
X1253774Y747251D02*
X1248695Y737094D01*
X1243617Y747251D01*
X1238539Y737094D02*
X1233460D01*
X1235999D01*
Y747251D01*
X1238539D01*
X1215686D02*
X1223303D01*
X1225843Y744712D01*
Y739634D01*
X1223303Y737094D01*
X1215686D01*
X1202990D02*
X1208068D01*
X1210608Y739634D01*
Y744712D01*
X1208068Y747251D01*
X1202990D01*
X1200451Y744712D01*
Y742173D01*
X1210608D01*
X1169981Y752330D02*
X1180137D01*
Y737094D01*
X1169981D01*
X1180137Y744712D02*
X1175059D01*
X1164902Y747251D02*
X1154746Y737094D01*
X1159824Y742173D01*
X1154746Y747251D01*
X1164902Y737094D01*
X1147128Y749790D02*
Y747251D01*
X1149667D01*
X1144589D01*
X1147128D01*
Y739634D01*
X1144589Y737094D01*
X1129354D02*
X1134432D01*
X1136971Y739634D01*
Y744712D01*
X1134432Y747251D01*
X1129354D01*
X1126815Y744712D01*
Y742173D01*
X1136971D01*
X1121736Y737094D02*
Y747251D01*
X1114119D01*
X1111580Y744712D01*
Y737094D01*
X1106501D02*
X1098884D01*
X1096345Y739634D01*
X1098884Y742173D01*
X1103962D01*
X1106501Y744712D01*
X1103962Y747251D01*
X1096345D01*
X1091266Y737094D02*
X1086188D01*
X1088727D01*
Y747251D01*
X1091266D01*
X1076031Y737094D02*
X1070953D01*
X1068413Y739634D01*
Y744712D01*
X1070953Y747251D01*
X1076031D01*
X1078570Y744712D01*
Y739634D01*
X1076031Y737094D01*
X1063335D02*
Y747251D01*
X1055718D01*
X1053178Y744712D01*
Y737094D01*
X1345184Y722873D02*
Y712716D01*
X1340106Y707638D01*
X1335027Y712716D01*
Y722873D01*
X1322331Y707638D02*
X1327410D01*
X1329949Y710177D01*
Y715256D01*
X1327410Y717795D01*
X1322331D01*
X1319792Y715256D01*
Y712716D01*
X1329949D01*
X1314714Y717795D02*
Y707638D01*
Y712716D01*
X1312175Y715256D01*
X1309635Y717795D01*
X1307096D01*
X1299479Y707638D02*
X1291861D01*
X1289322Y710177D01*
X1291861Y712716D01*
X1296940D01*
X1299479Y715256D01*
X1296940Y717795D01*
X1289322D01*
X1284244Y707638D02*
X1279165D01*
X1281705D01*
Y717795D01*
X1284244D01*
X1269009Y707638D02*
X1263930D01*
X1261391Y710177D01*
Y715256D01*
X1263930Y717795D01*
X1269009D01*
X1271548Y715256D01*
Y710177D01*
X1269009Y707638D01*
X1256313D02*
Y717795D01*
X1248695D01*
X1246156Y715256D01*
Y707638D01*
X1225843D02*
X1220764D01*
X1223303D01*
Y722873D01*
X1225843Y720334D01*
X1213147Y707638D02*
Y710177D01*
X1210608D01*
Y707638D01*
X1213147D01*
X1200451Y720334D02*
X1197912Y722873D01*
X1192833D01*
X1190294Y720334D01*
Y710177D01*
X1192833Y707638D01*
X1197912D01*
X1200451Y710177D01*
Y720334D01*
X1345184Y683260D02*
Y698495D01*
X1340106Y693417D01*
X1335027Y698495D01*
Y683260D01*
X1327410Y693417D02*
X1322331D01*
X1319792Y690878D01*
Y683260D01*
X1327410D01*
X1329949Y685799D01*
X1327410Y688338D01*
X1319792D01*
X1314714Y693417D02*
Y683260D01*
Y688338D01*
X1312175Y690878D01*
X1309635Y693417D01*
X1307096D01*
X1289322D02*
X1296940D01*
X1299479Y690878D01*
Y685799D01*
X1296940Y683260D01*
X1289322D01*
X1281705D02*
X1276626D01*
X1274087Y685799D01*
Y690878D01*
X1276626Y693417D01*
X1281705D01*
X1284244Y690878D01*
Y685799D01*
X1281705Y683260D01*
X1243617Y695956D02*
X1246156Y698495D01*
X1251234D01*
X1253774Y695956D01*
Y693417D01*
X1251234Y690878D01*
X1246156D01*
X1243617Y688338D01*
Y685799D01*
X1246156Y683260D01*
X1251234D01*
X1253774Y685799D01*
X1235999Y695956D02*
Y693417D01*
X1238539D01*
X1233460D01*
X1235999D01*
Y685799D01*
X1233460Y683260D01*
X1223303Y693417D02*
X1218225D01*
X1215686Y690878D01*
Y683260D01*
X1223303D01*
X1225843Y685799D01*
X1223303Y688338D01*
X1215686D01*
X1210608Y693417D02*
Y685799D01*
X1208068Y683260D01*
X1200451D01*
Y693417D01*
X1195372Y698495D02*
Y683260D01*
X1187755D01*
X1185216Y685799D01*
Y688338D01*
Y690878D01*
X1187755Y693417D01*
X1195372D01*
X1172520Y683260D02*
X1177598D01*
X1180137Y685799D01*
Y690878D01*
X1177598Y693417D01*
X1172520D01*
X1169981Y690878D01*
Y688338D01*
X1180137D01*
X1164902Y693417D02*
Y683260D01*
Y688338D01*
X1162363Y690878D01*
X1159824Y693417D01*
X1157285D01*
D64*
X620700Y672310D02*
G03*
X620700Y672310I-3000J0D01*
G01*
D66*
X1064260Y295910D02*
Y298450D01*
X1056640Y295910D02*
Y298450D01*
X941578Y295910D02*
Y298450D01*
X933958Y295910D02*
Y298450D01*
X810006Y295910D02*
Y298450D01*
X802386Y295910D02*
Y298450D01*
X552704Y295910D02*
Y298450D01*
X545084Y295910D02*
Y298450D01*
X422910Y295910D02*
Y298450D01*
X415290Y295910D02*
Y298450D01*
X680720Y295910D02*
Y298450D01*
X673100Y295910D02*
Y298450D01*
X697230Y622300D02*
X699770Y619760D01*
X621030Y722630D02*
Y725170D01*
X613410Y722630D02*
Y725170D01*
X627700Y595310D02*
Y682310D01*
X540700Y595310D02*
Y682310D01*
X627700D01*
X540700Y595310D02*
X627700D01*
D67*
X648096Y441258D02*
Y448699D01*
X670243Y441258D02*
X679636D01*
Y448699D01*
X659993Y456798D02*
X667739D01*
X648096Y441258D02*
X657489D01*
X531600Y460352D02*
Y467793D01*
X553747Y460352D02*
X563140D01*
Y467793D01*
X543497Y475892D02*
X551243D01*
X531600Y460352D02*
X540993D01*
%TF.MD5,5d479f0c2354abbfc2cd3d506add1851*%
M02*
