G04*
G04 #@! TF.GenerationSoftware,Altium Limited,Altium NEXUS,2.1.9 (83)*
G04*
G04 Layer_Color=128*
%FSLAX44Y44*%
%MOMM*%
G71*
G01*
G75*
%ADD18C,0.1000*%
%ADD24R,1.0000X0.9000*%
%ADD25R,1.4000X1.0000*%
%ADD31R,1.0000X1.0000*%
%ADD32R,0.6100X1.6100*%
%ADD40R,1.0000X1.0000*%
%ADD95R,3.0000X3.0000*%
%ADD96R,1.1500X1.4000*%
G04:AMPARAMS|DCode=97|XSize=1.4mm|YSize=1.15mm|CornerRadius=0mm|HoleSize=0mm|Usage=FLASHONLY|Rotation=270.000|XOffset=0mm|YOffset=0mm|HoleType=Round|Shape=Octagon|*
%AMOCTAGOND97*
4,1,8,-0.2875,-0.7000,0.2875,-0.7000,0.5750,-0.4125,0.5750,0.4125,0.2875,0.7000,-0.2875,0.7000,-0.5750,0.4125,-0.5750,-0.4125,-0.2875,-0.7000,0.0*
%
%ADD97OCTAGOND97*%

%ADD98R,1.2000X1.4000*%
%ADD99R,0.9000X0.8000*%
%ADD100O,1.5500X0.2500*%
%ADD101O,0.2500X1.5500*%
D18*
X255800Y444170D02*
Y752170D01*
D24*
X1060450Y288680D02*
D03*
Y305680D02*
D03*
X937768Y288680D02*
D03*
Y305680D02*
D03*
X806196Y288680D02*
D03*
Y305680D02*
D03*
X548894Y288680D02*
D03*
Y305680D02*
D03*
X419100Y288680D02*
D03*
Y305680D02*
D03*
X676910Y288680D02*
D03*
Y305680D02*
D03*
X617220Y715400D02*
D03*
Y732400D02*
D03*
D25*
X651510Y732470D02*
D03*
Y712470D02*
D03*
X737870Y605630D02*
D03*
Y585630D02*
D03*
D31*
X547370Y510160D02*
D03*
Y526160D02*
D03*
X509270Y692530D02*
D03*
Y676530D02*
D03*
X688340Y616840D02*
D03*
Y632840D02*
D03*
X704850Y583820D02*
D03*
Y599820D02*
D03*
X688340Y583820D02*
D03*
Y599820D02*
D03*
X633730Y548260D02*
D03*
Y564260D02*
D03*
X632460Y712090D02*
D03*
Y728090D02*
D03*
D32*
X663866Y439078D02*
D03*
X674116Y458978D02*
D03*
X653616D02*
D03*
X547370Y458172D02*
D03*
X557620Y478072D02*
D03*
X537120D02*
D03*
D40*
X552450Y730250D02*
D03*
X529464Y545338D02*
D03*
X545464D02*
D03*
X687450Y685800D02*
D03*
X671450D02*
D03*
X543940Y563880D02*
D03*
X527940D02*
D03*
X752220Y657860D02*
D03*
X736220D02*
D03*
D95*
X1246632Y337566D02*
D03*
X744220Y632460D02*
D03*
D96*
X704470Y651080D02*
D03*
X720470Y629080D02*
D03*
Y651080D02*
D03*
D97*
X704470Y629080D02*
D03*
D98*
X688450Y651510D02*
D03*
X670450D02*
D03*
D99*
X720090Y584820D02*
D03*
Y598820D02*
D03*
D100*
X639450Y676310D02*
D03*
Y671310D02*
D03*
Y666310D02*
D03*
Y661310D02*
D03*
Y656310D02*
D03*
Y651310D02*
D03*
Y646310D02*
D03*
Y641310D02*
D03*
Y636310D02*
D03*
Y631310D02*
D03*
Y626310D02*
D03*
Y621310D02*
D03*
Y616310D02*
D03*
Y611310D02*
D03*
Y606310D02*
D03*
Y601310D02*
D03*
X528950D02*
D03*
Y606310D02*
D03*
Y611310D02*
D03*
Y616310D02*
D03*
Y621310D02*
D03*
Y626310D02*
D03*
Y631310D02*
D03*
Y636310D02*
D03*
Y641310D02*
D03*
Y646310D02*
D03*
Y651310D02*
D03*
Y656310D02*
D03*
Y661310D02*
D03*
Y666310D02*
D03*
Y671310D02*
D03*
Y676310D02*
D03*
D101*
X621700Y583560D02*
D03*
X616700D02*
D03*
X611700D02*
D03*
X606700D02*
D03*
X601700D02*
D03*
X596700D02*
D03*
X591700D02*
D03*
X586700D02*
D03*
X581700D02*
D03*
X576700D02*
D03*
X571700D02*
D03*
X566700D02*
D03*
X561700D02*
D03*
X556700D02*
D03*
X551700D02*
D03*
X546700D02*
D03*
Y694060D02*
D03*
X551700D02*
D03*
X556700D02*
D03*
X561700D02*
D03*
X566700D02*
D03*
X571700D02*
D03*
X576700D02*
D03*
X581700D02*
D03*
X586700D02*
D03*
X591700D02*
D03*
X596700D02*
D03*
X601700D02*
D03*
X606700D02*
D03*
X611700D02*
D03*
X616700D02*
D03*
X621700D02*
D03*
M02*
