G04*
G04 #@! TF.GenerationSoftware,Altium Limited,Altium NEXUS,2.1.9 (83)*
G04*
G04 Layer_Physical_Order=2*
G04 Layer_Color=16711680*
%FSLAX44Y44*%
%MOMM*%
G71*
G01*
G75*
%ADD11C,0.2540*%
%ADD18C,0.1000*%
%ADD24R,1.0000X0.9000*%
%ADD25R,1.4000X1.0000*%
%ADD31R,1.0000X1.0000*%
%ADD32R,0.6100X1.6100*%
%ADD40R,1.0000X1.0000*%
%ADD75C,0.5000*%
%ADD76C,1.0000*%
%ADD78C,0.4000*%
%ADD79C,0.3500*%
%ADD80R,1.9000X1.9000*%
%ADD81C,1.9000*%
%ADD82R,1.7000X1.7000*%
%ADD83C,1.7000*%
%ADD84C,4.0000*%
%ADD85C,6.0000*%
%ADD86R,1.6000X1.6000*%
%ADD87C,1.6000*%
%ADD88C,1.0000*%
%ADD89R,1.1000X1.1000*%
%ADD90C,1.1000*%
%ADD91C,4.8000*%
%ADD92C,1.5000*%
%ADD93R,1.5000X1.5000*%
%ADD94C,0.6000*%
%ADD95R,3.0000X3.0000*%
%ADD96R,1.1500X1.4000*%
G04:AMPARAMS|DCode=97|XSize=1.4mm|YSize=1.15mm|CornerRadius=0mm|HoleSize=0mm|Usage=FLASHONLY|Rotation=270.000|XOffset=0mm|YOffset=0mm|HoleType=Round|Shape=Octagon|*
%AMOCTAGOND97*
4,1,8,-0.2875,-0.7000,0.2875,-0.7000,0.5750,-0.4125,0.5750,0.4125,0.2875,0.7000,-0.2875,0.7000,-0.5750,0.4125,-0.5750,-0.4125,-0.2875,-0.7000,0.0*
%
%ADD97OCTAGOND97*%

%ADD98R,1.2000X1.4000*%
%ADD99R,0.9000X0.8000*%
%ADD100O,1.5500X0.2500*%
%ADD101O,0.2500X1.5500*%
G36*
X508189Y824196D02*
X507889Y823806D01*
X507232Y822219D01*
X507008Y820516D01*
X507232Y818813D01*
X507889Y817226D01*
X508935Y815863D01*
X533415Y791383D01*
X534778Y790337D01*
X536365Y789680D01*
X538068Y789456D01*
X595145D01*
X633395Y751206D01*
X634720Y750189D01*
X634734Y750067D01*
X634436Y748919D01*
X631023D01*
X616311Y763631D01*
X614980Y764520D01*
X613410Y764833D01*
X593823D01*
X593585Y764992D01*
X591820Y765343D01*
X590055Y764992D01*
X588558Y763992D01*
X587559Y762495D01*
X587207Y760730D01*
X587459Y759467D01*
X586660Y758197D01*
X525349D01*
X525349Y758197D01*
X524258Y757980D01*
X523334Y757362D01*
X430596Y664624D01*
X429978Y663700D01*
X429761Y662609D01*
X429761Y662609D01*
Y567853D01*
X413624Y551716D01*
X413006Y550791D01*
X412789Y549701D01*
X412789Y549701D01*
Y464627D01*
X411519Y464101D01*
X395962Y479658D01*
Y753686D01*
X440114Y797838D01*
X457454D01*
X459157Y798062D01*
X460744Y798719D01*
X462107Y799765D01*
X463153Y801128D01*
X463810Y802715D01*
X464034Y804418D01*
X463810Y806121D01*
X463153Y807708D01*
X462107Y809071D01*
X460744Y810117D01*
X459157Y810774D01*
X457454Y810998D01*
X437388D01*
X435685Y810774D01*
X434098Y810117D01*
X432735Y809071D01*
X384729Y761065D01*
X383683Y759702D01*
X383026Y758115D01*
X382802Y756412D01*
Y476932D01*
X383026Y475229D01*
X383683Y473642D01*
X384729Y472279D01*
X403191Y453817D01*
X404554Y452771D01*
X406141Y452114D01*
X406622Y452051D01*
X407077Y450710D01*
X397112Y440745D01*
X384791D01*
X384516Y441158D01*
X383019Y442158D01*
X381254Y442509D01*
X379489Y442158D01*
X377992Y441158D01*
X376992Y439661D01*
X376641Y437896D01*
X376992Y436131D01*
X377992Y434634D01*
X379489Y433634D01*
X381254Y433283D01*
X381705Y433373D01*
X382785Y432293D01*
X382737Y432054D01*
X383088Y430289D01*
X384088Y428792D01*
X384827Y428299D01*
X384442Y427029D01*
X280670D01*
X280670Y427029D01*
X279580Y426812D01*
X278656Y426194D01*
X278656Y426194D01*
X262146Y409684D01*
X261528Y408760D01*
X261311Y407670D01*
X261311Y407670D01*
Y360680D01*
X261311Y360680D01*
X261528Y359590D01*
X262146Y358666D01*
X285116Y335695D01*
Y320676D01*
X304164D01*
Y339724D01*
X289145D01*
X267009Y361860D01*
Y377543D01*
X268182Y378029D01*
X286171Y360041D01*
X285361Y358086D01*
X285034Y355600D01*
X285361Y353114D01*
X286321Y350797D01*
X287847Y348807D01*
X289837Y347281D01*
X292154Y346321D01*
X294640Y345994D01*
X297126Y346321D01*
X299443Y347281D01*
X301433Y348807D01*
X302959Y350797D01*
X303919Y353114D01*
X304246Y355600D01*
X303919Y358086D01*
X302959Y360403D01*
X301433Y362393D01*
X299443Y363919D01*
X297126Y364879D01*
X294640Y365206D01*
X292154Y364879D01*
X290199Y364069D01*
X271073Y383196D01*
Y404807D01*
X283533Y417267D01*
X394965D01*
X395451Y416094D01*
X375906Y396549D01*
X307340D01*
X307340Y396549D01*
X306250Y396332D01*
X305326Y395714D01*
X305326Y395714D01*
X299081Y389469D01*
X297126Y390279D01*
X294640Y390606D01*
X292154Y390279D01*
X289837Y389319D01*
X287847Y387793D01*
X286321Y385803D01*
X285361Y383486D01*
X285034Y381000D01*
X285361Y378514D01*
X286321Y376197D01*
X287847Y374207D01*
X289837Y372681D01*
X292154Y371721D01*
X294640Y371394D01*
X297126Y371721D01*
X299443Y372681D01*
X301433Y374207D01*
X302959Y376197D01*
X303919Y378514D01*
X304246Y381000D01*
X303919Y383486D01*
X303109Y385441D01*
X308520Y390851D01*
X341017D01*
X341270Y389581D01*
X340637Y389319D01*
X338647Y387793D01*
X337121Y385803D01*
X336161Y383486D01*
X335834Y381000D01*
X336161Y378514D01*
X337121Y376197D01*
X338647Y374207D01*
X340637Y372681D01*
X342954Y371721D01*
X345440Y371394D01*
X347926Y371721D01*
X349881Y372531D01*
X354856Y367556D01*
X354856Y367556D01*
X355780Y366938D01*
X356870Y366721D01*
X356870Y366721D01*
X405384D01*
X405384Y366721D01*
X406474Y366938D01*
X407288Y367482D01*
X407350Y367494D01*
X408274Y368112D01*
X412478Y372316D01*
X412478Y372316D01*
X413096Y373240D01*
X413313Y374330D01*
X413313Y374330D01*
Y414403D01*
X432541Y433631D01*
X433617Y432912D01*
X432617Y430498D01*
X432154Y426974D01*
X432617Y423450D01*
X433978Y420166D01*
X436142Y417346D01*
X438962Y415182D01*
X442246Y413821D01*
X445770Y413358D01*
X447863Y413633D01*
X448818Y412796D01*
Y364952D01*
X447863Y364115D01*
X445770Y364390D01*
X442246Y363927D01*
X438962Y362566D01*
X436142Y360402D01*
X433978Y357582D01*
X432617Y354298D01*
X432154Y350774D01*
X432617Y347250D01*
X433978Y343966D01*
X436142Y341146D01*
X438962Y338982D01*
X442246Y337621D01*
X445770Y337158D01*
X447863Y337433D01*
X448818Y336596D01*
Y262117D01*
X432320D01*
X428042Y266395D01*
X427934Y266941D01*
X426934Y268438D01*
X425437Y269438D01*
X424891Y269546D01*
X422693Y271744D01*
Y282656D01*
X425624D01*
Y294704D01*
X412576D01*
Y282656D01*
X415507D01*
Y270256D01*
X415780Y268881D01*
X416559Y267715D01*
X419066Y265209D01*
X419059Y265176D01*
X419411Y263411D01*
X420410Y261914D01*
X421907Y260914D01*
X423672Y260563D01*
X423705Y260570D01*
X426528Y257747D01*
X426042Y256574D01*
X256574D01*
Y825467D01*
X507563D01*
X508189Y824196D01*
D02*
G37*
G36*
X789509Y748242D02*
X789023Y747069D01*
X715623D01*
X715370Y748339D01*
X716003Y748601D01*
X717993Y750127D01*
X719519Y752117D01*
X720479Y754434D01*
X720806Y756920D01*
X720479Y759406D01*
X719519Y761723D01*
X717993Y763713D01*
X716003Y765239D01*
X715370Y765501D01*
X715623Y766771D01*
X770980D01*
X789509Y748242D01*
D02*
G37*
G36*
X793223Y738179D02*
X792697Y736909D01*
X762000D01*
X762000Y736909D01*
X760910Y736692D01*
X759986Y736074D01*
X759986Y736074D01*
X745580Y721669D01*
X715623D01*
X715370Y722939D01*
X716003Y723201D01*
X717993Y724727D01*
X719519Y726717D01*
X720479Y729034D01*
X720806Y731520D01*
X720479Y734006D01*
X719519Y736323D01*
X717993Y738313D01*
X716003Y739839D01*
X715370Y740101D01*
X715623Y741371D01*
X790030D01*
X793223Y738179D01*
D02*
G37*
G36*
X888185Y729941D02*
X887655Y729289D01*
X787475D01*
X786945Y729941D01*
X787484Y731211D01*
X887646D01*
X888185Y729941D01*
D02*
G37*
G36*
X579906Y747450D02*
X579921Y747165D01*
X579587Y745490D01*
X579684Y745003D01*
X560147Y725466D01*
X558974Y725952D01*
Y736774D01*
X545926D01*
X544977Y737550D01*
X544282Y738592D01*
X542785Y739592D01*
X541020Y739943D01*
X539255Y739592D01*
X537758Y738592D01*
X537482Y738179D01*
X519615D01*
X519129Y739352D01*
X528212Y748435D01*
X579380D01*
X579906Y747450D01*
D02*
G37*
G36*
X707030Y740101D02*
X706397Y739839D01*
X704407Y738313D01*
X702881Y736323D01*
X701921Y734006D01*
X701594Y731520D01*
X701921Y729034D01*
X702881Y726717D01*
X704407Y724727D01*
X706397Y723201D01*
X707030Y722939D01*
X706777Y721669D01*
X689675D01*
X689675Y721669D01*
X688585Y721452D01*
X687660Y720834D01*
X687660Y720834D01*
X678646Y711820D01*
X677473Y712306D01*
Y728657D01*
X690187Y741371D01*
X706777D01*
X707030Y740101D01*
D02*
G37*
G36*
X588971Y725692D02*
Y723810D01*
X585957Y720796D01*
X585470Y720893D01*
X583705Y720542D01*
X582208Y719542D01*
X581208Y718045D01*
X580857Y716280D01*
X581208Y714515D01*
X582208Y713018D01*
X583705Y712019D01*
X585470Y711667D01*
X587235Y712019D01*
X587581Y712250D01*
X588851Y711571D01*
Y703986D01*
X588251Y703530D01*
X587581Y703213D01*
X586700Y703388D01*
X585618Y703173D01*
X585065Y702803D01*
X584200Y702649D01*
X583335Y702803D01*
X582782Y703173D01*
X581700Y703388D01*
X580799Y703209D01*
X580657Y703265D01*
X580452Y703483D01*
X580429Y703513D01*
X580018Y704250D01*
X580899Y705568D01*
X581250Y707333D01*
X580899Y709098D01*
X579899Y710594D01*
X578402Y711594D01*
X576637Y711945D01*
X574872Y711594D01*
X573376Y710594D01*
X572376Y709098D01*
X572025Y707333D01*
X572376Y705568D01*
X573235Y704282D01*
X572540Y703232D01*
X572531Y703223D01*
X571700Y703388D01*
X570819Y703213D01*
X570148Y703530D01*
X569549Y703986D01*
Y709030D01*
X585056Y724538D01*
X585965Y724718D01*
X587462Y725718D01*
X587701Y726077D01*
X588971Y725692D01*
D02*
G37*
G36*
X626423Y741915D02*
X627754Y741025D01*
X629324Y740713D01*
X656835D01*
X660107Y737441D01*
Y723363D01*
X659949Y723125D01*
X659902Y722891D01*
X656005Y718994D01*
X642986D01*
Y715319D01*
X638984D01*
Y718614D01*
X625936D01*
Y709595D01*
X619706Y703364D01*
X619088Y702440D01*
X618871Y701350D01*
X618871Y701350D01*
Y694161D01*
X618851Y694060D01*
X618872Y693957D01*
Y687560D01*
X619087Y686478D01*
X619700Y685560D01*
X620618Y684947D01*
X621700Y684732D01*
X622782Y684947D01*
X623700Y685560D01*
X624313Y686478D01*
X624528Y687560D01*
Y693877D01*
X624569Y694080D01*
X624569Y694080D01*
Y700170D01*
X629965Y705566D01*
X636980D01*
X637105Y704296D01*
X635775Y704032D01*
X634278Y703032D01*
X633279Y701535D01*
X632927Y699770D01*
X633279Y698005D01*
X634278Y696508D01*
X635775Y695508D01*
X637540Y695157D01*
X639305Y695508D01*
X640481Y696294D01*
X643170D01*
X644084Y695380D01*
X643519Y694149D01*
X642125Y693872D01*
X640628Y692872D01*
X639628Y691375D01*
X639277Y689610D01*
X639628Y687845D01*
X640628Y686348D01*
X642125Y685349D01*
X642574Y685259D01*
X642992Y683881D01*
X638270Y679159D01*
X632990D01*
X631900Y678942D01*
X631873Y678924D01*
X631868Y678923D01*
X630950Y678310D01*
X630337Y677392D01*
X630122Y676310D01*
X630337Y675228D01*
X630706Y674675D01*
X630861Y673810D01*
X630706Y672945D01*
X630337Y672392D01*
X630122Y671310D01*
X630337Y670228D01*
X630706Y669675D01*
X630861Y668810D01*
X630706Y667945D01*
X630337Y667392D01*
X630122Y666310D01*
X630297Y665429D01*
X629980Y664758D01*
X629524Y664159D01*
X625750D01*
X625750Y664159D01*
X624660Y663942D01*
X623736Y663324D01*
X623736Y663324D01*
X617707Y657296D01*
X617220Y657393D01*
X615819Y657114D01*
X614549Y657847D01*
Y694060D01*
X614528Y694163D01*
Y700560D01*
X614313Y701642D01*
X613700Y702560D01*
X612782Y703173D01*
X611700Y703388D01*
X610618Y703173D01*
X610065Y702803D01*
X609200Y702649D01*
X608335Y702803D01*
X608145Y702931D01*
X607787Y704368D01*
X612795Y709376D01*
X623744D01*
Y721424D01*
X610696D01*
Y715335D01*
X601559Y706197D01*
X600192Y706627D01*
X600102Y707129D01*
X603692Y710719D01*
X603692Y710719D01*
X604310Y711643D01*
X604527Y712734D01*
Y742649D01*
X604310Y743739D01*
X603692Y744664D01*
X603692Y744664D01*
X593202Y755154D01*
X593483Y756355D01*
X593644Y756508D01*
X593823Y756627D01*
X611711D01*
X626423Y741915D01*
D02*
G37*
G36*
X537758Y716828D02*
X539021Y715984D01*
X539199Y715044D01*
X539163Y714552D01*
X539028Y714462D01*
X538028Y712965D01*
X537677Y711200D01*
X538028Y709435D01*
X539028Y707938D01*
X540525Y706938D01*
X542290Y706587D01*
X542777Y706684D01*
X543851Y705610D01*
Y698807D01*
X542581Y698239D01*
X541515Y698951D01*
X539750Y699303D01*
X539263Y699206D01*
X531604Y706864D01*
X530680Y707482D01*
X529590Y707699D01*
X529590Y707699D01*
X511538D01*
X511262Y708112D01*
X509765Y709111D01*
X508231Y709417D01*
X507855Y710107D01*
X507721Y710702D01*
X514260Y717241D01*
X537482D01*
X537758Y716828D01*
D02*
G37*
G36*
X502743Y704995D02*
X503433Y704619D01*
X503739Y703085D01*
X504738Y701588D01*
X506235Y700589D01*
X508000Y700237D01*
X509765Y700589D01*
X511262Y701588D01*
X511538Y702001D01*
X528410D01*
X535234Y695177D01*
X535137Y694690D01*
X535489Y692925D01*
X536488Y691428D01*
X537985Y690428D01*
X539750Y690077D01*
X541515Y690428D01*
X542602Y691154D01*
X543872Y690604D01*
Y687560D01*
X544087Y686478D01*
X544700Y685560D01*
X545618Y684947D01*
X546700Y684732D01*
X547782Y684947D01*
X548700Y685560D01*
X549700D01*
X550618Y684947D01*
X551700Y684732D01*
X552782Y684947D01*
X553335Y685316D01*
X554200Y685471D01*
X555065Y685316D01*
X555618Y684947D01*
X556700Y684732D01*
X557782Y684947D01*
X558335Y685316D01*
X559200Y685471D01*
X560065Y685316D01*
X560618Y684947D01*
X561700Y684732D01*
X562782Y684947D01*
X563700Y685560D01*
X564700D01*
X565618Y684947D01*
X566700Y684732D01*
X567425Y684876D01*
X567566Y684721D01*
X568068Y683727D01*
X567239Y682485D01*
X566887Y680720D01*
X567239Y678955D01*
X567550Y678489D01*
X566871Y677219D01*
X556260D01*
X555170Y677002D01*
X554246Y676384D01*
X554246Y676384D01*
X550564Y672703D01*
X549186Y673121D01*
X549091Y673595D01*
X548092Y675092D01*
X546595Y676092D01*
X544830Y676443D01*
X543065Y676092D01*
X541568Y675092D01*
X540569Y673595D01*
X540217Y671830D01*
X540314Y671343D01*
X538150Y669179D01*
X528970D01*
X528970Y669179D01*
X528767Y669138D01*
X522450D01*
X521368Y668923D01*
X520450Y668310D01*
X519837Y667392D01*
X519622Y666310D01*
X519837Y665228D01*
X520206Y664675D01*
X520361Y663810D01*
X520206Y662945D01*
X519837Y662392D01*
X519622Y661310D01*
X519837Y660228D01*
X520206Y659675D01*
X520361Y658810D01*
X520206Y657945D01*
X519837Y657392D01*
X519622Y656310D01*
X519797Y655429D01*
X519480Y654759D01*
X519024Y654159D01*
X464748D01*
X464472Y654572D01*
X462975Y655572D01*
X461210Y655923D01*
X459445Y655572D01*
X457948Y654572D01*
X456949Y653075D01*
X456597Y651310D01*
X456949Y649545D01*
X457948Y648048D01*
X459445Y647048D01*
X459763Y646985D01*
X460131Y645770D01*
X455147Y640786D01*
X454660Y640883D01*
X452985Y640549D01*
X452700Y640564D01*
X451715Y641090D01*
Y654696D01*
X502148Y705129D01*
X502743Y704995D01*
D02*
G37*
G36*
X1185940Y575331D02*
X1185885Y575056D01*
X1186236Y573291D01*
X1186887Y572317D01*
X1186243Y571047D01*
X1180502D01*
X1083224Y668324D01*
X1082300Y668942D01*
X1081210Y669159D01*
X1081210Y669159D01*
X692764D01*
X692237Y670429D01*
X698984Y677176D01*
X698984Y677176D01*
X699602Y678100D01*
X699819Y679190D01*
Y684360D01*
X702263Y686805D01*
X703220Y685965D01*
X702881Y685523D01*
X701921Y683206D01*
X701594Y680720D01*
X701921Y678234D01*
X702881Y675917D01*
X704407Y673927D01*
X706397Y672401D01*
X708714Y671441D01*
X711200Y671114D01*
X713686Y671441D01*
X716003Y672401D01*
X717993Y673927D01*
X719519Y675917D01*
X720479Y678234D01*
X720806Y680720D01*
X720479Y683206D01*
X719519Y685523D01*
X717993Y687513D01*
X716003Y689039D01*
X715370Y689301D01*
X715623Y690571D01*
X1070700D01*
X1185940Y575331D01*
D02*
G37*
G36*
X592368Y655868D02*
X593865Y654868D01*
X595630Y654517D01*
X596208Y653337D01*
X596097Y652780D01*
X596449Y651015D01*
X596840Y650429D01*
X596161Y649159D01*
X554870D01*
X554870Y649159D01*
X553780Y648942D01*
X552856Y648324D01*
X552856Y648324D01*
X545317Y640786D01*
X544830Y640883D01*
X543591Y640636D01*
X542965Y641807D01*
X557440Y656281D01*
X592093D01*
X592368Y655868D01*
D02*
G37*
G36*
X629980Y642861D02*
X630297Y642191D01*
X630122Y641310D01*
X630337Y640228D01*
X630706Y639675D01*
X630861Y638810D01*
X630706Y637945D01*
X630337Y637392D01*
X630122Y636310D01*
X630337Y635228D01*
X630706Y634675D01*
X630861Y633810D01*
X630706Y632945D01*
X630337Y632392D01*
X630122Y631310D01*
X630337Y630228D01*
X630706Y629675D01*
X630861Y628810D01*
X630706Y627945D01*
X630337Y627392D01*
X630122Y626310D01*
X630337Y625228D01*
X630950Y624310D01*
X631868Y623697D01*
X632950Y623482D01*
X639267D01*
X639470Y623441D01*
X639470Y623441D01*
X647639D01*
X649448Y621632D01*
X649060Y620224D01*
X648013Y619525D01*
X647719Y619231D01*
X647684Y619179D01*
X639470D01*
X639470Y619179D01*
X639267Y619138D01*
X632950D01*
X631868Y618923D01*
X630950Y618310D01*
X630337Y617392D01*
X630122Y616310D01*
X630337Y615228D01*
X630706Y614675D01*
X630861Y613810D01*
X630706Y612945D01*
X630337Y612392D01*
X630122Y611310D01*
X630337Y610228D01*
X630706Y609675D01*
X630861Y608810D01*
X630706Y607945D01*
X630337Y607392D01*
X630122Y606310D01*
X630337Y605228D01*
X630706Y604675D01*
X630861Y603810D01*
X630706Y602945D01*
X630337Y602392D01*
X630122Y601310D01*
X630337Y600228D01*
X630950Y599310D01*
X631868Y598697D01*
X632950Y598482D01*
X639347D01*
X639450Y598461D01*
X659919D01*
X663361Y595019D01*
X662943Y593641D01*
X662445Y593541D01*
X661246Y592741D01*
X660400Y592620D01*
X659554Y592741D01*
X658355Y593541D01*
X656590Y593893D01*
X654825Y593541D01*
X653328Y592542D01*
X652328Y591045D01*
X651977Y589280D01*
X652328Y587515D01*
X653328Y586018D01*
X653463Y585928D01*
X653499Y585436D01*
X653322Y584496D01*
X652058Y583652D01*
X651059Y582155D01*
X650964Y581681D01*
X649586Y581263D01*
X638945Y591904D01*
X638021Y592522D01*
X636930Y592738D01*
X636930Y592738D01*
X632360D01*
X622110Y602989D01*
X622305Y604590D01*
X623022Y605068D01*
X624021Y606565D01*
X624373Y608330D01*
X624021Y610095D01*
X623220Y611294D01*
X623100Y612140D01*
X623220Y612986D01*
X624021Y614185D01*
X624373Y615950D01*
X624021Y617715D01*
X623022Y619212D01*
X622393Y619631D01*
Y621159D01*
X623022Y621578D01*
X624021Y623075D01*
X624373Y624840D01*
X624021Y626605D01*
X623220Y627804D01*
X623100Y628650D01*
X623220Y629496D01*
X624021Y630695D01*
X624373Y632460D01*
X624021Y634225D01*
X623022Y635722D01*
X621525Y636721D01*
X619760Y637073D01*
X617995Y636721D01*
X616498Y635722D01*
X616214Y635296D01*
X615188Y635092D01*
X614264Y634474D01*
X603012Y623223D01*
X549206D01*
X539124Y633304D01*
X538558Y633683D01*
X538093Y634943D01*
X538063Y635228D01*
X538278Y636310D01*
X538099Y637211D01*
X538219Y637632D01*
X538816Y638552D01*
X539502Y638689D01*
X539990Y638390D01*
X540526Y637823D01*
X540217Y636270D01*
X540569Y634505D01*
X541568Y633008D01*
X543065Y632009D01*
X544830Y631657D01*
X546595Y632009D01*
X548092Y633008D01*
X549091Y634505D01*
X549443Y636270D01*
X549346Y636757D01*
X556050Y643461D01*
X629524D01*
X629980Y642861D01*
D02*
G37*
G36*
X519480D02*
X519797Y642191D01*
X519622Y641310D01*
X519837Y640228D01*
X520206Y639675D01*
X520361Y638810D01*
X520206Y637945D01*
X519837Y637392D01*
X519622Y636310D01*
X519837Y635228D01*
X520206Y634675D01*
X520361Y633810D01*
X520206Y632945D01*
X519837Y632392D01*
X519622Y631310D01*
X519837Y630228D01*
X519848Y630212D01*
X519852Y629966D01*
X519396Y628603D01*
X518949Y628304D01*
X518949Y628304D01*
X456202Y565557D01*
X455584Y564633D01*
X455367Y563542D01*
X455367Y563542D01*
Y536151D01*
X454165Y535743D01*
X453632Y536436D01*
X451330Y538203D01*
X448648Y539314D01*
X445770Y539693D01*
X442892Y539314D01*
X440210Y538203D01*
X437908Y536436D01*
X436141Y534134D01*
X436013Y533825D01*
X434743Y534078D01*
Y541788D01*
X450880Y557925D01*
X451498Y558850D01*
X451715Y559940D01*
X451715Y559940D01*
Y631450D01*
X452700Y631976D01*
X452985Y631991D01*
X454660Y631657D01*
X456425Y632009D01*
X457922Y633008D01*
X458922Y634505D01*
X459273Y636270D01*
X459176Y636757D01*
X465880Y643461D01*
X519024D01*
X519480Y642861D01*
D02*
G37*
G36*
X1177308Y566184D02*
X1177308Y566184D01*
X1178232Y565566D01*
X1179322Y565349D01*
X1220235D01*
X1220510Y564936D01*
X1221948Y563976D01*
X1222109Y563823D01*
X1222390Y562622D01*
X1175561Y515793D01*
X1174598Y516626D01*
X1174598Y517766D01*
Y538582D01*
X1152550D01*
Y516534D01*
X1173331D01*
X1174506Y516534D01*
X1175339Y515571D01*
X1164473Y504705D01*
X1122533D01*
X1122047Y505878D01*
X1134893Y518724D01*
X1135380Y518627D01*
X1137145Y518979D01*
X1138642Y519978D01*
X1139641Y521475D01*
X1139993Y523240D01*
X1139641Y525005D01*
X1138642Y526502D01*
X1137145Y527501D01*
X1135380Y527853D01*
X1133615Y527501D01*
X1132118Y526502D01*
X1131118Y525005D01*
X1130947Y524145D01*
X1129653D01*
X1129482Y525005D01*
X1128482Y526502D01*
X1126985Y527501D01*
X1125220Y527853D01*
X1123455Y527501D01*
X1121958Y526502D01*
X1121539Y525873D01*
X1120011D01*
X1119592Y526502D01*
X1118095Y527501D01*
X1116330Y527853D01*
X1115843Y527756D01*
X1098425Y545174D01*
X1098911Y546347D01*
X1119489D01*
X1120915Y545395D01*
X1122680Y545043D01*
X1124445Y545395D01*
X1125942Y546394D01*
X1126942Y547891D01*
X1127293Y549656D01*
X1126942Y551421D01*
X1125942Y552918D01*
X1124445Y553918D01*
X1122680Y554269D01*
X1120915Y553918D01*
X1119418Y552918D01*
X1118835Y552045D01*
X856790D01*
X855700Y551828D01*
X854776Y551210D01*
X854776Y551210D01*
X852816Y549251D01*
X850640D01*
X850114Y550235D01*
X850099Y550521D01*
X850433Y552196D01*
X850081Y553961D01*
X849082Y555458D01*
X848271Y555999D01*
X848656Y557269D01*
X871032D01*
X871308Y556856D01*
X872805Y555857D01*
X874570Y555505D01*
X876335Y555857D01*
X877832Y556856D01*
X878831Y558353D01*
X879183Y560118D01*
X878831Y561883D01*
X877873Y563317D01*
X877946Y563668D01*
X878310Y564587D01*
X963186D01*
X963462Y564174D01*
X964959Y563175D01*
X966724Y562823D01*
X968489Y563175D01*
X969986Y564174D01*
X970985Y565671D01*
X971337Y567436D01*
X970985Y569201D01*
X970165Y570429D01*
X970488Y571376D01*
X970727Y571699D01*
X1025670D01*
X1025946Y571286D01*
X1027443Y570286D01*
X1029208Y569935D01*
X1030973Y570286D01*
X1032470Y571286D01*
X1033469Y572783D01*
X1033821Y574548D01*
X1033469Y576313D01*
X1032470Y577810D01*
X1030973Y578810D01*
X1029208Y579161D01*
X1027443Y578810D01*
X1025946Y577810D01*
X1025670Y577397D01*
X756059D01*
X755573Y578570D01*
X758862Y581859D01*
X1084255D01*
X1085609Y580955D01*
X1087374Y580603D01*
X1089139Y580955D01*
X1090636Y581954D01*
X1091636Y583451D01*
X1091987Y585216D01*
X1091636Y586981D01*
X1090636Y588478D01*
X1089139Y589478D01*
X1087374Y589829D01*
X1085609Y589478D01*
X1084112Y588478D01*
X1083497Y587557D01*
X1016622D01*
X1016237Y588827D01*
X1016976Y589320D01*
X1017975Y590817D01*
X1018327Y592582D01*
X1017975Y594347D01*
X1016976Y595844D01*
X1015479Y596843D01*
X1013714Y597195D01*
X1011949Y596843D01*
X1010595Y595939D01*
X769348D01*
X769072Y596352D01*
X767575Y597351D01*
X765810Y597703D01*
X764045Y597351D01*
X762548Y596352D01*
X761548Y594855D01*
X761197Y593090D01*
X761548Y591325D01*
X762548Y589828D01*
X764045Y588829D01*
X764054Y588827D01*
X763929Y587557D01*
X757682D01*
X757682Y587557D01*
X756592Y587340D01*
X755668Y586722D01*
X755668Y586722D01*
X747390Y578445D01*
X746394Y579245D01*
X746394Y580318D01*
Y589085D01*
X746449Y589360D01*
X746449Y589360D01*
Y590180D01*
X780524Y624256D01*
X780524Y624256D01*
X781142Y625180D01*
X781359Y626270D01*
X781359Y626270D01*
Y645433D01*
X781772Y645708D01*
X782772Y647205D01*
X783123Y648970D01*
X782772Y650735D01*
X781772Y652232D01*
X780275Y653232D01*
X778510Y653583D01*
X776745Y653232D01*
X775248Y652232D01*
X774249Y650735D01*
X773897Y648970D01*
X774249Y647205D01*
X775248Y645708D01*
X775661Y645433D01*
Y627450D01*
X741586Y593374D01*
X740968Y592450D01*
X740909Y592154D01*
X729346D01*
Y588479D01*
X726114D01*
Y590344D01*
X714066D01*
Y579296D01*
X726114D01*
Y582781D01*
X729346D01*
Y579106D01*
X745132D01*
X746255Y579106D01*
X747055Y578110D01*
X745834Y576889D01*
X704577D01*
X704302Y577302D01*
X702805Y578302D01*
X701040Y578653D01*
X699275Y578302D01*
X697778Y577302D01*
X696778Y575805D01*
X696427Y574040D01*
X696761Y572365D01*
X696746Y572080D01*
X696220Y571095D01*
X687694D01*
X677783Y581006D01*
X678201Y582384D01*
X678675Y582478D01*
X680172Y583478D01*
X681171Y584975D01*
X681523Y586740D01*
X681171Y588505D01*
X680370Y589704D01*
X680250Y590550D01*
X680370Y591396D01*
X681013Y592358D01*
X681139Y592505D01*
X682042Y593296D01*
X682042Y593296D01*
X694864D01*
Y595717D01*
X698326D01*
Y593296D01*
X711374D01*
Y595217D01*
X714066D01*
Y593296D01*
X726114D01*
Y604344D01*
X714066D01*
Y603423D01*
X711374D01*
Y606344D01*
X698326D01*
Y603923D01*
X694864D01*
Y606344D01*
X687618D01*
X681589Y612373D01*
X681127Y612682D01*
X679534Y614275D01*
X679846Y615302D01*
X680042Y615563D01*
X681442Y616498D01*
X682441Y617995D01*
X682793Y619760D01*
X682441Y621525D01*
X681442Y623022D01*
X679945Y624021D01*
X678180Y624373D01*
X676912Y624120D01*
X676416Y624616D01*
X675492Y625234D01*
X674402Y625451D01*
X674402Y625451D01*
X671400D01*
X670802Y626571D01*
X671012Y626885D01*
X671363Y628650D01*
X671012Y630415D01*
X670012Y631912D01*
X668515Y632911D01*
X666750Y633263D01*
X664985Y632911D01*
X663488Y631912D01*
X662488Y630415D01*
X662456Y630252D01*
X662018Y630187D01*
X661735Y630335D01*
X660975Y631316D01*
X661203Y632460D01*
X660852Y634225D01*
X660020Y635470D01*
X659812Y636858D01*
X660811Y638355D01*
X660850Y638546D01*
X662065Y638915D01*
X664184Y636796D01*
X664184Y636796D01*
X665108Y636178D01*
X666199Y635961D01*
X672103D01*
X672378Y635548D01*
X673875Y634548D01*
X675640Y634197D01*
X677405Y634548D01*
X678902Y635548D01*
X679902Y637045D01*
X680253Y638810D01*
X679902Y640575D01*
X678902Y642072D01*
X678807Y642135D01*
X677974Y642986D01*
X677974D01*
X677974Y642986D01*
Y658455D01*
X680926D01*
Y642986D01*
X685601D01*
Y639364D01*
X681816D01*
Y626316D01*
X694864D01*
Y628341D01*
X697196D01*
Y624193D01*
X700833Y620556D01*
X708107D01*
X711744Y624193D01*
Y633967D01*
X708107Y637604D01*
X706245D01*
X705560Y638062D01*
X704470Y638279D01*
X703380Y638062D01*
X702694Y637604D01*
X700833D01*
X697268Y634039D01*
X694864D01*
Y639364D01*
X691299D01*
Y642986D01*
X695974D01*
Y658455D01*
X713196D01*
Y642556D01*
X727696D01*
Y615936D01*
X760744D01*
Y648984D01*
X739069D01*
Y651336D01*
X742744D01*
Y663461D01*
X1080030D01*
X1177308Y566184D01*
D02*
G37*
G36*
X1010452Y589320D02*
X1011191Y588827D01*
X1010806Y587557D01*
X767691D01*
X767566Y588827D01*
X767575Y588829D01*
X769072Y589828D01*
X769348Y590241D01*
X1009837D01*
X1010452Y589320D01*
D02*
G37*
G36*
X642613Y573828D02*
Y567417D01*
X642613Y567417D01*
X642830Y566326D01*
X643448Y565402D01*
X649666Y559184D01*
X649666Y559184D01*
X650590Y558567D01*
X651093Y558467D01*
X651307Y558103D01*
X651163Y557682D01*
X650585Y556830D01*
X649127Y556540D01*
X647630Y555540D01*
X646631Y554044D01*
X646563Y553706D01*
X645129Y553006D01*
X643890Y553253D01*
X642125Y552901D01*
X640628Y551902D01*
X639628Y550405D01*
X639277Y548640D01*
X639628Y546875D01*
X640628Y545378D01*
X640136Y544180D01*
X632484Y536528D01*
X631866Y535603D01*
X631649Y534513D01*
X631649Y534513D01*
Y527199D01*
X630476Y526713D01*
X629156Y528033D01*
X629253Y528520D01*
X628901Y530285D01*
X627902Y531782D01*
X626405Y532781D01*
X624640Y533133D01*
X622965Y532799D01*
X622679Y532814D01*
X621695Y533340D01*
Y548196D01*
X631235Y557736D01*
X640254D01*
Y570784D01*
X627206D01*
Y567109D01*
X622720D01*
X614569Y575260D01*
Y580096D01*
X614997Y580439D01*
X615839Y580883D01*
X616700Y580711D01*
X617602Y580891D01*
X618159Y580654D01*
X618872Y580123D01*
Y577060D01*
X619087Y575978D01*
X619700Y575060D01*
X620618Y574447D01*
X621700Y574232D01*
X622782Y574447D01*
X623700Y575060D01*
X624313Y575978D01*
X624528Y577060D01*
Y582977D01*
X633464D01*
X642613Y573828D01*
D02*
G37*
G36*
X962119Y570429D02*
X961990Y570285D01*
X756065D01*
X755386Y571555D01*
X755483Y571699D01*
X961548D01*
X962119Y570429D01*
D02*
G37*
G36*
X870441Y563317D02*
X870327Y563119D01*
X870086Y562967D01*
X754229D01*
X753576Y564237D01*
X753827Y564587D01*
X869706D01*
X870441Y563317D01*
D02*
G37*
G36*
X843369Y555999D02*
X842558Y555458D01*
X842282Y555045D01*
X677553D01*
X676599Y555999D01*
X677125Y557269D01*
X842984D01*
X843369Y555999D01*
D02*
G37*
G36*
X866113Y545174D02*
X840231Y519291D01*
X840056Y519332D01*
X840042Y519346D01*
X839615Y520739D01*
X840971Y522506D01*
X842082Y525188D01*
X842461Y528066D01*
X842082Y530944D01*
X840971Y533626D01*
X839204Y535928D01*
X836902Y537695D01*
X834220Y538806D01*
X831342Y539185D01*
X828464Y538806D01*
X825782Y537695D01*
X823480Y535928D01*
X821713Y533626D01*
X820602Y530944D01*
X820223Y528066D01*
X820602Y525188D01*
X821713Y522506D01*
X823480Y520204D01*
X823975Y519823D01*
X823567Y518621D01*
X790550D01*
Y539344D01*
X768502D01*
Y522081D01*
X767329Y521595D01*
X746544Y542380D01*
X747029Y543553D01*
X853996D01*
X853996Y543553D01*
X855086Y543770D01*
X856010Y544388D01*
X857970Y546347D01*
X865627D01*
X866113Y545174D01*
D02*
G37*
G36*
X698302Y538171D02*
X697766Y537949D01*
X695464Y536182D01*
X693697Y533880D01*
X692586Y531198D01*
X692207Y528320D01*
X692586Y525442D01*
X693697Y522760D01*
X695464Y520458D01*
X696157Y519925D01*
X695749Y518723D01*
X685801D01*
X669002Y535522D01*
X669488Y536695D01*
X673656D01*
X673656Y536695D01*
X674746Y536912D01*
X675670Y537530D01*
X677582Y539441D01*
X698049D01*
X698302Y538171D01*
D02*
G37*
G36*
X566700Y574232D02*
X567581Y574407D01*
X568252Y574090D01*
X568851Y573634D01*
Y555995D01*
X568851Y555995D01*
X569068Y554905D01*
X569686Y553981D01*
X583485Y540181D01*
Y535079D01*
X582283Y534671D01*
X581902Y535166D01*
X579600Y536933D01*
X576918Y538044D01*
X574040Y538423D01*
X571162Y538044D01*
X568480Y536933D01*
X566178Y535166D01*
X565751Y534611D01*
X564549Y535019D01*
Y573634D01*
X565149Y574090D01*
X565819Y574407D01*
X566700Y574232D01*
D02*
G37*
G36*
X751321Y529545D02*
X751082Y528787D01*
X750743Y528327D01*
X737597D01*
X736507Y528110D01*
X735582Y527492D01*
X735582Y527492D01*
X726813Y518723D01*
X710903D01*
X710495Y519925D01*
X711188Y520458D01*
X712955Y522760D01*
X714066Y525442D01*
X714445Y528320D01*
X714066Y531198D01*
X712955Y533880D01*
X711188Y536182D01*
X708886Y537949D01*
X708350Y538171D01*
X708603Y539441D01*
X741425D01*
X751321Y529545D01*
D02*
G37*
G36*
X681886Y514581D02*
X681360Y513311D01*
X640735D01*
X638909Y515137D01*
X639562Y516280D01*
X661264D01*
Y533543D01*
X662437Y534029D01*
X681886Y514581D01*
D02*
G37*
G36*
X1111814Y523727D02*
X1111717Y523240D01*
X1112068Y521475D01*
X1113068Y519978D01*
X1114565Y518979D01*
X1115039Y518884D01*
X1115457Y517506D01*
X1110784Y512833D01*
X935287D01*
X934397Y513722D01*
X933473Y514340D01*
X932383Y514557D01*
X932383Y514557D01*
X845213D01*
X844727Y515730D01*
X871280Y542283D01*
X1093258D01*
X1111814Y523727D01*
D02*
G37*
G36*
X737258Y513970D02*
X737469Y513779D01*
X738418Y512358D01*
X739915Y511358D01*
X741680Y511007D01*
X743284Y511326D01*
X743695Y510968D01*
X744124Y510297D01*
X743768Y509765D01*
X743417Y508000D01*
X743509Y507541D01*
X743400Y507353D01*
X742408Y506563D01*
X741124Y506819D01*
X739359Y506468D01*
X737862Y505468D01*
X736862Y503971D01*
X736511Y502206D01*
X736862Y500441D01*
X737862Y498944D01*
X739359Y497944D01*
X741124Y497593D01*
X741611Y497690D01*
X744091Y495210D01*
X743605Y494037D01*
X735542D01*
X723139Y506440D01*
X723625Y507613D01*
X728328D01*
X728328Y507613D01*
X729418Y507830D01*
X730342Y508448D01*
X736189Y514294D01*
X737258Y513970D01*
D02*
G37*
G36*
X519819Y613664D02*
X520228Y613066D01*
X520206Y612945D01*
X519837Y612392D01*
X519622Y611310D01*
X519837Y610228D01*
X520206Y609675D01*
X520361Y608810D01*
X520206Y607945D01*
X519837Y607392D01*
X519622Y606310D01*
X519837Y605228D01*
X520206Y604675D01*
X520361Y603810D01*
X520206Y602945D01*
X519837Y602392D01*
X519622Y601310D01*
X519837Y600228D01*
X520450Y599310D01*
X521368Y598697D01*
X522450Y598482D01*
X528848D01*
X528950Y598461D01*
X537589D01*
X538075Y597288D01*
X519956Y579168D01*
X519338Y578244D01*
X519121Y577154D01*
X519121Y577154D01*
Y576580D01*
X519338Y575490D01*
X519956Y574566D01*
X520880Y573948D01*
X521970Y573731D01*
X523060Y573948D01*
X523984Y574566D01*
X524061Y574680D01*
X524510Y574728D01*
X525503Y574553D01*
X526328Y573318D01*
X527825Y572318D01*
X529590Y571967D01*
X531355Y572318D01*
X531426Y572366D01*
X537416Y566375D01*
Y557356D01*
X550464D01*
Y570404D01*
X549549D01*
Y583560D01*
X549528Y583662D01*
Y590060D01*
X549492Y590241D01*
X550478Y591511D01*
X552922D01*
X553908Y590241D01*
X553872Y590060D01*
Y583662D01*
X553851Y583560D01*
Y555340D01*
X550373Y551862D01*
X538940D01*
Y538814D01*
X544521D01*
Y532684D01*
X540846D01*
Y519636D01*
X553894D01*
Y532684D01*
X550219D01*
Y538814D01*
X551988D01*
Y545419D01*
X557581Y551012D01*
X558851Y550486D01*
Y511719D01*
X545487Y498355D01*
X515578D01*
X474670Y539263D01*
X474767Y539750D01*
X474416Y541515D01*
X473416Y543012D01*
X471919Y544011D01*
X470154Y544363D01*
X468389Y544011D01*
X466892Y543012D01*
X466399Y542273D01*
X465129Y542658D01*
Y560679D01*
X518253Y613803D01*
X519819Y613664D01*
D02*
G37*
G36*
X566178Y519442D02*
X568480Y517675D01*
X569937Y517071D01*
Y492342D01*
X568667Y491957D01*
X568158Y492720D01*
X566661Y493719D01*
X564896Y494071D01*
X563131Y493719D01*
X561634Y492720D01*
X561528Y492561D01*
X549500D01*
X549021Y493831D01*
X563714Y508524D01*
X563714Y508524D01*
X564332Y509449D01*
X564549Y510539D01*
Y519589D01*
X565751Y519997D01*
X566178Y519442D01*
D02*
G37*
G36*
X1227665Y501675D02*
X1227131Y500875D01*
X1226779Y499110D01*
X1227131Y497345D01*
X1228130Y495848D01*
X1229627Y494849D01*
X1231392Y494497D01*
X1233157Y494849D01*
X1233304Y494947D01*
X1303546Y424706D01*
X1303546Y424706D01*
X1304470Y424088D01*
X1305560Y423871D01*
X1305560Y423871D01*
X1314722D01*
X1314998Y423458D01*
X1316495Y422458D01*
X1316717Y422414D01*
X1317086Y421199D01*
X1270827Y374940D01*
X1241720D01*
X1240442Y374686D01*
X1239360Y373962D01*
X1221591Y356194D01*
X1220868Y355111D01*
X1220614Y353834D01*
Y317997D01*
X1220868Y316719D01*
X1221591Y315636D01*
X1221794Y315434D01*
X1221699Y314960D01*
X1222050Y313195D01*
X1223050Y311698D01*
X1224547Y310699D01*
X1226312Y310347D01*
X1228077Y310699D01*
X1229574Y311698D01*
X1230574Y313195D01*
X1230925Y314960D01*
X1230574Y316725D01*
X1229574Y318222D01*
X1228077Y319221D01*
X1227291Y319378D01*
X1227290Y319379D01*
Y352451D01*
X1228838Y353999D01*
X1230108Y353473D01*
Y321042D01*
X1249625D01*
Y288756D01*
X1245150Y284281D01*
X1243057D01*
X1242782Y284694D01*
X1241285Y285693D01*
X1239520Y286045D01*
X1237755Y285693D01*
X1236258Y284694D01*
X1235983Y284281D01*
X1217271D01*
X1217146Y285551D01*
X1217155Y285553D01*
X1218652Y286552D01*
X1219651Y288049D01*
X1220003Y289814D01*
X1219651Y291579D01*
X1218652Y293076D01*
X1217155Y294076D01*
X1215390Y294427D01*
X1214903Y294330D01*
X1202491Y306742D01*
Y406783D01*
X1202491Y406783D01*
X1202274Y407874D01*
X1201656Y408798D01*
X1201656Y408798D01*
X1164221Y446234D01*
X1165030Y447220D01*
X1165437Y446948D01*
X1166527Y446731D01*
X1166527Y446731D01*
X1191279D01*
X1191554Y446318D01*
X1193051Y445318D01*
X1194816Y444967D01*
X1196581Y445318D01*
X1198078Y446318D01*
X1199078Y447815D01*
X1199429Y449580D01*
X1199078Y451345D01*
X1198766Y451811D01*
X1199445Y453081D01*
X1221830D01*
X1224082Y450829D01*
X1223985Y450342D01*
X1224336Y448577D01*
X1225336Y447080D01*
X1226833Y446081D01*
X1228598Y445729D01*
X1230363Y446081D01*
X1231860Y447080D01*
X1232859Y448577D01*
X1233211Y450342D01*
X1232859Y452107D01*
X1231860Y453604D01*
X1230363Y454604D01*
X1228598Y454955D01*
X1228111Y454858D01*
X1225024Y457944D01*
X1224100Y458562D01*
X1223010Y458779D01*
X1223010Y458779D01*
X1167105D01*
X1147119Y478765D01*
Y484142D01*
X1147532Y484418D01*
X1148531Y485915D01*
X1148883Y487680D01*
X1148531Y489445D01*
X1148322Y489759D01*
X1148920Y490879D01*
X1206198D01*
X1206198Y490879D01*
X1207288Y491096D01*
X1208212Y491714D01*
X1219444Y502945D01*
X1226986D01*
X1227665Y501675D01*
D02*
G37*
G36*
X1124978Y489759D02*
X1124769Y489445D01*
X1124417Y487680D01*
X1124769Y485915D01*
X1125768Y484418D01*
X1126181Y484142D01*
Y480185D01*
X1125008Y479699D01*
X1124410Y480296D01*
X1123486Y480914D01*
X1122396Y481131D01*
X1122396Y481131D01*
X924753D01*
X924514Y481454D01*
X924191Y482401D01*
X925012Y483629D01*
X925192Y484535D01*
X925882Y485000D01*
X926587Y485251D01*
X927420Y485085D01*
X927420Y485085D01*
X1050309D01*
X1050584Y484672D01*
X1052081Y483672D01*
X1053846Y483321D01*
X1055611Y483672D01*
X1057108Y484672D01*
X1058108Y486169D01*
X1058459Y487934D01*
X1058125Y489609D01*
X1058140Y489894D01*
X1058666Y490879D01*
X1124380D01*
X1124978Y489759D01*
D02*
G37*
G36*
X731792Y483380D02*
X731792Y483380D01*
X732716Y482762D01*
X733806Y482545D01*
X733806Y482545D01*
X916016D01*
X916145Y482401D01*
X915574Y481131D01*
X724462D01*
X724077Y482401D01*
X725196Y483148D01*
X726195Y484645D01*
X726547Y486410D01*
X726443Y486933D01*
X727613Y487558D01*
X731792Y483380D01*
D02*
G37*
G36*
X466892Y536488D02*
X468389Y535489D01*
X470154Y535137D01*
X470641Y535234D01*
X512384Y493492D01*
X512384Y493492D01*
X513308Y492874D01*
X514398Y492657D01*
X518928D01*
X519454Y491673D01*
X519469Y491387D01*
X519135Y489712D01*
X519487Y487947D01*
X520486Y486450D01*
X521983Y485451D01*
X523748Y485099D01*
X525513Y485451D01*
X527010Y486450D01*
X527285Y486863D01*
X532546D01*
Y468498D01*
X541694D01*
Y474417D01*
X544341D01*
X544616Y474004D01*
X546113Y473004D01*
X547878Y472653D01*
X549643Y473004D01*
X551140Y474004D01*
X552140Y475501D01*
X552491Y477266D01*
X552140Y479031D01*
X551140Y480528D01*
X549643Y481527D01*
X547878Y481879D01*
X546113Y481527D01*
X544616Y480528D01*
X544341Y480115D01*
X541694D01*
Y486863D01*
X561189D01*
X561634Y486196D01*
X563131Y485196D01*
X564896Y484845D01*
X566661Y485196D01*
X568158Y486196D01*
X568667Y486959D01*
X569937Y486574D01*
Y475992D01*
X556221Y462275D01*
X551944D01*
Y467746D01*
X542796D01*
Y460372D01*
X542518Y460186D01*
X542518Y460186D01*
X533418Y451086D01*
X532800Y450162D01*
X532583Y449072D01*
X532583Y449072D01*
Y306052D01*
X532170Y305776D01*
X531171Y304279D01*
X530819Y302514D01*
X531171Y300749D01*
X532170Y299252D01*
X533667Y298253D01*
X535432Y297901D01*
X537197Y298253D01*
X538694Y299252D01*
X539693Y300749D01*
X540045Y302514D01*
X539693Y304279D01*
X538694Y305776D01*
X538281Y306052D01*
Y447892D01*
X541623Y451234D01*
X542796Y450748D01*
Y448598D01*
X551944D01*
Y454069D01*
X557920D01*
X559490Y454381D01*
X560821Y455271D01*
X576941Y471391D01*
X577831Y472722D01*
X578143Y474292D01*
Y517071D01*
X579600Y517675D01*
X581902Y519442D01*
X582283Y519937D01*
X583485Y519529D01*
Y490497D01*
X583485Y490497D01*
X583702Y489406D01*
X584320Y488482D01*
X611266Y461536D01*
X611266Y461536D01*
X612190Y460918D01*
X613281Y460701D01*
X642384D01*
X642660Y460288D01*
X644157Y459288D01*
X645922Y458937D01*
X647687Y459288D01*
X647922Y459445D01*
X649042Y458847D01*
Y449404D01*
X658190D01*
Y456129D01*
X661196D01*
X661196Y456129D01*
X662286Y456346D01*
X663210Y456964D01*
X663360Y457114D01*
X664628Y456861D01*
X666393Y457212D01*
X667890Y458212D01*
X668889Y459709D01*
X669241Y461474D01*
X668889Y463239D01*
X667890Y464736D01*
X666441Y465703D01*
X666422Y465799D01*
X666717Y466973D01*
X681716D01*
X683204Y465485D01*
X682880Y464416D01*
X682689Y464205D01*
X681268Y463256D01*
X680268Y461759D01*
X679917Y459994D01*
X680268Y458229D01*
X680427Y457991D01*
Y445183D01*
X678425Y443181D01*
X668440D01*
Y448652D01*
X659292D01*
Y429504D01*
X661316D01*
Y310638D01*
X661202Y310562D01*
X660202Y309065D01*
X659851Y307300D01*
X660202Y305535D01*
X661202Y304039D01*
X662699Y303039D01*
X664464Y302687D01*
X666229Y303039D01*
X667726Y304039D01*
X668726Y305535D01*
X669077Y307300D01*
X668726Y309065D01*
X667726Y310562D01*
X667014Y311037D01*
Y429504D01*
X668440D01*
Y434975D01*
X680124D01*
X681694Y435288D01*
X683025Y436177D01*
X687431Y440583D01*
X688320Y441914D01*
X688633Y443484D01*
Y457991D01*
X688741Y458153D01*
X688952Y458344D01*
X690021Y458668D01*
X690710Y457980D01*
X690710Y457980D01*
X691634Y457362D01*
X692724Y457145D01*
X701821D01*
X702096Y456732D01*
X703593Y455732D01*
X705358Y455381D01*
X707123Y455732D01*
X708620Y456732D01*
X709620Y458229D01*
X709971Y459994D01*
X709620Y461759D01*
X708620Y463256D01*
X707123Y464255D01*
X705358Y464607D01*
X704118Y464360D01*
X704101Y464367D01*
X703127Y465341D01*
X703120Y465358D01*
X703367Y466598D01*
X703337Y466746D01*
X704480Y467510D01*
X704842Y467268D01*
X705932Y467051D01*
X727489D01*
X727975Y465878D01*
X726326Y464229D01*
X725892Y464272D01*
X724395Y465271D01*
X722630Y465623D01*
X720865Y465271D01*
X719368Y464272D01*
X718369Y462775D01*
X718017Y461010D01*
X718369Y459245D01*
X719368Y457748D01*
X720865Y456749D01*
X722630Y456397D01*
X724395Y456749D01*
X725892Y457748D01*
X726168Y458161D01*
X727136D01*
X727136Y458161D01*
X728226Y458378D01*
X729150Y458996D01*
X731271Y461116D01*
X732441Y460490D01*
X732241Y459486D01*
X732592Y457721D01*
X733592Y456224D01*
X735089Y455224D01*
X736854Y454873D01*
X738619Y455224D01*
X740116Y456224D01*
X740391Y456637D01*
X779545D01*
X779820Y456224D01*
X781317Y455224D01*
X783082Y454873D01*
X784847Y455224D01*
X786344Y456224D01*
X787344Y457721D01*
X787695Y459486D01*
X787344Y461251D01*
X787064Y461669D01*
X787743Y462939D01*
X800868D01*
X801394Y461954D01*
X801409Y461669D01*
X801075Y459994D01*
X801172Y459507D01*
X791990Y450324D01*
X791372Y449400D01*
X791155Y448310D01*
X791155Y448310D01*
Y305035D01*
X790742Y304760D01*
X789743Y303263D01*
X789391Y301498D01*
X789743Y299733D01*
X790742Y298236D01*
X792239Y297236D01*
X794004Y296885D01*
X795769Y297236D01*
X797266Y298236D01*
X798266Y299733D01*
X798402Y300419D01*
X799672Y300294D01*
Y299656D01*
X812720D01*
Y311704D01*
X809299D01*
Y315741D01*
X809712Y316016D01*
X810712Y317513D01*
X811063Y319278D01*
X810712Y321043D01*
X809712Y322540D01*
X808215Y323540D01*
X806450Y323891D01*
X804685Y323540D01*
X803188Y322540D01*
X802188Y321043D01*
X801837Y319278D01*
X802188Y317513D01*
X803188Y316016D01*
X803601Y315741D01*
Y311704D01*
X799672D01*
Y302702D01*
X798402Y302577D01*
X798266Y303263D01*
X797266Y304760D01*
X796853Y305035D01*
Y447130D01*
X805201Y455478D01*
X805688Y455381D01*
X807453Y455732D01*
X808950Y456732D01*
X809949Y458229D01*
X810301Y459994D01*
X809967Y461669D01*
X809982Y461954D01*
X810508Y462939D01*
X937764D01*
X938443Y461669D01*
X937824Y460743D01*
X937473Y458978D01*
X937570Y458491D01*
X924324Y445244D01*
X923706Y444320D01*
X923489Y443230D01*
X923489Y443230D01*
Y301987D01*
X923076Y301712D01*
X922076Y300215D01*
X921725Y298450D01*
X922076Y296685D01*
X923076Y295188D01*
X924573Y294188D01*
X926338Y293837D01*
X928103Y294188D01*
X929600Y295188D01*
X930600Y296685D01*
X930951Y298450D01*
X930938Y298513D01*
X932006Y299656D01*
X944292D01*
Y311704D01*
X940871D01*
Y313962D01*
X941284Y314238D01*
X942283Y315735D01*
X942635Y317500D01*
X942283Y319265D01*
X941284Y320762D01*
X939787Y321762D01*
X938022Y322113D01*
X936257Y321762D01*
X934760Y320762D01*
X933761Y319265D01*
X933409Y317500D01*
X933761Y315735D01*
X934760Y314238D01*
X935173Y313962D01*
Y311704D01*
X931244D01*
Y301593D01*
X930105Y301221D01*
X929679Y301593D01*
X929600Y301712D01*
X929360Y301872D01*
X929187Y302023D01*
Y442050D01*
X941599Y454462D01*
X942086Y454365D01*
X943851Y454716D01*
X945348Y455716D01*
X946348Y457213D01*
X946699Y458978D01*
X946348Y460743D01*
X945729Y461669D01*
X946408Y462939D01*
X1058234D01*
X1058598Y462020D01*
X1058671Y461669D01*
X1057712Y460235D01*
X1057361Y458470D01*
X1057712Y456705D01*
X1058052Y456197D01*
X1053864Y452008D01*
X1053246Y451084D01*
X1053029Y449994D01*
X1053029Y449994D01*
Y336550D01*
X1053029Y336550D01*
X1053246Y335460D01*
X1053864Y334536D01*
X1065395Y323004D01*
Y321497D01*
X1065184Y321344D01*
X1063458Y321651D01*
X1063204Y322032D01*
X1061707Y323032D01*
X1059942Y323383D01*
X1058177Y323032D01*
X1056680Y322032D01*
X1055680Y320535D01*
X1055329Y318770D01*
X1055680Y317005D01*
X1056680Y315508D01*
X1057601Y314893D01*
Y311704D01*
X1053926D01*
Y299656D01*
X1065395D01*
Y294704D01*
X1053926D01*
Y287737D01*
X1045113Y278925D01*
X1043940Y279411D01*
Y427990D01*
X975601D01*
X975304Y430244D01*
X973944Y433528D01*
X971780Y436348D01*
X968960Y438512D01*
X965676Y439873D01*
X962152Y440336D01*
X958628Y439873D01*
X955344Y438512D01*
X952524Y436348D01*
X950360Y433528D01*
X948999Y430244D01*
X948536Y426720D01*
X948999Y423196D01*
X950360Y419912D01*
X952524Y417092D01*
X955344Y414928D01*
X958628Y413568D01*
X962152Y413103D01*
X965676Y413568D01*
X966684Y413985D01*
X967740Y413279D01*
Y363961D01*
X966684Y363255D01*
X965676Y363672D01*
X962152Y364137D01*
X958628Y363672D01*
X955344Y362312D01*
X952524Y360148D01*
X950360Y357328D01*
X948999Y354044D01*
X948536Y350520D01*
X948999Y346996D01*
X950360Y343712D01*
X952524Y340892D01*
X955344Y338728D01*
X958628Y337368D01*
X962152Y336903D01*
X965676Y337368D01*
X966684Y337785D01*
X967740Y337079D01*
Y262117D01*
X925105D01*
Y281936D01*
X928256Y285087D01*
X931244D01*
Y282656D01*
X944292D01*
Y294704D01*
X931244D01*
Y292273D01*
X926768D01*
X925393Y291999D01*
X924227Y291221D01*
X918971Y285965D01*
X918193Y284799D01*
X917919Y283424D01*
Y262117D01*
X910590D01*
Y427990D01*
X844758D01*
X844494Y429990D01*
X843134Y433274D01*
X840970Y436094D01*
X838150Y438258D01*
X834866Y439618D01*
X831342Y440083D01*
X827818Y439618D01*
X824534Y438258D01*
X821714Y436094D01*
X819550Y433274D01*
X818189Y429990D01*
X817726Y426466D01*
X818189Y422942D01*
X819550Y419658D01*
X821714Y416838D01*
X824534Y414674D01*
X827818Y413313D01*
X831342Y412850D01*
X833435Y413125D01*
X834390Y412288D01*
Y364444D01*
X833435Y363607D01*
X831342Y363882D01*
X827818Y363419D01*
X824534Y362058D01*
X821714Y359894D01*
X819550Y357074D01*
X818189Y353790D01*
X817726Y350266D01*
X818189Y346742D01*
X819550Y343458D01*
X821714Y340638D01*
X824534Y338474D01*
X827818Y337113D01*
X831342Y336650D01*
X833435Y336925D01*
X834390Y336088D01*
Y262117D01*
X793533D01*
Y280960D01*
X796684Y284111D01*
X799672D01*
Y282656D01*
X812720D01*
Y294704D01*
X799672D01*
Y291297D01*
X795196D01*
X793821Y291024D01*
X792655Y290245D01*
X787399Y284989D01*
X786620Y283823D01*
X786347Y282448D01*
Y262117D01*
X782320D01*
Y427990D01*
X716775D01*
X716479Y430244D01*
X715118Y433528D01*
X712954Y436348D01*
X710134Y438512D01*
X706850Y439873D01*
X703326Y440336D01*
X699802Y439873D01*
X696518Y438512D01*
X693698Y436348D01*
X691534Y433528D01*
X690173Y430244D01*
X689709Y426720D01*
X690173Y423196D01*
X691534Y419912D01*
X693698Y417092D01*
X696518Y414928D01*
X699802Y413568D01*
X703326Y413103D01*
X705165Y413346D01*
X706120Y412508D01*
Y364732D01*
X705165Y363894D01*
X703326Y364137D01*
X699802Y363672D01*
X696518Y362312D01*
X693698Y360148D01*
X691534Y357328D01*
X690173Y354044D01*
X689709Y350520D01*
X690173Y346996D01*
X691534Y343712D01*
X693698Y340892D01*
X696518Y338728D01*
X699802Y337368D01*
X703326Y336903D01*
X705165Y337146D01*
X706120Y336308D01*
Y262117D01*
X663739D01*
Y280960D01*
X667398Y284619D01*
X670386D01*
Y282656D01*
X683434D01*
Y294704D01*
X670386D01*
Y291805D01*
X665910D01*
X664535Y291532D01*
X663369Y290753D01*
X657605Y284989D01*
X656826Y283823D01*
X656553Y282448D01*
Y262117D01*
X654050D01*
Y427990D01*
X587355D01*
X587192Y429228D01*
X585832Y432512D01*
X583668Y435332D01*
X580848Y437496D01*
X577564Y438857D01*
X574040Y439320D01*
X570516Y438857D01*
X567232Y437496D01*
X564412Y435332D01*
X562248Y432512D01*
X560887Y429228D01*
X560424Y425704D01*
X560887Y422180D01*
X562248Y418896D01*
X564412Y416076D01*
X567232Y413912D01*
X570516Y412551D01*
X574040Y412088D01*
X576580Y412422D01*
X577850Y411362D01*
Y363846D01*
X576580Y362786D01*
X574040Y363120D01*
X570516Y362657D01*
X567232Y361296D01*
X564412Y359132D01*
X562248Y356312D01*
X560887Y353028D01*
X560424Y349504D01*
X560887Y345980D01*
X562248Y342696D01*
X564412Y339876D01*
X567232Y337712D01*
X570516Y336352D01*
X574040Y335887D01*
X576580Y336222D01*
X577850Y335162D01*
Y262117D01*
X535977D01*
Y281682D01*
X539382Y285087D01*
X542370D01*
Y282656D01*
X555418D01*
Y294704D01*
X542370D01*
Y292273D01*
X537894D01*
X536519Y291999D01*
X535353Y291221D01*
X529843Y285711D01*
X529064Y284545D01*
X528791Y283170D01*
Y262117D01*
X525018D01*
Y427990D01*
X459253D01*
X458923Y430498D01*
X457562Y433782D01*
X455398Y436602D01*
X452578Y438766D01*
X449294Y440126D01*
X445770Y440591D01*
X442246Y440126D01*
X439832Y439127D01*
X439113Y440203D01*
X442036Y443127D01*
X442036Y443127D01*
X442654Y444051D01*
X442871Y445141D01*
X442871Y445142D01*
Y498512D01*
X464294Y519936D01*
X464912Y520860D01*
X465129Y521950D01*
X465129Y521950D01*
Y536842D01*
X466399Y537227D01*
X466892Y536488D01*
D02*
G37*
G36*
X1150244Y429163D02*
X1149758Y427990D01*
X1100723D01*
X1100527Y429482D01*
X1099166Y432766D01*
X1097002Y435586D01*
X1094182Y437750D01*
X1090898Y439110D01*
X1087374Y439575D01*
X1083850Y439110D01*
X1080566Y437750D01*
X1077746Y435586D01*
X1075582Y432766D01*
X1074221Y429482D01*
X1073757Y425958D01*
X1074221Y422434D01*
X1075582Y419150D01*
X1077746Y416330D01*
X1080566Y414166D01*
X1083850Y412805D01*
X1087374Y412341D01*
X1088705Y412517D01*
X1089660Y411679D01*
Y364037D01*
X1088705Y363199D01*
X1087374Y363374D01*
X1083850Y362910D01*
X1080566Y361550D01*
X1077746Y359386D01*
X1075582Y356566D01*
X1074221Y353282D01*
X1073757Y349758D01*
X1074221Y346234D01*
X1075582Y342950D01*
X1077746Y340130D01*
X1080566Y337966D01*
X1083850Y336605D01*
X1087374Y336142D01*
X1088705Y336317D01*
X1089660Y335479D01*
Y256574D01*
X1043940D01*
Y267589D01*
X1059007Y282656D01*
X1065395D01*
Y281008D01*
X1060683Y276296D01*
X1060196Y276393D01*
X1058431Y276042D01*
X1056934Y275042D01*
X1055935Y273545D01*
X1055583Y271780D01*
X1055935Y270015D01*
X1056934Y268518D01*
X1058431Y267519D01*
X1060196Y267167D01*
X1061961Y267519D01*
X1063458Y268518D01*
X1064457Y270015D01*
X1064809Y271780D01*
X1064712Y272267D01*
X1070258Y277814D01*
X1070876Y278738D01*
X1071093Y279828D01*
X1071093Y279828D01*
Y324184D01*
X1070876Y325274D01*
X1070258Y326198D01*
X1070258Y326198D01*
X1058727Y337730D01*
Y448814D01*
X1063988Y454076D01*
X1063988Y454076D01*
X1064350Y454616D01*
X1065236Y455208D01*
X1066236Y456705D01*
X1066587Y458470D01*
X1066236Y460235D01*
X1065277Y461669D01*
X1065350Y462020D01*
X1065714Y462939D01*
X1116468D01*
X1150244Y429163D01*
D02*
G37*
G36*
X1355056Y256574D02*
X1165860D01*
Y411888D01*
X1167033Y412374D01*
X1168091Y411316D01*
Y293050D01*
X1168091Y293050D01*
X1168308Y291960D01*
X1168926Y291036D01*
X1180544Y279418D01*
X1181468Y278800D01*
X1182558Y278583D01*
X1182558Y278583D01*
X1235983D01*
X1236258Y278170D01*
X1237755Y277171D01*
X1239520Y276819D01*
X1241285Y277171D01*
X1242782Y278170D01*
X1243057Y278583D01*
X1246330D01*
X1246330Y278583D01*
X1247420Y278800D01*
X1248344Y279418D01*
X1254488Y285562D01*
X1254488Y285562D01*
X1255106Y286486D01*
X1255323Y287576D01*
X1255323Y287576D01*
Y321042D01*
X1263156D01*
X1263444Y320595D01*
X1263452Y320561D01*
X1263453Y320561D01*
X1264452Y319064D01*
X1265949Y318064D01*
X1267714Y317713D01*
X1269479Y318064D01*
X1270976Y319064D01*
X1271975Y320561D01*
X1272214Y321762D01*
X1272389Y322345D01*
X1273549Y322692D01*
X1274318Y322539D01*
X1276083Y322891D01*
X1277580Y323890D01*
X1278579Y325387D01*
X1278931Y327152D01*
X1278925Y327179D01*
X1280005Y328259D01*
X1280668Y328127D01*
X1282433Y328479D01*
X1283930Y329478D01*
X1284930Y330975D01*
X1285281Y332740D01*
X1284930Y334505D01*
X1283930Y336002D01*
X1283517Y336278D01*
Y341720D01*
X1312328Y370531D01*
X1313961D01*
X1314236Y370118D01*
X1315733Y369118D01*
X1317498Y368767D01*
X1319263Y369118D01*
X1320760Y370118D01*
X1321759Y371615D01*
X1322111Y373380D01*
X1321759Y375145D01*
X1320760Y376642D01*
X1319263Y377641D01*
X1317498Y377993D01*
X1315733Y377641D01*
X1314236Y376642D01*
X1313961Y376229D01*
X1311148D01*
X1310058Y376012D01*
X1309134Y375394D01*
X1309134Y375394D01*
X1278654Y344914D01*
X1278437Y344590D01*
X1277167Y344975D01*
Y347054D01*
X1316757Y386644D01*
X1317244Y386547D01*
X1319009Y386898D01*
X1320506Y387898D01*
X1321505Y389395D01*
X1321857Y391160D01*
X1321505Y392925D01*
X1320506Y394422D01*
X1319009Y395421D01*
X1317244Y395773D01*
X1315479Y395421D01*
X1313982Y394422D01*
X1312982Y392925D01*
X1312631Y391160D01*
X1312728Y390673D01*
X1272304Y350248D01*
X1271833Y349544D01*
X1270802Y349663D01*
X1270563Y349755D01*
Y355182D01*
X1319297Y403916D01*
X1319784Y403819D01*
X1321549Y404170D01*
X1323046Y405170D01*
X1324046Y406667D01*
X1324397Y408432D01*
X1324046Y410197D01*
X1323046Y411694D01*
X1321549Y412693D01*
X1320105Y412981D01*
X1319516Y414188D01*
X1326894Y421566D01*
X1327618Y422649D01*
X1327872Y423926D01*
Y480136D01*
X1327618Y481413D01*
X1326894Y482496D01*
X1299986Y509405D01*
X1299662Y511035D01*
X1298662Y512532D01*
X1297165Y513531D01*
X1295400Y513883D01*
X1293635Y513531D01*
X1292138Y512532D01*
X1291138Y511035D01*
X1290787Y509270D01*
X1291138Y507505D01*
X1292138Y506008D01*
X1293635Y505009D01*
X1295265Y504684D01*
X1321196Y478753D01*
Y431546D01*
X1320224Y431027D01*
X1319926Y431001D01*
X1318260Y431333D01*
X1316495Y430981D01*
X1314998Y429982D01*
X1314722Y429569D01*
X1306740D01*
X1235708Y500601D01*
X1235654Y500875D01*
X1235119Y501675D01*
X1235798Y502945D01*
X1261992D01*
X1262634Y501984D01*
X1264131Y500984D01*
X1265896Y500633D01*
X1267661Y500984D01*
X1269158Y501984D01*
X1270157Y503481D01*
X1270509Y505246D01*
X1270157Y507011D01*
X1269158Y508508D01*
X1267661Y509507D01*
X1265896Y509859D01*
X1264131Y509507D01*
X1262837Y508643D01*
X1218264D01*
X1218264Y508643D01*
X1217174Y508426D01*
X1216250Y507808D01*
X1205018Y496577D01*
X1171809D01*
X1171323Y497750D01*
X1246614Y573042D01*
X1246614Y573042D01*
X1247232Y573966D01*
X1247449Y575056D01*
X1247449Y575056D01*
Y642893D01*
X1247862Y643168D01*
X1248861Y644665D01*
X1249213Y646430D01*
X1248861Y648195D01*
X1247862Y649692D01*
X1246365Y650692D01*
X1244600Y651043D01*
X1242925Y650709D01*
X1242639Y650724D01*
X1241655Y651250D01*
Y754515D01*
X1242060Y754847D01*
X1243825Y755199D01*
X1245322Y756198D01*
X1246321Y757695D01*
X1246673Y759460D01*
X1246321Y761225D01*
X1245322Y762722D01*
X1243825Y763721D01*
X1242060Y764073D01*
X1240295Y763721D01*
X1238798Y762722D01*
X1237798Y761225D01*
X1237447Y759460D01*
X1237544Y758973D01*
X1236792Y758220D01*
X1236174Y757296D01*
X1235957Y756206D01*
X1235957Y756206D01*
Y576189D01*
X1229348Y569580D01*
X1228147Y569861D01*
X1227994Y570022D01*
X1227034Y571460D01*
X1225537Y572459D01*
X1223772Y572811D01*
X1222007Y572459D01*
X1220510Y571460D01*
X1220235Y571047D01*
X1194753D01*
X1194109Y572317D01*
X1194760Y573291D01*
X1195111Y575056D01*
X1194760Y576821D01*
X1193760Y578318D01*
X1192263Y579318D01*
X1190498Y579669D01*
X1189799Y579530D01*
X1073894Y695434D01*
X1072970Y696052D01*
X1071880Y696269D01*
X1071880Y696269D01*
X704850D01*
X704850Y696269D01*
X703760Y696052D01*
X702836Y695434D01*
X702836Y695434D01*
X694956Y687554D01*
X694338Y686630D01*
X694121Y685540D01*
X694121Y685540D01*
Y680370D01*
X687910Y674159D01*
X649376D01*
X648920Y674758D01*
X648603Y675429D01*
X648778Y676310D01*
X648563Y677392D01*
X647950Y678310D01*
X647545Y678580D01*
X647246Y680077D01*
X650040Y682871D01*
X662322D01*
X662322Y682871D01*
X662724Y682951D01*
X664926D01*
Y679276D01*
X668232D01*
X668910Y679141D01*
X669587Y679276D01*
X677974D01*
Y688295D01*
X684612Y694934D01*
X684612Y694934D01*
X685230Y695858D01*
X685447Y696948D01*
X685447Y696948D01*
Y698330D01*
X686522Y699048D01*
X687522Y700545D01*
X687873Y702310D01*
X687522Y704075D01*
X686522Y705572D01*
X685025Y706572D01*
X683545Y706866D01*
X683128Y707683D01*
X683045Y708162D01*
X690855Y715971D01*
X746760D01*
X746760Y715971D01*
X747850Y716188D01*
X748774Y716806D01*
X763180Y731211D01*
X780302D01*
X780687Y729941D01*
X780328Y729702D01*
X779329Y728205D01*
X778977Y726440D01*
X779329Y724675D01*
X779640Y724209D01*
X778961Y722939D01*
X770618D01*
X770342Y723352D01*
X768845Y724352D01*
X767080Y724703D01*
X765315Y724352D01*
X763818Y723352D01*
X762819Y721855D01*
X762467Y720090D01*
X762819Y718325D01*
X763818Y716828D01*
X765315Y715828D01*
X767080Y715477D01*
X768845Y715828D01*
X770342Y716828D01*
X770618Y717241D01*
X938802D01*
X939078Y716828D01*
X940575Y715828D01*
X942340Y715477D01*
X944105Y715828D01*
X945602Y716828D01*
X946601Y718325D01*
X946953Y720090D01*
X946601Y721855D01*
X945602Y723352D01*
X944105Y724352D01*
X942340Y724703D01*
X940575Y724352D01*
X939078Y723352D01*
X938802Y722939D01*
X896169D01*
X895490Y724209D01*
X895801Y724675D01*
X896153Y726440D01*
X895801Y728205D01*
X894802Y729702D01*
X894443Y729941D01*
X894828Y731211D01*
X1070610D01*
X1070610Y731211D01*
X1071700Y731428D01*
X1072624Y732046D01*
X1092110Y751531D01*
X1106442D01*
X1106718Y751118D01*
X1108215Y750118D01*
X1109980Y749767D01*
X1111745Y750118D01*
X1113242Y751118D01*
X1114241Y752615D01*
X1114593Y754380D01*
X1114241Y756145D01*
X1113245Y757637D01*
X1113035Y757958D01*
X1113148Y759232D01*
X1113988Y760489D01*
X1114339Y762254D01*
X1113988Y764019D01*
X1113186Y765218D01*
X1113066Y766064D01*
X1113186Y766910D01*
X1113988Y768109D01*
X1114339Y769874D01*
X1113988Y771639D01*
X1112988Y773136D01*
X1111491Y774136D01*
X1109726Y774487D01*
X1107961Y774136D01*
X1106464Y773136D01*
X1106189Y772723D01*
X1086104D01*
X1086104Y772723D01*
X1085014Y772506D01*
X1084090Y771888D01*
X1060540Y748339D01*
X797470D01*
X774174Y771634D01*
X773250Y772252D01*
X772160Y772469D01*
X772160Y772469D01*
X715623D01*
X715370Y773739D01*
X716003Y774001D01*
X717993Y775527D01*
X719519Y777517D01*
X720479Y779834D01*
X720806Y782320D01*
X720479Y784806D01*
X719519Y787123D01*
X717993Y789113D01*
X716003Y790639D01*
X713686Y791599D01*
X711200Y791926D01*
X708714Y791599D01*
X706397Y790639D01*
X704407Y789113D01*
X702881Y787123D01*
X701921Y784806D01*
X701594Y782320D01*
X701921Y779834D01*
X702731Y777879D01*
X673344Y748493D01*
X672941D01*
X671817Y749243D01*
X670052Y749595D01*
X668287Y749243D01*
X666790Y748244D01*
X665790Y746747D01*
X665527Y745422D01*
X664261Y744891D01*
X661435Y747717D01*
X660104Y748606D01*
X658534Y748919D01*
X641660D01*
X641362Y750067D01*
X641376Y750189D01*
X642701Y751206D01*
X643747Y752569D01*
X644404Y754156D01*
X644628Y755859D01*
X644404Y757562D01*
X643747Y759149D01*
X642701Y760512D01*
X602524Y800689D01*
X601161Y801735D01*
X599574Y802392D01*
X597871Y802616D01*
X540794D01*
X519213Y824196D01*
X519739Y825467D01*
X1355056D01*
Y256574D01*
D02*
G37*
G36*
X1191713Y404936D02*
Y303186D01*
X1182857Y294330D01*
X1182370Y294427D01*
X1180605Y294076D01*
X1179108Y293076D01*
X1178159Y291655D01*
X1177948Y291464D01*
X1176879Y291140D01*
X1173789Y294230D01*
Y397961D01*
X1175059Y398640D01*
X1175525Y398329D01*
X1177290Y397977D01*
X1179055Y398329D01*
X1180235Y399117D01*
X1181505Y398644D01*
Y397798D01*
X1181195Y396240D01*
X1181546Y394475D01*
X1182546Y392978D01*
X1184043Y391978D01*
X1185808Y391627D01*
X1187573Y391978D01*
X1189070Y392978D01*
X1190070Y394475D01*
X1190421Y396240D01*
X1190070Y398005D01*
X1189070Y399502D01*
X1187573Y400502D01*
X1187203Y400575D01*
Y407787D01*
X1188376Y408273D01*
X1191713Y404936D01*
D02*
G37*
G36*
X398979Y409905D02*
Y380474D01*
X398566Y380198D01*
X397566Y378701D01*
X397215Y376936D01*
X397566Y375171D01*
X398566Y373674D01*
X398160Y372419D01*
X377388D01*
X376957Y373689D01*
X377633Y374207D01*
X379159Y376197D01*
X380119Y378514D01*
X380446Y381000D01*
X380119Y383486D01*
X379159Y385803D01*
X377633Y387793D01*
X375643Y389319D01*
X375010Y389581D01*
X375263Y390851D01*
X377086D01*
X377086Y390851D01*
X378176Y391068D01*
X379100Y391686D01*
X397806Y410391D01*
X398979Y409905D01*
D02*
G37*
G36*
X366670Y389581D02*
X366037Y389319D01*
X364047Y387793D01*
X362521Y385803D01*
X361561Y383486D01*
X361234Y381000D01*
X361561Y378514D01*
X362521Y376197D01*
X364047Y374207D01*
X364723Y373689D01*
X364292Y372419D01*
X358050D01*
X353909Y376559D01*
X354719Y378514D01*
X355046Y381000D01*
X354719Y383486D01*
X353759Y385803D01*
X352233Y387793D01*
X350243Y389319D01*
X349610Y389581D01*
X349863Y390851D01*
X366417D01*
X366670Y389581D01*
D02*
G37*
G36*
X1314391Y407266D02*
X1314419Y407096D01*
X1265700Y358376D01*
X1265082Y357452D01*
X1264865Y356362D01*
X1264865Y356362D01*
Y326705D01*
X1264426Y326381D01*
X1263156Y327023D01*
Y354090D01*
X1230725D01*
X1230199Y355360D01*
X1243102Y368264D01*
X1272210D01*
X1273487Y368518D01*
X1274570Y369242D01*
X1313030Y407701D01*
X1314391Y407266D01*
D02*
G37*
G36*
X1210874Y290301D02*
X1210777Y289814D01*
X1211128Y288049D01*
X1212128Y286552D01*
X1213625Y285553D01*
X1213634Y285551D01*
X1213509Y284281D01*
X1184251D01*
X1184130Y285513D01*
X1184211Y285603D01*
X1185632Y286552D01*
X1186631Y288049D01*
X1186983Y289814D01*
X1186886Y290301D01*
X1196576Y299992D01*
X1196576Y299992D01*
X1197194Y300916D01*
X1197404Y301975D01*
X1197500Y302040D01*
X1198681Y302495D01*
X1210874Y290301D01*
D02*
G37*
%LPC*%
G36*
X350000Y819022D02*
X345053Y818632D01*
X340228Y817474D01*
X335644Y815575D01*
X331413Y812982D01*
X327640Y809760D01*
X324418Y805987D01*
X321825Y801756D01*
X319926Y797172D01*
X318768Y792347D01*
X318379Y787400D01*
X318768Y782453D01*
X319926Y777628D01*
X321825Y773044D01*
X324418Y768813D01*
X327640Y765040D01*
X331413Y761818D01*
X335644Y759225D01*
X340228Y757326D01*
X345053Y756168D01*
X350000Y755779D01*
X354947Y756168D01*
X359772Y757326D01*
X364356Y759225D01*
X368587Y761818D01*
X372360Y765040D01*
X375582Y768813D01*
X378175Y773044D01*
X380074Y777628D01*
X381232Y782453D01*
X381622Y787400D01*
X381232Y792347D01*
X380074Y797172D01*
X378175Y801756D01*
X375582Y805987D01*
X372360Y809760D01*
X368587Y812982D01*
X364356Y815575D01*
X359772Y817474D01*
X354947Y818632D01*
X350000Y819022D01*
D02*
G37*
G36*
Y748818D02*
X344996Y748325D01*
X340185Y746865D01*
X335751Y744495D01*
X331865Y741305D01*
X328675Y737419D01*
X326305Y732985D01*
X324845Y728174D01*
X324352Y723170D01*
X324845Y718166D01*
X326305Y713355D01*
X328675Y708921D01*
X331865Y705034D01*
X335751Y701845D01*
X340185Y699475D01*
X344996Y698015D01*
X350000Y697523D01*
X355004Y698015D01*
X359815Y699475D01*
X364249Y701845D01*
X368135Y705034D01*
X371325Y708921D01*
X373695Y713355D01*
X375155Y718166D01*
X375648Y723170D01*
X375155Y728174D01*
X373695Y732985D01*
X371325Y737419D01*
X368135Y741305D01*
X364249Y744495D01*
X359815Y746865D01*
X355004Y748325D01*
X350000Y748818D01*
D02*
G37*
G36*
X335800Y648822D02*
X333444Y648512D01*
X331249Y647602D01*
X329364Y646156D01*
X327918Y644271D01*
X327008Y642076D01*
X326698Y639720D01*
X327008Y637364D01*
X327918Y635169D01*
X329364Y633284D01*
X331249Y631838D01*
X333444Y630928D01*
X335800Y630618D01*
X338156Y630928D01*
X340351Y631838D01*
X342236Y633284D01*
X343682Y635169D01*
X344592Y637364D01*
X344902Y639720D01*
X344592Y642076D01*
X343682Y644271D01*
X342236Y646156D01*
X340351Y647602D01*
X338156Y648512D01*
X335800Y648822D01*
D02*
G37*
G36*
X364200Y634972D02*
X361844Y634662D01*
X359649Y633752D01*
X357764Y632306D01*
X356318Y630421D01*
X355408Y628226D01*
X355098Y625870D01*
X355408Y623514D01*
X356318Y621319D01*
X357764Y619434D01*
X359649Y617988D01*
X361844Y617078D01*
X364200Y616768D01*
X366556Y617078D01*
X368751Y617988D01*
X370636Y619434D01*
X372082Y621319D01*
X372992Y623514D01*
X373302Y625870D01*
X372992Y628226D01*
X372082Y630421D01*
X370636Y632306D01*
X368751Y633752D01*
X366556Y634662D01*
X364200Y634972D01*
D02*
G37*
G36*
X335800Y621122D02*
X333444Y620812D01*
X331249Y619902D01*
X329364Y618456D01*
X327918Y616571D01*
X327008Y614376D01*
X326698Y612020D01*
X327008Y609664D01*
X327918Y607469D01*
X329364Y605584D01*
X331249Y604138D01*
X333444Y603228D01*
X335800Y602918D01*
X338156Y603228D01*
X340351Y604138D01*
X342236Y605584D01*
X343682Y607469D01*
X344592Y609664D01*
X344902Y612020D01*
X344592Y614376D01*
X343682Y616571D01*
X342236Y618456D01*
X340351Y619902D01*
X338156Y620812D01*
X335800Y621122D01*
D02*
G37*
G36*
X364200Y607272D02*
X361844Y606962D01*
X359649Y606052D01*
X357764Y604606D01*
X356318Y602721D01*
X355408Y600526D01*
X355098Y598170D01*
X355408Y595814D01*
X356318Y593619D01*
X357764Y591734D01*
X359649Y590288D01*
X361844Y589378D01*
X364200Y589068D01*
X366556Y589378D01*
X368751Y590288D01*
X370636Y591734D01*
X372082Y593619D01*
X372992Y595814D01*
X373302Y598170D01*
X372992Y600526D01*
X372082Y602721D01*
X370636Y604606D01*
X368751Y606052D01*
X366556Y606962D01*
X364200Y607272D01*
D02*
G37*
G36*
X335800Y593422D02*
X333444Y593112D01*
X331249Y592202D01*
X329364Y590756D01*
X327918Y588871D01*
X327008Y586676D01*
X326698Y584320D01*
X327008Y581964D01*
X327918Y579769D01*
X329364Y577884D01*
X331249Y576438D01*
X333444Y575528D01*
X335800Y575218D01*
X338156Y575528D01*
X340351Y576438D01*
X342236Y577884D01*
X343682Y579769D01*
X344592Y581964D01*
X344902Y584320D01*
X344592Y586676D01*
X343682Y588871D01*
X342236Y590756D01*
X340351Y592202D01*
X338156Y593112D01*
X335800Y593422D01*
D02*
G37*
G36*
X364200Y579572D02*
X361844Y579262D01*
X359649Y578352D01*
X357764Y576906D01*
X356318Y575021D01*
X355408Y572826D01*
X355098Y570470D01*
X355408Y568114D01*
X356318Y565919D01*
X357764Y564034D01*
X359649Y562588D01*
X361844Y561678D01*
X364200Y561368D01*
X366556Y561678D01*
X368751Y562588D01*
X370636Y564034D01*
X372082Y565919D01*
X372992Y568114D01*
X373302Y570470D01*
X372992Y572826D01*
X372082Y575021D01*
X370636Y576906D01*
X368751Y578352D01*
X366556Y579262D01*
X364200Y579572D01*
D02*
G37*
G36*
X335800Y565722D02*
X333444Y565412D01*
X331249Y564502D01*
X329364Y563056D01*
X327918Y561171D01*
X327008Y558976D01*
X326698Y556620D01*
X327008Y554264D01*
X327918Y552069D01*
X329364Y550184D01*
X331249Y548738D01*
X333444Y547828D01*
X335800Y547518D01*
X338156Y547828D01*
X340351Y548738D01*
X342236Y550184D01*
X343682Y552069D01*
X344592Y554264D01*
X344902Y556620D01*
X344592Y558976D01*
X343682Y561171D01*
X342236Y563056D01*
X340351Y564502D01*
X338156Y565412D01*
X335800Y565722D01*
D02*
G37*
G36*
X373224Y551794D02*
X355176D01*
Y533746D01*
X373224D01*
Y551794D01*
D02*
G37*
G36*
X350000Y498817D02*
X344996Y498325D01*
X340185Y496865D01*
X335751Y494495D01*
X331865Y491306D01*
X328675Y487419D01*
X326305Y482985D01*
X324845Y478174D01*
X324352Y473170D01*
X324845Y468166D01*
X326305Y463355D01*
X328675Y458921D01*
X331865Y455034D01*
X335751Y451845D01*
X340185Y449475D01*
X344996Y448015D01*
X350000Y447523D01*
X355004Y448015D01*
X359815Y449475D01*
X364249Y451845D01*
X368135Y455034D01*
X371325Y458921D01*
X373695Y463355D01*
X375155Y468166D01*
X375648Y473170D01*
X375155Y478174D01*
X373695Y482985D01*
X371325Y487419D01*
X368135Y491306D01*
X364249Y494495D01*
X359815Y496865D01*
X355004Y498325D01*
X350000Y498817D01*
D02*
G37*
G36*
X345440Y365206D02*
X342954Y364879D01*
X340637Y363919D01*
X338647Y362393D01*
X337121Y360403D01*
X336161Y358086D01*
X335834Y355600D01*
X336161Y353114D01*
X337121Y350797D01*
X338647Y348807D01*
X340637Y347281D01*
X342954Y346321D01*
X345440Y345994D01*
X347926Y346321D01*
X349881Y347131D01*
X358666Y338346D01*
X358666Y338346D01*
X359590Y337728D01*
X360680Y337511D01*
X360680Y337511D01*
X386334D01*
X386334Y337511D01*
X387424Y337728D01*
X388348Y338346D01*
X401341Y351338D01*
X401828Y351241D01*
X403593Y351592D01*
X405090Y352592D01*
X406090Y354089D01*
X406441Y355854D01*
X406090Y357619D01*
X405090Y359116D01*
X403593Y360116D01*
X401828Y360467D01*
X400063Y360116D01*
X398566Y359116D01*
X397566Y357619D01*
X397215Y355854D01*
X397312Y355367D01*
X393182Y351237D01*
X392196Y352047D01*
X392258Y352140D01*
X392882Y353073D01*
X393233Y354838D01*
X392882Y356603D01*
X391882Y358100D01*
X390385Y359100D01*
X388620Y359451D01*
X386855Y359100D01*
X385358Y358100D01*
X385083Y357687D01*
X380364D01*
Y365124D01*
X361316D01*
Y346076D01*
X380364D01*
Y351989D01*
X385083D01*
X385358Y351576D01*
X386855Y350577D01*
X388620Y350225D01*
X390385Y350577D01*
X391318Y351200D01*
X391411Y351262D01*
X392221Y350276D01*
X385154Y343209D01*
X361860D01*
X353909Y351159D01*
X354719Y353114D01*
X355046Y355600D01*
X354719Y358086D01*
X353759Y360403D01*
X352233Y362393D01*
X350243Y363919D01*
X347926Y364879D01*
X345440Y365206D01*
D02*
G37*
G36*
X419354Y324907D02*
X417589Y324556D01*
X416092Y323556D01*
X415093Y322059D01*
X414741Y320294D01*
X415093Y318529D01*
X416092Y317032D01*
X416505Y316756D01*
Y311704D01*
X412576D01*
Y299656D01*
X425624D01*
Y311704D01*
X422203D01*
Y316756D01*
X422616Y317032D01*
X423615Y318529D01*
X423967Y320294D01*
X423615Y322059D01*
X422616Y323556D01*
X421119Y324556D01*
X419354Y324907D01*
D02*
G37*
G36*
X350000Y331342D02*
X345053Y330952D01*
X340228Y329794D01*
X335644Y327895D01*
X331413Y325302D01*
X327640Y322080D01*
X324418Y318307D01*
X321825Y314076D01*
X319926Y309492D01*
X318768Y304667D01*
X318379Y299720D01*
X318768Y294773D01*
X319926Y289948D01*
X321825Y285364D01*
X324418Y281133D01*
X327640Y277360D01*
X331413Y274138D01*
X335644Y271545D01*
X340228Y269646D01*
X345053Y268488D01*
X350000Y268099D01*
X354947Y268488D01*
X359772Y269646D01*
X364356Y271545D01*
X368587Y274138D01*
X372360Y277360D01*
X375582Y281133D01*
X378175Y285364D01*
X380074Y289948D01*
X381232Y294773D01*
X381622Y299720D01*
X381232Y304667D01*
X380074Y309492D01*
X378175Y314076D01*
X375582Y318307D01*
X372360Y322080D01*
X368587Y325302D01*
X364356Y327895D01*
X359772Y329794D01*
X354947Y330952D01*
X350000Y331342D01*
D02*
G37*
G36*
X758190Y760263D02*
X756425Y759911D01*
X756187Y759753D01*
X738603D01*
X738365Y759911D01*
X736600Y760263D01*
X734835Y759911D01*
X733338Y758912D01*
X732338Y757415D01*
X731987Y755650D01*
X732338Y753885D01*
X733338Y752388D01*
X734835Y751388D01*
X736600Y751037D01*
X738365Y751388D01*
X738603Y751547D01*
X756187D01*
X756425Y751388D01*
X758190Y751037D01*
X759955Y751388D01*
X761452Y752388D01*
X762451Y753885D01*
X762803Y755650D01*
X762451Y757415D01*
X761452Y758912D01*
X759955Y759911D01*
X758190Y760263D01*
D02*
G37*
G36*
X515794Y683054D02*
X502746D01*
Y679790D01*
X501476Y679611D01*
X501102Y680172D01*
X499605Y681171D01*
X497840Y681523D01*
X496075Y681171D01*
X494578Y680172D01*
X493578Y678675D01*
X493227Y676910D01*
X493578Y675145D01*
X494578Y673648D01*
X496075Y672648D01*
X497840Y672297D01*
X499605Y672648D01*
X501102Y673648D01*
X501124Y673681D01*
X502746D01*
Y670006D01*
X515794D01*
Y673461D01*
X528950D01*
X529053Y673482D01*
X535450D01*
X536532Y673697D01*
X537450Y674310D01*
X538063Y675228D01*
X538278Y676310D01*
X538063Y677392D01*
X537450Y678310D01*
X536532Y678923D01*
X535450Y679138D01*
X529053D01*
X528950Y679159D01*
X515794D01*
Y683054D01*
D02*
G37*
G36*
X1049376Y539344D02*
X1027328D01*
Y517296D01*
X1049376D01*
Y539344D01*
D02*
G37*
G36*
X962152Y539439D02*
X959274Y539060D01*
X956592Y537949D01*
X954290Y536182D01*
X952523Y533880D01*
X951412Y531198D01*
X951033Y528320D01*
X951412Y525442D01*
X952523Y522760D01*
X954290Y520458D01*
X956592Y518691D01*
X959274Y517580D01*
X962152Y517201D01*
X965030Y517580D01*
X967712Y518691D01*
X970014Y520458D01*
X971781Y522760D01*
X972892Y525442D01*
X973271Y528320D01*
X972892Y531198D01*
X971781Y533880D01*
X970014Y536182D01*
X967712Y537949D01*
X965030Y539060D01*
X962152Y539439D01*
D02*
G37*
G36*
X918566Y539090D02*
X896518D01*
Y517042D01*
X918566D01*
Y539090D01*
D02*
G37*
G36*
X1087374Y538677D02*
X1084496Y538298D01*
X1081814Y537187D01*
X1079512Y535420D01*
X1077745Y533118D01*
X1076634Y530436D01*
X1076255Y527558D01*
X1076634Y524680D01*
X1077745Y521998D01*
X1079512Y519696D01*
X1081814Y517929D01*
X1084496Y516818D01*
X1087374Y516439D01*
X1090252Y516818D01*
X1092934Y517929D01*
X1095236Y519696D01*
X1097003Y521998D01*
X1098114Y524680D01*
X1098493Y527558D01*
X1098114Y530436D01*
X1097003Y533118D01*
X1095236Y535420D01*
X1092934Y537187D01*
X1090252Y538298D01*
X1087374Y538677D01*
D02*
G37*
G36*
X532994Y539598D02*
X510946D01*
Y517550D01*
X532994D01*
Y539598D01*
D02*
G37*
G36*
X676910Y324145D02*
X675145Y323793D01*
X673648Y322794D01*
X672648Y321297D01*
X672297Y319532D01*
X672648Y317767D01*
X673648Y316270D01*
X674061Y315994D01*
Y311704D01*
X670386D01*
Y299656D01*
X683434D01*
Y311704D01*
X679759D01*
Y315994D01*
X680172Y316270D01*
X681171Y317767D01*
X681523Y319532D01*
X681171Y321297D01*
X680172Y322794D01*
X678675Y323793D01*
X676910Y324145D01*
D02*
G37*
G36*
X548894Y325669D02*
X547129Y325317D01*
X545632Y324318D01*
X544632Y322821D01*
X544281Y321056D01*
X544632Y319291D01*
X545632Y317794D01*
X546045Y317519D01*
Y311704D01*
X542370D01*
Y299656D01*
X555418D01*
Y311704D01*
X551743D01*
Y317519D01*
X552156Y317794D01*
X553156Y319291D01*
X553507Y321056D01*
X553156Y322821D01*
X552156Y324318D01*
X550659Y325317D01*
X548894Y325669D01*
D02*
G37*
G36*
X1018540Y813535D02*
X1016706Y813293D01*
X1014998Y812585D01*
X1013530Y811460D01*
X1012405Y809992D01*
X1011697Y808284D01*
X1011455Y806450D01*
X1011697Y804616D01*
X1012405Y802908D01*
X1013530Y801440D01*
X1014998Y800315D01*
X1016706Y799607D01*
X1018540Y799365D01*
X1020374Y799607D01*
X1022082Y800315D01*
X1023550Y801440D01*
X1024675Y802908D01*
X1025383Y804616D01*
X1025625Y806450D01*
X1025383Y808284D01*
X1024675Y809992D01*
X1023550Y811460D01*
X1022082Y812585D01*
X1020374Y813293D01*
X1018540Y813535D01*
D02*
G37*
G36*
X967740D02*
X965906Y813293D01*
X964198Y812585D01*
X962730Y811460D01*
X961605Y809992D01*
X960897Y808284D01*
X960655Y806450D01*
X960897Y804616D01*
X961605Y802908D01*
X962730Y801440D01*
X964198Y800315D01*
X965906Y799607D01*
X967740Y799365D01*
X969574Y799607D01*
X971282Y800315D01*
X972750Y801440D01*
X973875Y802908D01*
X974583Y804616D01*
X974825Y806450D01*
X974583Y808284D01*
X973875Y809992D01*
X972750Y811460D01*
X971282Y812585D01*
X969574Y813293D01*
X967740Y813535D01*
D02*
G37*
G36*
X942340D02*
X940506Y813293D01*
X938798Y812585D01*
X937330Y811460D01*
X936205Y809992D01*
X935497Y808284D01*
X935255Y806450D01*
X935497Y804616D01*
X936205Y802908D01*
X937330Y801440D01*
X938798Y800315D01*
X940506Y799607D01*
X942340Y799365D01*
X944174Y799607D01*
X945882Y800315D01*
X947350Y801440D01*
X948475Y802908D01*
X949183Y804616D01*
X949425Y806450D01*
X949183Y808284D01*
X948475Y809992D01*
X947350Y811460D01*
X945882Y812585D01*
X944174Y813293D01*
X942340Y813535D01*
D02*
G37*
G36*
X916940D02*
X915106Y813293D01*
X913398Y812585D01*
X911930Y811460D01*
X910805Y809992D01*
X910097Y808284D01*
X909855Y806450D01*
X910097Y804616D01*
X910805Y802908D01*
X911930Y801440D01*
X913398Y800315D01*
X915106Y799607D01*
X916940Y799365D01*
X918774Y799607D01*
X920482Y800315D01*
X921950Y801440D01*
X923075Y802908D01*
X923783Y804616D01*
X924025Y806450D01*
X923783Y808284D01*
X923075Y809992D01*
X921950Y811460D01*
X920482Y812585D01*
X918774Y813293D01*
X916940Y813535D01*
D02*
G37*
G36*
X891540D02*
X889706Y813293D01*
X887998Y812585D01*
X886530Y811460D01*
X885405Y809992D01*
X884697Y808284D01*
X884455Y806450D01*
X884697Y804616D01*
X885405Y802908D01*
X886530Y801440D01*
X887998Y800315D01*
X889706Y799607D01*
X891540Y799365D01*
X893374Y799607D01*
X895082Y800315D01*
X896550Y801440D01*
X897675Y802908D01*
X898383Y804616D01*
X898625Y806450D01*
X898383Y808284D01*
X897675Y809992D01*
X896550Y811460D01*
X895082Y812585D01*
X893374Y813293D01*
X891540Y813535D01*
D02*
G37*
G36*
X866140D02*
X864306Y813293D01*
X862598Y812585D01*
X861130Y811460D01*
X860005Y809992D01*
X859297Y808284D01*
X859055Y806450D01*
X859297Y804616D01*
X860005Y802908D01*
X861130Y801440D01*
X862598Y800315D01*
X864306Y799607D01*
X866140Y799365D01*
X867974Y799607D01*
X869682Y800315D01*
X871150Y801440D01*
X872275Y802908D01*
X872983Y804616D01*
X873225Y806450D01*
X872983Y808284D01*
X872275Y809992D01*
X871150Y811460D01*
X869682Y812585D01*
X867974Y813293D01*
X866140Y813535D01*
D02*
G37*
G36*
X840740D02*
X838906Y813293D01*
X837198Y812585D01*
X835730Y811460D01*
X834605Y809992D01*
X833897Y808284D01*
X833655Y806450D01*
X833897Y804616D01*
X834605Y802908D01*
X835730Y801440D01*
X837198Y800315D01*
X838906Y799607D01*
X840740Y799365D01*
X842574Y799607D01*
X844282Y800315D01*
X845750Y801440D01*
X846875Y802908D01*
X847583Y804616D01*
X847825Y806450D01*
X847583Y808284D01*
X846875Y809992D01*
X845750Y811460D01*
X844282Y812585D01*
X842574Y813293D01*
X840740Y813535D01*
D02*
G37*
G36*
X967740Y795823D02*
X965975Y795471D01*
X964478Y794472D01*
X964202Y794059D01*
X821417D01*
X821142Y794472D01*
X819645Y795471D01*
X817880Y795823D01*
X816115Y795471D01*
X814618Y794472D01*
X813618Y792975D01*
X813267Y791210D01*
X813618Y789445D01*
X814618Y787948D01*
X816115Y786948D01*
X816975Y786777D01*
Y785483D01*
X816115Y785312D01*
X814618Y784312D01*
X813618Y782815D01*
X813267Y781050D01*
X813618Y779285D01*
X814618Y777788D01*
X816115Y776788D01*
X817880Y776437D01*
X819645Y776788D01*
X821142Y777788D01*
X821417Y778201D01*
X862602D01*
X862878Y777788D01*
X864375Y776788D01*
X866140Y776437D01*
X867905Y776788D01*
X869402Y777788D01*
X870402Y779285D01*
X870753Y781050D01*
X870402Y782815D01*
X869402Y784312D01*
X867905Y785312D01*
X866140Y785663D01*
X864375Y785312D01*
X862878Y784312D01*
X862602Y783899D01*
X821417D01*
X821142Y784312D01*
X819645Y785312D01*
X818785Y785483D01*
Y786777D01*
X819645Y786948D01*
X821142Y787948D01*
X821417Y788361D01*
X964202D01*
X964478Y787948D01*
X965975Y786948D01*
X967740Y786597D01*
X969505Y786948D01*
X971002Y787948D01*
X972001Y789445D01*
X972353Y791210D01*
X972001Y792975D01*
X971002Y794472D01*
X969505Y795471D01*
X967740Y795823D01*
D02*
G37*
G36*
X916940Y776773D02*
X915175Y776422D01*
X913678Y775422D01*
X913402Y775009D01*
X831578D01*
X831302Y775422D01*
X829805Y776422D01*
X828040Y776773D01*
X826275Y776422D01*
X824778Y775422D01*
X823779Y773925D01*
X823427Y772160D01*
X823779Y770395D01*
X824778Y768898D01*
X826275Y767898D01*
X828040Y767547D01*
X829805Y767898D01*
X831302Y768898D01*
X831578Y769311D01*
X913402D01*
X913678Y768898D01*
X915175Y767898D01*
X916940Y767547D01*
X918705Y767898D01*
X920202Y768898D01*
X921201Y770395D01*
X921553Y772160D01*
X921201Y773925D01*
X920202Y775422D01*
X918705Y776422D01*
X916940Y776773D01*
D02*
G37*
G36*
X720724Y817244D02*
X701676D01*
Y798196D01*
X720724D01*
Y804871D01*
X745580D01*
X793044Y757407D01*
X792947Y756920D01*
X793298Y755155D01*
X794298Y753658D01*
X795795Y752658D01*
X797560Y752307D01*
X799325Y752658D01*
X800822Y753658D01*
X801822Y755155D01*
X802173Y756920D01*
X801822Y758685D01*
X800822Y760182D01*
X799325Y761181D01*
X797560Y761533D01*
X797073Y761436D01*
X748774Y809734D01*
X747850Y810352D01*
X746760Y810569D01*
X746760Y810569D01*
X720724D01*
Y817244D01*
D02*
G37*
G36*
X847764Y711874D02*
X833716D01*
Y697826D01*
X847764D01*
Y711874D01*
D02*
G37*
G36*
X1018540Y711935D02*
X1016706Y711693D01*
X1014998Y710985D01*
X1013530Y709860D01*
X1012405Y708392D01*
X1011697Y706684D01*
X1011455Y704850D01*
X1011697Y703016D01*
X1012405Y701308D01*
X1013530Y699840D01*
X1014998Y698715D01*
X1016706Y698007D01*
X1018540Y697765D01*
X1020374Y698007D01*
X1022082Y698715D01*
X1023550Y699840D01*
X1024675Y701308D01*
X1025383Y703016D01*
X1025625Y704850D01*
X1025383Y706684D01*
X1024675Y708392D01*
X1023550Y709860D01*
X1022082Y710985D01*
X1020374Y711693D01*
X1018540Y711935D01*
D02*
G37*
G36*
X993140D02*
X991306Y711693D01*
X989598Y710985D01*
X988130Y709860D01*
X987005Y708392D01*
X986297Y706684D01*
X986055Y704850D01*
X986297Y703016D01*
X987005Y701308D01*
X988130Y699840D01*
X989598Y698715D01*
X991306Y698007D01*
X993140Y697765D01*
X994974Y698007D01*
X996682Y698715D01*
X998150Y699840D01*
X999275Y701308D01*
X999983Y703016D01*
X1000225Y704850D01*
X999983Y706684D01*
X999275Y708392D01*
X998150Y709860D01*
X996682Y710985D01*
X994974Y711693D01*
X993140Y711935D01*
D02*
G37*
G36*
X967740D02*
X965906Y711693D01*
X964198Y710985D01*
X962730Y709860D01*
X961605Y708392D01*
X960897Y706684D01*
X960655Y704850D01*
X960897Y703016D01*
X961605Y701308D01*
X962730Y699840D01*
X964198Y698715D01*
X965906Y698007D01*
X967740Y697765D01*
X969574Y698007D01*
X971282Y698715D01*
X972750Y699840D01*
X973875Y701308D01*
X974583Y703016D01*
X974825Y704850D01*
X974583Y706684D01*
X973875Y708392D01*
X972750Y709860D01*
X971282Y710985D01*
X969574Y711693D01*
X967740Y711935D01*
D02*
G37*
G36*
X942340D02*
X940506Y711693D01*
X938798Y710985D01*
X937330Y709860D01*
X936205Y708392D01*
X935497Y706684D01*
X935255Y704850D01*
X935497Y703016D01*
X936205Y701308D01*
X937330Y699840D01*
X938798Y698715D01*
X940506Y698007D01*
X942340Y697765D01*
X944174Y698007D01*
X945882Y698715D01*
X947350Y699840D01*
X948475Y701308D01*
X949183Y703016D01*
X949425Y704850D01*
X949183Y706684D01*
X948475Y708392D01*
X947350Y709860D01*
X945882Y710985D01*
X944174Y711693D01*
X942340Y711935D01*
D02*
G37*
G36*
X891540D02*
X889706Y711693D01*
X887998Y710985D01*
X886530Y709860D01*
X885405Y708392D01*
X884697Y706684D01*
X884455Y704850D01*
X884697Y703016D01*
X885405Y701308D01*
X886530Y699840D01*
X887998Y698715D01*
X889706Y698007D01*
X891540Y697765D01*
X893374Y698007D01*
X895082Y698715D01*
X896550Y699840D01*
X897675Y701308D01*
X898383Y703016D01*
X898625Y704850D01*
X898383Y706684D01*
X897675Y708392D01*
X896550Y709860D01*
X895082Y710985D01*
X893374Y711693D01*
X891540Y711935D01*
D02*
G37*
G36*
X866140D02*
X864306Y711693D01*
X862598Y710985D01*
X861130Y709860D01*
X860005Y708392D01*
X859297Y706684D01*
X859055Y704850D01*
X859297Y703016D01*
X860005Y701308D01*
X861130Y699840D01*
X862598Y698715D01*
X864306Y698007D01*
X866140Y697765D01*
X867974Y698007D01*
X869682Y698715D01*
X871150Y699840D01*
X872275Y701308D01*
X872983Y703016D01*
X873225Y704850D01*
X872983Y706684D01*
X872275Y708392D01*
X871150Y709860D01*
X869682Y710985D01*
X867974Y711693D01*
X866140Y711935D01*
D02*
G37*
G36*
X1207570Y635230D02*
X1205867Y635006D01*
X1204280Y634349D01*
X1202917Y633303D01*
X1202048Y632170D01*
X1201370Y632048D01*
X1201270D01*
X1200592Y632170D01*
X1199723Y633303D01*
X1198360Y634349D01*
X1196773Y635006D01*
X1195070Y635230D01*
X1193367Y635006D01*
X1191780Y634349D01*
X1190417Y633303D01*
X1189548Y632170D01*
X1188870Y632048D01*
X1188770D01*
X1188092Y632170D01*
X1187223Y633303D01*
X1185860Y634349D01*
X1184273Y635006D01*
X1182570Y635230D01*
X1180867Y635006D01*
X1179280Y634349D01*
X1177917Y633303D01*
X1177048Y632170D01*
X1176370Y632048D01*
X1176270D01*
X1175592Y632170D01*
X1174723Y633303D01*
X1173360Y634349D01*
X1171773Y635006D01*
X1170070Y635230D01*
X1168367Y635006D01*
X1166780Y634349D01*
X1165417Y633303D01*
X1164371Y631940D01*
X1163714Y630353D01*
X1163490Y628650D01*
X1163714Y626947D01*
X1164371Y625360D01*
X1165417Y623997D01*
X1166780Y622951D01*
X1168367Y622294D01*
X1170070Y622070D01*
X1171773Y622294D01*
X1173360Y622951D01*
X1174723Y623997D01*
X1175592Y625130D01*
X1176270Y625252D01*
X1176370D01*
X1177048Y625130D01*
X1177917Y623997D01*
X1179280Y622951D01*
X1180867Y622294D01*
X1182570Y622070D01*
X1184273Y622294D01*
X1185860Y622951D01*
X1187223Y623997D01*
X1188092Y625130D01*
X1188770Y625252D01*
X1188870D01*
X1189548Y625130D01*
X1190417Y623997D01*
X1191780Y622951D01*
X1193367Y622294D01*
X1195070Y622070D01*
X1196773Y622294D01*
X1198360Y622951D01*
X1199723Y623997D01*
X1200592Y625130D01*
X1201270Y625252D01*
X1201370D01*
X1202048Y625130D01*
X1202917Y623997D01*
X1204280Y622951D01*
X1205867Y622294D01*
X1207570Y622070D01*
X1209273Y622294D01*
X1210860Y622951D01*
X1212223Y623997D01*
X1213269Y625360D01*
X1213926Y626947D01*
X1214150Y628650D01*
X1213926Y630353D01*
X1213269Y631940D01*
X1212223Y633303D01*
X1210860Y634349D01*
X1209273Y635006D01*
X1207570Y635230D01*
D02*
G37*
G36*
X1305306Y333881D02*
X1300359Y333492D01*
X1295534Y332334D01*
X1290950Y330435D01*
X1286719Y327842D01*
X1282946Y324620D01*
X1279724Y320847D01*
X1277131Y316616D01*
X1275232Y312032D01*
X1274074Y307207D01*
X1273684Y302260D01*
X1274074Y297313D01*
X1275232Y292488D01*
X1277131Y287904D01*
X1279724Y283673D01*
X1282946Y279900D01*
X1286719Y276678D01*
X1290950Y274085D01*
X1295534Y272186D01*
X1300359Y271028D01*
X1305306Y270639D01*
X1310253Y271028D01*
X1315078Y272186D01*
X1319662Y274085D01*
X1323893Y276678D01*
X1327666Y279900D01*
X1330888Y283673D01*
X1333481Y287904D01*
X1335380Y292488D01*
X1336538Y297313D01*
X1336927Y302260D01*
X1336538Y307207D01*
X1335380Y312032D01*
X1333481Y316616D01*
X1330888Y320847D01*
X1327666Y324620D01*
X1323893Y327842D01*
X1319662Y330435D01*
X1315078Y332334D01*
X1310253Y333492D01*
X1305306Y333881D01*
D02*
G37*
%LPD*%
D11*
X627888Y500380D02*
X629998Y498270D01*
X634570Y502334D02*
X711757D01*
X624640Y512264D02*
X634570Y502334D01*
X637872Y506398D02*
X719152D01*
X630434Y513836D02*
X637872Y506398D01*
X634498Y515519D02*
Y534513D01*
Y515519D02*
X639555Y510462D01*
X728328D01*
X618846Y508818D02*
X622266Y505398D01*
X610718Y501802D02*
Y551461D01*
Y501802D02*
X622378Y490142D01*
X606654Y498913D02*
X619489Y486078D01*
X606654Y498913D02*
Y549778D01*
X602590Y497230D02*
Y548095D01*
Y497230D02*
X617806Y482014D01*
X598526Y495547D02*
X616123Y477950D01*
X598526Y495547D02*
Y546411D01*
X594462Y493863D02*
Y544728D01*
Y493863D02*
X614439Y473886D01*
X590398Y492180D02*
X613234Y469344D01*
X590398Y492180D02*
Y543045D01*
X586334Y490497D02*
Y541361D01*
Y490497D02*
X613281Y463550D01*
X614782Y504688D02*
Y553145D01*
Y504688D02*
X625264Y494206D01*
X564642Y489712D02*
X564896Y489458D01*
X624640Y512264D02*
Y516986D01*
X630434Y513836D02*
Y522726D01*
X660897Y539598D02*
X684621Y515874D01*
X658200Y539598D02*
X660897D01*
X650892Y546906D02*
X658200Y539598D01*
X658368Y547624D02*
X658619D01*
X652987Y561199D02*
X668848Y545338D01*
X742605Y542290D02*
X769123Y515772D01*
X676402Y542290D02*
X742605D01*
X673656Y539544D02*
X676402Y542290D01*
X684621Y515874D02*
X727993D01*
X650892Y546906D02*
Y552278D01*
X658619Y547624D02*
X666699Y539544D01*
X673656D01*
X657559Y565263D02*
X676420Y546402D01*
X853996D01*
X653363Y565263D02*
X657559D01*
X657069Y571500D02*
X676373Y552196D01*
X655320Y571500D02*
X657069D01*
X676373Y552196D02*
X845820D01*
X668848Y545338D02*
X669290D01*
X656590Y588706D02*
Y589280D01*
Y588706D02*
X681114Y564182D01*
X639450Y601310D02*
X661099D01*
X639450Y606310D02*
X661846D01*
X673796Y594360D01*
X661099Y601310D02*
X675669Y586740D01*
X651680Y561199D02*
X652987D01*
X645462Y567417D02*
X651680Y561199D01*
X649526Y569100D02*
X653363Y565263D01*
X645462Y567417D02*
Y575008D01*
X643890Y543905D02*
Y548640D01*
X634498Y534513D02*
X643890Y543905D01*
X856790Y549196D02*
X1122220D01*
X853996Y546402D02*
X856790Y549196D01*
X676166Y560118D02*
X874570D01*
X655894Y580390D02*
X676166Y560118D01*
X711757Y502334D02*
X721887Y492204D01*
X700551Y498270D02*
X705347Y493474D01*
X629998Y498270D02*
X700551D01*
X698868Y494206D02*
X705394Y487680D01*
X625264Y494206D02*
X698868D01*
X697185Y490142D02*
X709045Y478282D01*
X622378Y490142D02*
X697185D01*
X695501Y486078D02*
X707615Y473964D01*
X619489Y486078D02*
X695501D01*
X693818Y482014D02*
X705932Y469900D01*
X617806Y482014D02*
X693818D01*
X692484Y474218D02*
X693420D01*
X688752Y477950D02*
X692484Y474218D01*
X616123Y477950D02*
X688752D01*
X684579Y473886D02*
X691867Y466598D01*
X614439Y473886D02*
X684579D01*
X682896Y469822D02*
X692724Y459994D01*
X649409Y469822D02*
X682896D01*
X727993Y515874D02*
X737597Y525478D01*
X721887Y492204D02*
X726996D01*
X733806Y485394D01*
X705347Y493474D02*
X714870D01*
X721934Y486410D01*
X649526Y569100D02*
Y577294D01*
X746967Y568246D02*
X753269Y574548D01*
X686514Y568246D02*
X746967D01*
X665480Y589280D02*
X686514Y568246D01*
X681114Y564182D02*
X748651D01*
X751905Y567436D01*
X966724D01*
X753269Y574548D02*
X1029208D01*
X747014Y574040D02*
X757682Y584708D01*
X701040Y574040D02*
X747014D01*
X757682Y584708D02*
X1086866D01*
X1087374Y585216D01*
X743600Y591360D02*
X778510Y626270D01*
X743600Y589360D02*
Y591360D01*
X739870Y585630D02*
X743600Y589360D01*
X765810Y593090D02*
X1013206D01*
X737870Y585630D02*
X739870D01*
X778510Y626270D02*
Y648970D01*
X1013206Y593090D02*
X1013714Y592582D01*
X720900Y585630D02*
X737870D01*
X769123Y515772D02*
X840740D01*
X870100Y545132D01*
X1094438D01*
X1116330Y523240D01*
X1122220Y549196D02*
X1122680Y549656D01*
X1122396Y478282D02*
X1194562Y406116D01*
X709045Y478282D02*
X1122396D01*
X1120967Y473964D02*
X1184354Y410577D01*
X707615Y473964D02*
X1120967D01*
X1119331Y469852D02*
X1177290Y411893D01*
X1061891Y469852D02*
X1119331D01*
X1061843Y469900D02*
X1061891Y469852D01*
X1242314Y337566D02*
X1252474Y327406D01*
X1117648Y465788D02*
X1170940Y412496D01*
X731914Y465788D02*
X1117648D01*
X727136Y461010D02*
X731914Y465788D01*
X733806Y485394D02*
X920750D01*
X705932Y469900D02*
X1061843D01*
X722630Y461010D02*
X727136D01*
X924166Y491188D02*
X927420Y487934D01*
X734362Y491188D02*
X924166D01*
X719152Y506398D02*
X734362Y491188D01*
X764707Y511708D02*
X932383D01*
X750937Y525478D02*
X764707Y511708D01*
X932383D02*
X934107Y509984D01*
X763023Y507644D02*
X930699D01*
X749253Y521414D02*
X763023Y507644D01*
X930699D02*
X932423Y505920D01*
X761340Y503580D02*
X929016D01*
X749300Y515620D02*
X761340Y503580D01*
X929016D02*
X930740Y501856D01*
X756514Y499516D02*
X927333D01*
X748030Y508000D02*
X756514Y499516D01*
X927333D02*
X929057Y497792D01*
X747878Y495452D02*
X925649D01*
X741124Y502206D02*
X747878Y495452D01*
X925649D02*
X927373Y493728D01*
X736854Y459486D02*
X783082D01*
X794004Y448310D02*
X805688Y459994D01*
X794004Y301498D02*
Y448310D01*
X926338Y443230D02*
X942086Y458978D01*
X926338Y298450D02*
Y443230D01*
X1061974Y456090D02*
Y458470D01*
X1055878Y449994D02*
X1061974Y456090D01*
X1055878Y336550D02*
Y449994D01*
Y336550D02*
X1068244Y324184D01*
X1223010Y455930D02*
X1228598Y450342D01*
X1165925Y455930D02*
X1223010D01*
X1166527Y449580D02*
X1194816D01*
X1199642Y305562D02*
Y406783D01*
X1129030Y477395D02*
X1199642Y406783D01*
X1129030Y477395D02*
Y487680D01*
X1194562Y302006D02*
Y406116D01*
X1184354Y396796D02*
Y410577D01*
X1177290Y402590D02*
Y411893D01*
X1170940Y293050D02*
Y412496D01*
X1182370Y289814D02*
X1194562Y302006D01*
X1199642Y305562D02*
X1215390Y289814D01*
X1111964Y509984D02*
X1125220Y523240D01*
X934107Y509984D02*
X1111964D01*
X932423Y505920D02*
X1118060D01*
X930740Y501856D02*
X1165653D01*
X929057Y497792D02*
X1167336D01*
X927373Y493728D02*
X1206198D01*
X1118060Y505920D02*
X1135380Y523240D01*
X1165653Y501856D02*
X1238806Y575009D01*
X1167336Y497792D02*
X1244600Y575056D01*
X1206198Y493728D02*
X1218264Y505794D01*
X927420Y487934D02*
X1053846D01*
X1071880Y693420D02*
X1190244Y575056D01*
X1190498D01*
X1179322Y568198D02*
X1223772D01*
X1265348Y505794D02*
X1265896Y505246D01*
X1218264Y505794D02*
X1265348D01*
X1238806Y575009D02*
Y756206D01*
X1244600Y575056D02*
Y646430D01*
X624640Y528520D02*
X630434Y522726D01*
X668910Y681990D02*
Y685800D01*
X618846Y508818D02*
Y549376D01*
X581700Y557490D02*
X594462Y544728D01*
X576700Y556743D02*
X590398Y543045D01*
X571700Y555995D02*
X586334Y541361D01*
X618846Y549376D02*
X633730Y564260D01*
X606700Y561227D02*
X614782Y553145D01*
X601700Y560479D02*
X610718Y551461D01*
X596700Y559732D02*
X606654Y549778D01*
X591700Y558985D02*
X602590Y548095D01*
X586700Y558237D02*
X598526Y546411D01*
X613234Y469344D02*
X648322D01*
X728328Y510462D02*
X739280Y521414D01*
X648322Y469344D02*
X648626Y469040D01*
X649409Y469822D01*
X705394Y487680D02*
X712470D01*
X691867Y466598D02*
X698754D01*
X692724Y459994D02*
X705358D01*
X664165Y307599D02*
X664464Y307300D01*
X664165Y307599D02*
Y438779D01*
X663866Y439078D02*
X664165Y438779D01*
X535432Y302514D02*
Y449072D01*
X664464Y306752D02*
Y307300D01*
X663692Y461474D02*
X664628D01*
X661196Y458978D02*
X663692Y461474D01*
X653616Y458978D02*
X661196D01*
X613281Y463550D02*
X645922D01*
X544532Y458172D02*
X547370D01*
X537120Y478072D02*
X537926Y477266D01*
X547878D01*
X523748Y489712D02*
X564642D01*
X514398Y495506D02*
X546667D01*
X561700Y510539D02*
Y583560D01*
X546667Y495506D02*
X561700Y510539D01*
X470154Y539750D02*
X514398Y495506D01*
X545210Y543560D02*
X547370Y541400D01*
Y526160D02*
Y541400D01*
X571700Y555995D02*
Y583560D01*
X576700Y556743D02*
Y583560D01*
X401828Y412695D02*
X435958Y446825D01*
X401828Y376936D02*
Y412695D01*
X405940Y370126D02*
X406260D01*
X405384Y369570D02*
X405940Y370126D01*
X356870Y369570D02*
X405384D01*
X406260Y370126D02*
X410464Y374330D01*
X345440Y381000D02*
X356870Y369570D01*
X386334Y340360D02*
X401828Y355854D01*
X360680Y340360D02*
X386334D01*
X371602Y354838D02*
X388620D01*
X381254Y437896D02*
X398292D01*
X462280Y521950D02*
Y561859D01*
X440022Y499692D02*
X462280Y521950D01*
X458216Y523634D02*
Y563542D01*
X435958Y501376D02*
X458216Y523634D01*
X431894Y448508D02*
Y542968D01*
X427830Y450192D02*
Y544651D01*
X423766Y451875D02*
Y546334D01*
X419702Y453558D02*
Y548018D01*
X415638Y455242D02*
Y549701D01*
X419702Y548018D02*
X436674Y564990D01*
X431894Y542968D02*
X448866Y559940D01*
X427830Y544651D02*
X444802Y561623D01*
X415638Y549701D02*
X432610Y566673D01*
X423766Y546334D02*
X440738Y563307D01*
X440022Y445141D02*
Y499692D01*
X410464Y415583D02*
X440022Y445141D01*
X410464Y374330D02*
Y415583D01*
X435958Y446825D02*
Y500380D01*
X377086Y393700D02*
X431894Y448508D01*
X307340Y393700D02*
X377086D01*
X397754Y420116D02*
X427830Y450192D01*
X282353Y420116D02*
X397754D01*
X396071Y424180D02*
X423766Y451875D01*
X280670Y424180D02*
X396071D01*
X398198Y432054D02*
X419702Y453558D01*
X387350Y432054D02*
X398198D01*
X398292Y437896D02*
X415638Y455242D01*
X458216Y563542D02*
X520964Y626290D01*
X432610Y566673D02*
Y662609D01*
X436674Y564990D02*
Y660926D01*
X440738Y563307D02*
Y659243D01*
X444802Y561623D02*
Y657559D01*
X448866Y559940D02*
Y655876D01*
X520964Y626290D02*
X528930D01*
X462280Y561859D02*
X520775Y620354D01*
X521534D01*
X522490Y621310D01*
X528950D01*
X370840Y355600D02*
X371602Y354838D01*
X268224Y405987D02*
X282353Y420116D01*
X264160Y407670D02*
X280670Y424180D01*
X535432Y449072D02*
X544532Y458172D01*
X1068244Y279828D02*
Y324184D01*
X419100Y305680D02*
X419354Y305934D01*
Y320294D01*
X548894Y305680D02*
Y321056D01*
X806196Y305680D02*
X806450Y305934D01*
Y319278D01*
X1059942Y318770D02*
X1060450Y318262D01*
Y305680D02*
Y318262D01*
X937768Y305680D02*
X938022Y305934D01*
Y317500D01*
X1060196Y271780D02*
X1068244Y279828D01*
X676910Y304410D02*
Y319532D01*
X670714Y745644D02*
X674524D01*
X711200Y782320D01*
X670052Y744982D02*
X670714Y745644D01*
X1311148Y373380D02*
X1317498D01*
X1280668Y342900D02*
X1311148Y373380D01*
X1280668Y332740D02*
Y342900D01*
X1274318Y348234D02*
X1317244Y391160D01*
X1274318Y327152D02*
Y348234D01*
X1267714Y356362D02*
X1319784Y408432D01*
X1267714Y322326D02*
Y356362D01*
X1090930Y754380D02*
X1109980D01*
X1088644Y762254D02*
X1109726D01*
X1086104Y769874D02*
X1109726D01*
X1061720Y745490D02*
X1086104Y769874D01*
X1065530Y739140D02*
X1088644Y762254D01*
X1070610Y734060D02*
X1090930Y754380D01*
X1252474Y287576D02*
Y327406D01*
X1246330Y281432D02*
X1252474Y287576D01*
X1239520Y281432D02*
X1246330D01*
X1170940Y293050D02*
X1182558Y281432D01*
X1239520D01*
X616700Y583560D02*
Y590779D01*
X609055Y598424D02*
X616700Y590779D01*
X618582Y602488D02*
X631180Y589890D01*
X543598Y598424D02*
X609055D01*
X542420Y597246D02*
X543598Y598424D01*
X542062Y597246D02*
X542420D01*
X521970Y577154D02*
X542062Y597246D01*
X521970Y576580D02*
Y577154D01*
X541914Y602488D02*
X618582D01*
X619098Y607668D02*
X619760Y608330D01*
X613830Y607668D02*
X619098D01*
X613408Y607246D02*
X613830Y607668D01*
X540925Y607246D02*
X613408D01*
X540009Y606330D02*
X540925Y607246D01*
X528970Y606330D02*
X540009D01*
X528950Y606310D02*
X528970Y606330D01*
X540736Y601310D02*
X541914Y602488D01*
X528950Y601310D02*
X540736D01*
X565150Y594360D02*
X566680Y592830D01*
X545281Y594360D02*
X565150D01*
X566680Y583580D02*
Y592830D01*
X711200Y807720D02*
X746760D01*
X797560Y756920D01*
X828040Y772160D02*
X916940D01*
X720090Y584820D02*
X720900Y585630D01*
X636930Y589890D02*
X649526Y577294D01*
X631180Y589890D02*
X636930D01*
X621720Y585826D02*
X634644D01*
X621700Y585806D02*
X621720Y585826D01*
X634644D02*
X645462Y575008D01*
X539750Y577850D02*
Y588829D01*
X545281Y594360D01*
X546700Y564100D02*
Y583560D01*
X601678Y712734D02*
Y742649D01*
X596700Y707756D02*
X601678Y712734D01*
X588979Y755348D02*
X601678Y742649D01*
X587296Y751284D02*
X597614Y740966D01*
Y719969D02*
Y740966D01*
X591700Y714055D02*
X597614Y719969D01*
X611720Y574080D02*
Y583540D01*
X611700Y583560D02*
X611720Y583540D01*
X531902Y575918D02*
X543940Y563880D01*
X586700Y558237D02*
Y583560D01*
X581700Y557490D02*
Y583560D01*
X601700Y702310D02*
X614790Y715400D01*
X556700Y717990D02*
X584200Y745490D01*
X527032Y751284D02*
X587296D01*
X591820Y722630D02*
Y732790D01*
X708635Y769620D02*
X772160D01*
X695630Y756615D02*
X708635Y769620D01*
X689675Y718820D02*
X746760D01*
X762000Y734060D01*
X660639Y689784D02*
X689675Y718820D01*
X682598Y701648D02*
X683260Y702310D01*
X682598Y696948D02*
Y701648D01*
X671450Y685800D02*
X682598Y696948D01*
X662400Y721360D02*
X664210D01*
X653510Y712470D02*
X662400Y721360D01*
X651510Y712470D02*
X653510D01*
X497840Y676910D02*
X498220Y676530D01*
X509270D01*
X1144270Y477585D02*
Y487680D01*
Y477585D02*
X1165925Y455930D01*
X1136650Y479457D02*
Y487680D01*
Y479457D02*
X1166527Y449580D01*
X737597Y525478D02*
X750937D01*
X739280Y521414D02*
X749253D01*
X741680Y515620D02*
X749300D01*
X655320Y580390D02*
X655894D01*
X616365Y615950D02*
X619760D01*
X618310Y624840D02*
X619760D01*
X616278Y632460D02*
X619760D01*
X617220Y652780D02*
X625750Y661310D01*
X639450D01*
X704850Y693420D02*
X1071880D01*
X1081210Y666310D02*
X1179322Y568198D01*
X639450Y666310D02*
X1081210D01*
X736600Y635000D02*
X744220D01*
X717846Y661304D02*
X720470Y658680D01*
X663293Y661304D02*
X717846D01*
X696970Y679190D02*
Y685540D01*
X689090Y671310D02*
X696970Y679190D01*
Y685540D02*
X704850Y693420D01*
X639450Y671310D02*
X689090D01*
X662402Y685800D02*
X668910D01*
X662322Y685720D02*
X662402Y685800D01*
X648860Y685720D02*
X662322D01*
X639450Y676310D02*
X648860Y685720D01*
X796290Y739140D02*
X1065530D01*
X791210Y744220D02*
X796290Y739140D01*
X689007Y744220D02*
X791210D01*
X674624Y729837D02*
X689007Y744220D01*
X674624Y709517D02*
Y729837D01*
X659797Y694690D02*
X674624Y709517D01*
X796290Y745490D02*
X1061720D01*
X670560Y731520D02*
X695630Y756590D01*
X772160Y769620D02*
X796290Y745490D01*
X695630Y756590D02*
Y756615D01*
X720470Y657430D02*
X722580Y655320D01*
X648803Y694690D02*
X659797D01*
X720470Y657430D02*
Y658680D01*
X722580Y655320D02*
X733680D01*
X736220Y657860D01*
X700230Y631190D02*
X704470Y635430D01*
X688450Y632950D02*
X690210Y631190D01*
X700230D01*
X554870Y646310D02*
X639450D01*
X658699D01*
X544830Y636270D02*
X554870Y646310D01*
X639450Y656310D02*
X658299D01*
X639450Y651310D02*
X670250D01*
X658699Y646310D02*
X666199Y638810D01*
X675640D01*
X658299Y656310D02*
X663293Y661304D01*
X670250Y651310D02*
X670450Y651510D01*
X608330Y652780D02*
X611700Y656150D01*
X600710Y653354D02*
X606700Y659344D01*
X600710Y652780D02*
Y653354D01*
X606700Y659344D02*
Y694060D01*
X611700Y656150D02*
Y694060D01*
X675669Y586740D02*
X676910D01*
X664210Y589280D02*
X665480D01*
X655003Y632460D02*
X656590D01*
X665814Y628650D02*
X666750D01*
X663830Y626666D02*
X665814Y628650D01*
X654190Y626666D02*
X663830D01*
X649566Y631290D02*
X654190Y626666D01*
X639470Y631290D02*
X649566D01*
X674402Y622602D02*
X677244Y619760D01*
X652507Y622602D02*
X674402D01*
X648819Y626290D02*
X652507Y622602D01*
X639470Y626290D02*
X648819D01*
X651153Y636310D02*
X655003Y632460D01*
X639450Y636310D02*
X651153D01*
X655360Y641310D02*
X656550Y640120D01*
X639450Y641310D02*
X655360D01*
X677244Y619760D02*
X678180D01*
X665314Y611036D02*
X674370Y601980D01*
X648427Y611036D02*
X665314D01*
X648173Y611290D02*
X648427Y611036D01*
X674370Y601980D02*
X675640D01*
X639450Y631310D02*
X639470Y631290D01*
Y616330D02*
X650620D01*
X639450Y626310D02*
X639470Y626290D01*
X673796Y594360D02*
X676910D01*
X639470Y611290D02*
X648173D01*
X639450Y611310D02*
X639470Y611290D01*
X611720Y574080D02*
X621540Y564260D01*
X633730D01*
X604192Y620374D02*
X616278Y632460D01*
X548026Y620374D02*
X604192D01*
X609780Y616310D02*
X618310Y624840D01*
X611725Y611310D02*
X616365Y615950D01*
X537110Y631290D02*
X548026Y620374D01*
X528970Y631290D02*
X537110D01*
X528950Y631310D02*
X528970Y631290D01*
X528950Y616310D02*
X609780D01*
X528950Y611310D02*
X611725D01*
X545210Y547370D02*
X549910D01*
X556700Y554160D02*
Y583560D01*
X549910Y547370D02*
X556700Y554160D01*
X644064Y689784D02*
X660639D01*
X762000Y734060D02*
X1070610D01*
X643890Y689610D02*
X644064Y689784D01*
X651510Y701040D02*
X660400D01*
X644350Y699143D02*
X648803Y694690D01*
X638167Y699143D02*
X644350D01*
X637540Y699770D02*
X638167Y699143D01*
X670560Y711200D02*
Y731520D01*
X660400Y701040D02*
X670560Y711200D01*
X556260Y674370D02*
X595630D01*
X554387Y666750D02*
X595630D01*
X543947Y656310D02*
X554387Y666750D01*
X556260Y659130D02*
X595630D01*
X538460Y641330D02*
X556260Y659130D01*
X529590Y704850D02*
X539750Y694690D01*
X508000Y704850D02*
X529590D01*
X528950Y656310D02*
X543947D01*
X543200Y661310D02*
X556260Y674370D01*
X528950Y661310D02*
X543200D01*
X539330Y666330D02*
X544830Y671830D01*
X528970Y641330D02*
X538460D01*
X528950Y641310D02*
X528970Y641330D01*
X817880Y791210D02*
X967740D01*
X589280Y680720D02*
Y681294D01*
X586720Y683854D02*
X589280Y681294D01*
X586720Y683854D02*
Y694040D01*
X586700Y694060D02*
X586720Y694040D01*
X581700Y680760D02*
Y694060D01*
X581660Y680720D02*
X581700Y680760D01*
X571700Y680920D02*
Y694060D01*
X571500Y680720D02*
X571700Y680920D01*
X294640Y381000D02*
X307340Y393700D01*
X268224Y382016D02*
Y405987D01*
Y382016D02*
X294640Y355600D01*
X264160Y360680D02*
X294640Y330200D01*
X264160Y360680D02*
Y407670D01*
X370840Y381000D02*
Y381574D01*
X525349Y755348D02*
X588979D01*
X596700Y694060D02*
Y707756D01*
X432610Y662609D02*
X525349Y755348D01*
X591700Y694060D02*
Y714055D01*
X436674Y660926D02*
X527032Y751284D01*
X584200Y727710D02*
Y728980D01*
X566700Y710210D02*
X584200Y727710D01*
X566700Y694060D02*
Y710210D01*
X513080Y720090D02*
X541020D01*
X448866Y655876D02*
X513080Y720090D01*
X583626Y736600D02*
X584200D01*
X561700Y714674D02*
X583626Y736600D01*
X561700Y694060D02*
Y714674D01*
X514953Y727710D02*
X541020D01*
X444802Y657559D02*
X514953Y727710D01*
X556700Y694060D02*
Y717990D01*
X516825Y735330D02*
X541020D01*
X440738Y659243D02*
X516825Y735330D01*
X585470Y716280D02*
X591820Y722630D01*
X528970Y666330D02*
X539330D01*
X528950Y666310D02*
X528970Y666330D01*
X601700Y694060D02*
Y702310D01*
X614790Y715400D02*
X617220D01*
X551700Y729500D02*
X552450Y730250D01*
X551700Y694060D02*
Y729500D01*
X464700Y646310D02*
X528950D01*
X454660Y636270D02*
X464700Y646310D01*
X461210Y651310D02*
X528950D01*
X542290Y711200D02*
X546700Y706790D01*
Y694060D02*
Y706790D01*
X576637Y707333D02*
X576680Y707290D01*
Y694080D02*
Y707290D01*
X345440Y355600D02*
X360680Y340360D01*
X528930Y626290D02*
X528950Y626310D01*
X576680Y694080D02*
X576700Y694060D01*
X639450Y616310D02*
X639470Y616330D01*
X1238806Y756206D02*
X1242060Y759460D01*
X1184354Y396796D02*
X1184910Y396240D01*
X591700Y558985D02*
Y583560D01*
X596700Y559732D02*
Y583560D01*
X601700Y560479D02*
Y583560D01*
X606700Y561227D02*
Y583560D01*
X566680Y583580D02*
X566700Y583560D01*
X632460Y712090D02*
X632840Y712470D01*
X651510D01*
X632990Y676310D02*
X639450D01*
X621700Y694060D02*
X621720Y694080D01*
Y701350D01*
X632460Y712090D01*
X509270Y676530D02*
X509490Y676310D01*
X528950D01*
X546480Y563880D02*
X546700Y564100D01*
X736220Y635380D02*
X736600Y635000D01*
X736220Y635380D02*
Y657860D01*
X688340Y632840D02*
X688450Y632950D01*
Y651510D01*
X783590Y726440D02*
X891540D01*
X767080Y720090D02*
X942340D01*
X817880Y781050D02*
X866140D01*
X1305560Y426720D02*
X1318260D01*
X1233170Y499110D02*
X1305560Y426720D01*
D18*
X255800Y444170D02*
Y752170D01*
D24*
X1060450Y288680D02*
D03*
Y305680D02*
D03*
X937768Y288680D02*
D03*
Y305680D02*
D03*
X806196Y288680D02*
D03*
Y305680D02*
D03*
X548894Y288680D02*
D03*
Y305680D02*
D03*
X419100Y288680D02*
D03*
Y305680D02*
D03*
X676910Y288680D02*
D03*
Y305680D02*
D03*
X617220Y715400D02*
D03*
Y732400D02*
D03*
D25*
X651510Y732470D02*
D03*
Y712470D02*
D03*
X737870Y605630D02*
D03*
Y585630D02*
D03*
D31*
X547370Y510160D02*
D03*
Y526160D02*
D03*
X509270Y692530D02*
D03*
Y676530D02*
D03*
X688340Y616840D02*
D03*
Y632840D02*
D03*
X704850Y583820D02*
D03*
Y599820D02*
D03*
X688340Y583820D02*
D03*
Y599820D02*
D03*
X633730Y548260D02*
D03*
Y564260D02*
D03*
X632460Y712090D02*
D03*
Y728090D02*
D03*
D32*
X663866Y439078D02*
D03*
X674116Y458978D02*
D03*
X653616D02*
D03*
X547370Y458172D02*
D03*
X557620Y478072D02*
D03*
X537120D02*
D03*
D40*
X552450Y730250D02*
D03*
X529464Y545338D02*
D03*
X545464D02*
D03*
X687450Y685800D02*
D03*
X671450D02*
D03*
X543940Y563880D02*
D03*
X527940D02*
D03*
X752220Y657860D02*
D03*
X736220D02*
D03*
D75*
X574040Y474292D02*
Y527304D01*
X663866Y439078D02*
X680124D01*
X684530Y443484D01*
Y459994D01*
X557920Y458172D02*
X574040Y474292D01*
X547370Y458172D02*
X557920D01*
X664210Y721360D02*
Y739140D01*
X658534Y744816D02*
X664210Y739140D01*
X629324Y744816D02*
X658534D01*
X613410Y760730D02*
X629324Y744816D01*
X591820Y760730D02*
X613410D01*
X736600Y755650D02*
X758190D01*
X671383Y616624D02*
X678535Y609472D01*
X650914Y616624D02*
X671383D01*
X650620Y616330D02*
X650914Y616624D01*
X678535Y609472D02*
X678688D01*
X688340Y599820D01*
X704850D01*
X705350Y599320D01*
X719590D01*
X720090Y598820D01*
D76*
X389382Y476932D02*
X407844Y458470D01*
X389382Y756412D02*
X437388Y804418D01*
X389382Y476932D02*
Y756412D01*
X721360Y301550D02*
X723190Y299720D01*
X626110Y302260D02*
X628650Y299720D01*
X758190D02*
Y302720D01*
X499820Y299720D02*
Y302720D01*
X1140460Y299720D02*
Y302720D01*
X1087374Y349452D02*
Y349758D01*
X1018540Y299720D02*
Y302720D01*
X887170Y299720D02*
Y302720D01*
X831342Y426466D02*
X832052D01*
X538068Y796036D02*
X552450D01*
X513588Y820516D02*
X538068Y796036D01*
X437388Y804418D02*
X457454D01*
X597871Y796036D02*
X638048Y755859D01*
X552450Y796036D02*
X597871D01*
X464185Y300355D02*
X464820Y299720D01*
X851535Y300355D02*
X852170Y299720D01*
X982625Y300635D02*
X983540Y299720D01*
X1104545Y300635D02*
X1105460Y299720D01*
D78*
X419100Y270256D02*
X430832Y258524D01*
X921512D02*
X1029794D01*
X789940D02*
X921512D01*
Y283424D01*
X926768Y288680D01*
X937768D01*
X660146Y258524D02*
X789940D01*
Y282448D01*
X795196Y287704D01*
X805220D01*
X806196Y288680D01*
X532384Y258524D02*
X660146D01*
Y282448D01*
X665910Y288212D01*
X676442D01*
X676910Y288680D01*
X430832Y258524D02*
X532384D01*
Y283170D01*
X537894Y288680D01*
X548894D01*
X419100Y270256D02*
Y288680D01*
X1029794Y258524D02*
X1059950Y288680D01*
X1060450D01*
D79*
X1324534Y423926D02*
Y480136D01*
X1272210Y371602D02*
X1324534Y423926D01*
X1241720Y371602D02*
X1272210D01*
X1223952Y353834D02*
X1241720Y371602D01*
X1223952Y317997D02*
Y353834D01*
Y317997D02*
X1226312Y315637D01*
Y314960D02*
Y315637D01*
X1295400Y509270D02*
X1324534Y480136D01*
D80*
X650240Y527304D02*
D03*
X1163574Y527558D02*
D03*
X1038352Y528320D02*
D03*
X907542Y528066D02*
D03*
X779526Y528320D02*
D03*
X521970Y528574D02*
D03*
D81*
X574040Y349504D02*
D03*
Y425704D02*
D03*
Y527304D02*
D03*
X1087374Y349758D02*
D03*
Y425958D02*
D03*
Y527558D02*
D03*
X962152Y350520D02*
D03*
Y426720D02*
D03*
Y528320D02*
D03*
X831342Y350266D02*
D03*
Y426466D02*
D03*
Y528066D02*
D03*
X703326Y350520D02*
D03*
Y426720D02*
D03*
Y528320D02*
D03*
X445770Y350774D02*
D03*
Y426974D02*
D03*
Y528574D02*
D03*
X661912Y814494D02*
D03*
X559412D02*
D03*
X661912Y777494D02*
D03*
X559412D02*
D03*
D82*
X852170Y302720D02*
D03*
X464820D02*
D03*
X594360Y302260D02*
D03*
X723190Y302720D02*
D03*
X983540D02*
D03*
X1105460D02*
D03*
D83*
X887170D02*
D03*
X499820D02*
D03*
X629360Y302260D02*
D03*
X758190Y302720D02*
D03*
X1018540D02*
D03*
X1140460D02*
D03*
D84*
X1225042Y792734D02*
D03*
D85*
X1305306Y302260D02*
D03*
X350000Y299720D02*
D03*
Y787400D02*
D03*
D86*
X711200Y807720D02*
D03*
X294640Y330200D02*
D03*
X370840Y355600D02*
D03*
D87*
X711200Y782320D02*
D03*
Y756920D02*
D03*
Y731520D02*
D03*
Y706120D02*
D03*
Y680720D02*
D03*
X294640Y406400D02*
D03*
Y381000D02*
D03*
Y355600D02*
D03*
X345440Y406400D02*
D03*
X370840D02*
D03*
X345440Y381000D02*
D03*
X370840D02*
D03*
X345440Y355600D02*
D03*
D88*
X1207570Y628650D02*
D03*
X1195070D02*
D03*
X1182570D02*
D03*
X1170070D02*
D03*
D89*
X840740Y704850D02*
D03*
D90*
X866140D02*
D03*
X891540D02*
D03*
X916940D02*
D03*
X942340D02*
D03*
X967740D02*
D03*
X993140D02*
D03*
X1018540D02*
D03*
Y806450D02*
D03*
X993140D02*
D03*
X967740D02*
D03*
X942340D02*
D03*
X916940D02*
D03*
X891540D02*
D03*
X866140D02*
D03*
X840740D02*
D03*
D91*
X350000Y473170D02*
D03*
Y723170D02*
D03*
D92*
X335800Y639720D02*
D03*
Y612020D02*
D03*
Y584320D02*
D03*
Y556620D02*
D03*
X364200Y570470D02*
D03*
Y653570D02*
D03*
Y625870D02*
D03*
Y598170D02*
D03*
D93*
Y542770D02*
D03*
D94*
X586740Y472694D02*
D03*
X627888Y500380D02*
D03*
X622266Y505398D02*
D03*
X564896Y489458D02*
D03*
X658368Y547624D02*
D03*
X608330Y459232D02*
D03*
X669290Y545338D02*
D03*
X656590Y589280D02*
D03*
X650892Y552278D02*
D03*
X665480Y516382D02*
D03*
X845820Y552196D02*
D03*
X874570Y560118D02*
D03*
X693420Y474218D02*
D03*
X966724Y567436D02*
D03*
X1029208Y574548D02*
D03*
X701040Y574040D02*
D03*
X1087374Y585216D02*
D03*
X1050000Y600000D02*
D03*
X900000D02*
D03*
X800000D02*
D03*
X1013714Y592582D02*
D03*
X1122680Y549656D02*
D03*
X920750Y485394D02*
D03*
X736854Y459486D02*
D03*
X783082D02*
D03*
X805688Y459994D02*
D03*
X942086Y458978D02*
D03*
X1061974Y458470D02*
D03*
X1228598Y450342D02*
D03*
X1194816Y449580D02*
D03*
X1185808Y396240D02*
D03*
X1053846Y487934D02*
D03*
X1190498Y575056D02*
D03*
X1223772Y568198D02*
D03*
X1265896Y505246D02*
D03*
X624640Y528520D02*
D03*
Y516986D02*
D03*
X712470Y487680D02*
D03*
X698754Y466598D02*
D03*
X705358Y459994D02*
D03*
X684530D02*
D03*
X535432Y302514D02*
D03*
X664464Y307300D02*
D03*
X658622Y301498D02*
D03*
X664628Y461474D02*
D03*
X645922Y463550D02*
D03*
X547878Y477266D02*
D03*
X523748Y489712D02*
D03*
X423672Y265176D02*
D03*
X425000Y350000D02*
D03*
X401828Y376936D02*
D03*
Y355854D02*
D03*
X388620Y354838D02*
D03*
X381254Y437896D02*
D03*
X470154Y539750D02*
D03*
X387350Y432054D02*
D03*
X794004Y301498D02*
D03*
X419354Y320294D02*
D03*
X548894Y321056D02*
D03*
X806450Y319278D02*
D03*
X1059942Y318770D02*
D03*
X938022Y317500D02*
D03*
X926338Y298450D02*
D03*
X950000Y300000D02*
D03*
X407844Y458470D02*
D03*
X786220Y302794D02*
D03*
X528918Y296698D02*
D03*
X676910Y319532D02*
D03*
X814842Y352768D02*
D03*
X513588Y820516D02*
D03*
X350000Y600000D02*
D03*
X638048Y755859D02*
D03*
X670052Y744982D02*
D03*
X591820Y760730D02*
D03*
X1317498Y373380D02*
D03*
X1280668Y332740D02*
D03*
X1317244Y391160D02*
D03*
X1274318Y327152D02*
D03*
X1319784Y408432D02*
D03*
X1267714Y322326D02*
D03*
X1109980Y754380D02*
D03*
X1109726Y762254D02*
D03*
Y769874D02*
D03*
X1226312Y314960D02*
D03*
X1239520Y281432D02*
D03*
X518668Y556006D02*
D03*
X492506Y666242D02*
D03*
X552450Y627380D02*
D03*
X562610Y640080D02*
D03*
X797560Y756920D02*
D03*
X828040Y772160D02*
D03*
X778510Y648970D02*
D03*
X626110Y538480D02*
D03*
X539750Y577850D02*
D03*
X521970Y576580D02*
D03*
X706120Y615950D02*
D03*
X601980Y751840D02*
D03*
X1300000Y800000D02*
D03*
Y700000D02*
D03*
X1325000Y650000D02*
D03*
X1300000Y600000D02*
D03*
X1325000Y550000D02*
D03*
X1250000Y700000D02*
D03*
Y500000D02*
D03*
X1267740Y313116D02*
D03*
X1200000Y800000D02*
D03*
X1225000Y650000D02*
D03*
X1200000Y600000D02*
D03*
X1150000Y800000D02*
D03*
X1100000D02*
D03*
X1050000D02*
D03*
Y700000D02*
D03*
Y400000D02*
D03*
Y300000D02*
D03*
X950000Y400000D02*
D03*
X900000Y800000D02*
D03*
X925000Y650000D02*
D03*
X850000Y800000D02*
D03*
X800000D02*
D03*
Y400000D02*
D03*
X700000Y700000D02*
D03*
Y400000D02*
D03*
X475000Y750000D02*
D03*
X450000Y700000D02*
D03*
Y500000D02*
D03*
X400000Y800000D02*
D03*
X425000Y750000D02*
D03*
X400000Y300000D02*
D03*
X375000Y750000D02*
D03*
Y450000D02*
D03*
X300000Y800000D02*
D03*
X325000Y750000D02*
D03*
X300000Y700000D02*
D03*
X325000Y650000D02*
D03*
X300000Y600000D02*
D03*
Y500000D02*
D03*
X325000Y450000D02*
D03*
Y350000D02*
D03*
X300000Y300000D02*
D03*
X1295400Y509270D02*
D03*
X529590Y576580D02*
D03*
X584200Y745490D02*
D03*
X591820Y732790D02*
D03*
X758190Y755650D02*
D03*
X736600D02*
D03*
X683260Y702310D02*
D03*
X664210Y721360D02*
D03*
X457454Y804418D02*
D03*
X497840Y676910D02*
D03*
X1144270Y487680D02*
D03*
X1136650D02*
D03*
X1129030D02*
D03*
X1135380Y523240D02*
D03*
X1125220D02*
D03*
X1116330D02*
D03*
X721934Y486410D02*
D03*
X643890Y548640D02*
D03*
X748030Y508000D02*
D03*
X741124Y502206D02*
D03*
X741680Y515620D02*
D03*
X655320Y571500D02*
D03*
X619760Y608330D02*
D03*
Y615950D02*
D03*
Y624840D02*
D03*
Y632460D02*
D03*
X617220Y652780D02*
D03*
X608330D02*
D03*
X600710D02*
D03*
X595630Y674370D02*
D03*
Y666750D02*
D03*
Y659130D02*
D03*
X765810Y593090D02*
D03*
X664210Y589280D02*
D03*
X675640Y638810D02*
D03*
X656590Y632460D02*
D03*
X656550Y640120D02*
D03*
X666750Y628650D02*
D03*
X678180Y619760D02*
D03*
X675640Y601980D02*
D03*
X676910Y586740D02*
D03*
Y594360D02*
D03*
X655320Y580390D02*
D03*
X651510Y701040D02*
D03*
X643890Y689610D02*
D03*
X637540Y699770D02*
D03*
X539750Y694690D02*
D03*
X508000Y704850D02*
D03*
X544830Y636270D02*
D03*
Y671830D02*
D03*
X817880Y791210D02*
D03*
X722630Y461010D02*
D03*
X589280Y680720D02*
D03*
X581660D02*
D03*
X571500D02*
D03*
X584200Y728980D02*
D03*
X541020Y720090D02*
D03*
X584200Y736600D02*
D03*
X541020Y727710D02*
D03*
Y735330D02*
D03*
X585470Y716280D02*
D03*
X454660Y636270D02*
D03*
X461210Y651310D02*
D03*
X542290Y711200D02*
D03*
X576637Y707333D02*
D03*
X1242060Y759460D02*
D03*
X1244600Y646430D02*
D03*
X1177290Y402590D02*
D03*
X1182370Y289814D02*
D03*
X1215390D02*
D03*
X916940Y772160D02*
D03*
X891540Y726440D02*
D03*
X783590D02*
D03*
X942340Y720090D02*
D03*
X767080D02*
D03*
X866140Y781050D02*
D03*
X817880D02*
D03*
X967740Y791210D02*
D03*
X1060196Y271780D02*
D03*
X1318260Y426720D02*
D03*
X1231392Y499110D02*
D03*
D95*
X1246632Y337566D02*
D03*
X744220Y632460D02*
D03*
D96*
X704470Y651080D02*
D03*
X720470Y629080D02*
D03*
Y651080D02*
D03*
D97*
X704470Y629080D02*
D03*
D98*
X688450Y651510D02*
D03*
X670450D02*
D03*
D99*
X720090Y584820D02*
D03*
Y598820D02*
D03*
D100*
X639450Y676310D02*
D03*
Y671310D02*
D03*
Y666310D02*
D03*
Y661310D02*
D03*
Y656310D02*
D03*
Y651310D02*
D03*
Y646310D02*
D03*
Y641310D02*
D03*
Y636310D02*
D03*
Y631310D02*
D03*
Y626310D02*
D03*
Y621310D02*
D03*
Y616310D02*
D03*
Y611310D02*
D03*
Y606310D02*
D03*
Y601310D02*
D03*
X528950D02*
D03*
Y606310D02*
D03*
Y611310D02*
D03*
Y616310D02*
D03*
Y621310D02*
D03*
Y626310D02*
D03*
Y631310D02*
D03*
Y636310D02*
D03*
Y641310D02*
D03*
Y646310D02*
D03*
Y651310D02*
D03*
Y656310D02*
D03*
Y661310D02*
D03*
Y666310D02*
D03*
Y671310D02*
D03*
Y676310D02*
D03*
D101*
X621700Y583560D02*
D03*
X616700D02*
D03*
X611700D02*
D03*
X606700D02*
D03*
X601700D02*
D03*
X596700D02*
D03*
X591700D02*
D03*
X586700D02*
D03*
X581700D02*
D03*
X576700D02*
D03*
X571700D02*
D03*
X566700D02*
D03*
X561700D02*
D03*
X556700D02*
D03*
X551700D02*
D03*
X546700D02*
D03*
Y694060D02*
D03*
X551700D02*
D03*
X556700D02*
D03*
X561700D02*
D03*
X566700D02*
D03*
X571700D02*
D03*
X576700D02*
D03*
X581700D02*
D03*
X586700D02*
D03*
X591700D02*
D03*
X596700D02*
D03*
X601700D02*
D03*
X606700D02*
D03*
X611700D02*
D03*
X616700D02*
D03*
X621700D02*
D03*
M02*
