M48
;Layer_Color=9474304
;FILE_FORMAT=4:4
METRIC,LZ
;TYPE=PLATED
T1F00S00C0.3000
T2F00S00C0.7000
T3F00S00C0.7500
T4F00S00C1.0000
T5F00S00C1.1000
T6F00S00C1.2000
T7F00S00C1.4000
T8F00S00C1.5500
T9F00S00C3.2000
T10F00S00C3.3000
%
T01
X003Y003
X00325Y0035
X0038862Y00354838
X00401828Y00355854
Y00376936
X00425Y0035
X00419354Y00320294
X004Y003
X00423672Y00265176
X00528918Y00296698
X00535432Y00302514
X00548894Y00321056
X00658622Y00301498
X00664464Y003073
X0067691Y00319532
X0078622Y00302794
X00794004Y00301498
X0080645Y00319278
X00814842Y00352768
X00938022Y003175
X0095Y003
X00926338Y0029845
X0105Y003
X01059942Y0031877
X01060196Y0027178
X0118237Y00289814
X01185808Y0039624
X01226312Y0031496
X0121539Y00289814
X0123952Y00281432
X0126774Y00313116
X01267714Y00322326
X01274318Y00327152
X01280668Y0033274
X01317498Y0037338
X01317244Y0039116
X01319784Y00408432
X0131826Y0042672
X012954Y0050927
X01265896Y00505246
X0125Y005
X01231392Y0049911
X01228598Y00450342
X01194816Y0044958
X01223772Y00568198
X012Y006
X01225Y0065
X012446Y0064643
X0125Y007
X013
X01325Y0065
X013Y006
X01325Y0055
X0124206Y0075946
X01109726Y00762254
Y00769874
X0110998Y0075438
X0105Y007
Y006
X01013714Y00592582
X01029208Y00574548
X01087374Y00585216
X0112268Y00549656
X0112522Y0052324
X0111633
X0113538
X0113665Y0048768
X0114427
X0112903
X01053846Y00487934
X01061974Y0045847
X0105Y004
X0095
X00942086Y00458978
X0092075Y00485394
X0087457Y00560118
X0084582Y00552196
X008Y006
X009
X00925Y0065
X0094234Y0072009
X0089154Y0072644
X0091694Y0077216
X0086614Y0078105
X0082804Y0077216
X0081788Y0078105
Y0079121
X0079756Y0075692
X0096774Y0079121
X00966724Y00567436
X01190498Y00575056
X0117729Y0040259
X008Y004
X00805688Y00459994
X00783082Y00459486
X00736854
X0072263Y0046101
X00705358Y00459994
X00698754Y00466598
X0069342Y00474218
X0068453Y00459994
X00664628Y00461474
X00645922Y0046355
X0060833Y00459232
X0058674Y00472694
X00564896Y00489458
X00547878Y00477266
X00523748Y00489712
X00518668Y00556006
X0052197Y0057658
X0052959
X0053975Y0057785
X0055245Y0062738
X0054483Y0063627
X0056261Y0064008
X0054483Y0067183
X0053975Y0069469
X0054229Y007112
X0054102Y0072009
Y0072771
Y0073533
X005842Y007366
Y0072898
X0059182Y0073279
X005842Y0074549
X0059182Y0076073
X0060198Y0075184
X00638048Y00755859
X00670052Y00744982
X0066421Y0072136
X0065151Y0070104
X0063754Y0069977
X0064389Y0068961
X0068326Y0070231
X007Y007
X0067564Y0063881
X0066675Y0062865
X0065659Y0063246
X0065655Y0064012
X0067818Y0061976
X0067564Y0060198
X0067691Y0059436
Y0058674
X0066421Y0058928
X0065659
X0065532Y0058039
Y005715
X00650892Y00552278
X0064389Y0054864
X00658368Y00547624
X0066929Y00545338
X0066548Y00516382
X0062464Y00516986
Y0052852
X0062611Y0053848
X00622266Y00505398
X00627888Y0050038
X0071247Y0048768
X00721934Y0048641
X00741124Y00502206
X0074803Y00508
X0074168Y0051562
X0070104Y0057404
X0070612Y0061595
X0076581Y0059309
X0077851Y0064897
X0078359Y0072644
X0076708Y0072009
X0075819Y0075565
X007366
X0058547Y0071628
X00576637Y00707333
X0058166Y0068072
X0058928
X0059563Y0067437
Y0066675
Y0065913
X0060071Y0065278
X0060833
X0061722
X0061976Y0063246
Y0062484
Y0061595
Y0060833
X005715Y0068072
X0049784Y0067691
X00492506Y00666242
X0046121Y0065131
X0045466Y0063627
X0045Y007
X00508Y0070485
X00475Y0075
X00425
X00470154Y0053975
X0045Y005
X00407844Y0045847
X007Y004
X0038735Y00432054
X00381254Y00437896
X00375Y0045
X00325
X003Y005
Y006
X0035
X00325Y0065
X003Y007
X00325Y0075
X00375
X003Y008
X004
X00457454Y00804418
X00513588Y00820516
X008Y008
X0085
X009
X0105
X011
X0115
X012
X013
T02
X0084074Y0070485
X0086614
X0089154
X0091694
X0094234
X0096774
X0099314
X0101854
Y0080645
X0099314
X0096774
X0094234
X0091694
X0089154
X0086614
X0084074
T03
X0119507Y0062865
X0120757
X0118257
X0117007
T04
X003358Y0055662
Y0058432
Y0061202
Y0063972
X003642Y0065357
Y0062587
Y0059817
Y0057047
Y0054277
T05
X0029464Y003302
Y003556
Y00381
X0034544
X0037084
Y003556
X0034544
X007112Y0068072
Y0070612
Y0073152
Y0075692
Y0078232
X0037084Y004064
X0034544
X0029464
X007112Y0080772
T06
X0046482Y0030272
X0049982
X0059436Y0030226
X0062936
X0072319Y0030272
X0075819
X0085217
X0088717
X0098354
X0101854
X0110546
X0114046
T07
X0044577Y00350774
X0057404Y00349504
X00703326Y0035052
X00831342Y00350266
X00962152Y0035052
X01087374Y00349758
Y00425958
Y00527558
X01038352Y0052832
X00962152
X00907542Y00528066
X00831342
Y00426466
X00962152Y0042672
X01163574Y00527558
X00779526Y0052832
X00703326
X0065024Y00527304
X0057404
X0052197Y00528574
X0044577
Y00426974
X0057404Y00425704
X00703326Y0042672
T08
X00559412Y00777494
X00661912
Y00814494
X00559412
T09
X0035Y0047317
Y0072317
T10
X0035Y0029972
X01305306Y0030226
X01225042Y00792734
X0035Y007874
M30
